SplineFontDB: 3.2
FontName: linjawawa
FullName: linja wawa
FamilyName: linja wawa
Weight: Book
Copyright: u/just-a-melon & u/ElemenopiTheSequel (2021)

StartChar: .notdef
Encoding: 65536 -1 0
Width: 364
Flags: W
LayerCount: 2
Fore
SplineSet
33 0 m 1,0,-1
 33 666 l 1,1,-1
 298 666 l 1,2,-1
 298 0 l 1,3,-1
 33 0 l 1,0,-1
66 33 m 1,4,-1
 265 33 l 1,5,-1
 265 633 l 1,6,-1
 66 633 l 1,7,-1
 66 33 l 1,4,-1
EndSplineSet
Validated: 1
EndChar

StartChar: exclam
Encoding: 33 33 5
Width: 213
GlyphClass: 2
Flags: W
LayerCount: 2
Fore
SplineSet
61 668 m 0,0,1
 72 676 72 676 107 676 c 2,2,-1
 127 676 l 2,3,4
 148 676 148 676 154.5 665 c 128,-1,5
 161 654 161 654 161 609 c 0,6,7
 161 598 161 598 157 468 c 0,8,9
 153 339 153 339 151 307 c 128,-1,10
 149 275 149 275 144 271 c 0,11,12
 135 264 135 264 107 264 c 128,-1,13
 79 264 79 264 70 271 c 0,14,15
 62 277 62 277 56 468 c 0,16,17
 52 576 52 576 52 623 c 0,18,19
 52 660 52 660 61 668 c 0,0,1
50 158 m 0,20,21
 50 196 50 196 60 209 c 128,-1,22
 70 222 70 222 99 222 c 0,23,24
 101 222 101 222 106 221.5 c 128,-1,25
 111 221 111 221 114 221 c 0,26,27
 144 219 144 219 153.5 208 c 128,-1,28
 163 197 163 197 163 163 c 0,29,30
 163 127 163 127 153 117 c 128,-1,31
 143 107 143 107 107 107 c 0,32,33
 72 107 72 107 61 117 c 128,-1,34
 50 127 50 127 50 158 c 0,20,21
EndSplineSet
Validated: 1
EndChar

StartChar: quotedbl
Encoding: 34 34 6
Width: 343
GlyphClass: 2
Flags: W
LayerCount: 2
Fore
SplineSet
56 675 m 0,0,1
 63 681 63 681 101 681 c 0,2,3
 126 681 126 681 133 677 c 0,4,5
 139 672 139 672 139 641 c 0,6,7
 139 634 139 634 137 578 c 0,8,9
 133 484 133 484 128 477 c 0,10,11
 121 470 121 470 96 470 c 0,12,13
 70 470 70 470 63 477 c 0,14,15
 59 481 59 481 53 576 c 0,16,17
 50 627 50 627 50 646 c 0,18,19
 50 669 50 669 56 675 c 0,0,1
210 675 m 0,20,21
 220 682 220 682 248 682 c 128,-1,22
 276 682 276 682 286 675 c 0,23,24
 293 669 293 669 293 648 c 0,25,26
 293 631 293 631 290 574 c 0,27,28
 285 480 285 480 278 475 c 0,29,30
 270 470 270 470 250 470 c 0,31,32
 222 470 222 470 217 477 c 0,33,34
 211 484 211 484 206 576 c 0,35,36
 203 628 203 628 203 647 c 0,37,38
 203 669 203 669 210 675 c 0,20,21
EndSplineSet
Validated: 1
EndChar

StartChar: numbersign
Encoding: 35 35 7
Width: 499
GlyphClass: 2
Flags: W
LayerCount: 2
Fore
SplineSet
301 421 m 2,0,-1
 304 437 l 1,1,-1
 211 437 l 1,2,-1
 207 400 l 2,3,4
 202 348 202 348 201 343 c 2,5,-1
 198 323 l 1,6,-1
 242 323 l 1,7,-1
 252 323 l 2,8,9
 281 323 281 323 285.5 329 c 128,-1,10
 290 335 290 335 295 373 c 0,11,12
 300 418 300 418 301 421 c 2,0,-1
162 634 m 0,13,14
 170 639 170 639 200 639 c 0,15,16
 223 639 223 639 230 635 c 0,17,18
 235 632 235 632 235 621 c 0,19,20
 235 620 235 620 231 582 c 0,21,22
 229 572 229 572 227.5 556.5 c 128,-1,23
 226 541 226 541 224.5 532 c 128,-1,24
 223 523 223 523 222 519 c 2,25,-1
 219 505 l 1,26,-1
 311 505 l 1,27,-1
 317 566 l 2,28,29
 324 626 324 626 332 633 c 0,30,31
 341 639 341 639 372 639 c 0,32,33
 395 639 395 639 400 635 c 0,34,35
 404 632 404 632 404 619 c 0,36,37
 404 603 404 603 393 524 c 2,38,-1
 390 505 l 1,39,-1
 415 504 l 2,40,41
 427 503 427 503 432 501.5 c 128,-1,42
 437 500 437 500 439.5 497 c 128,-1,43
 442 494 442 494 444 487 c 0,44,45
 446 479 446 479 446 471 c 128,-1,46
 446 463 446 463 444 455 c 0,47,48
 441 444 441 444 436 441.5 c 128,-1,49
 431 439 431 439 411 437 c 2,50,-1
 383 435 l 1,51,-1
 377 388 l 2,52,53
 371 347 371 347 371 336 c 0,54,55
 371 326 371 326 375 324.5 c 128,-1,56
 379 323 379 323 394 322 c 0,57,58
 410 320 410 320 415 318 c 128,-1,59
 420 316 420 316 422 307 c 0,60,61
 426 294 426 294 422 276 c 0,62,63
 419 263 419 263 415 260.5 c 128,-1,64
 411 258 411 258 390 257 c 2,65,-1
 361 255 l 1,66,-1
 355 203 l 2,67,68
 349 143 349 143 343.5 129.5 c 128,-1,69
 338 116 338 116 316 116 c 0,70,71
 303 116 303 116 294 117 c 2,72,-1
 269 119 l 1,73,-1
 269 145 l 2,74,75
 272 185 272 185 274 213 c 2,76,-1
 278 256 l 1,77,-1
 233 256 l 2,78,79
 204 256 204 256 196.5 254.5 c 128,-1,80
 189 253 189 253 189 247 c 0,81,82
 188 221 188 221 179.5 172.5 c 128,-1,83
 171 124 171 124 167 121 c 0,84,85
 161 117 161 117 138 117 c 2,86,-1
 129 117 l 1,87,-1
 98 119 l 1,88,-1
 98 145 l 2,89,90
 98 173 98 173 103 213 c 2,91,-1
 107 256 l 1,92,-1
 86 256 l 2,93,94
 54 256 54 256 54 290 c 0,95,96
 54 309 54 309 61.5 316 c 128,-1,97
 69 323 69 323 90 323 c 128,-1,98
 111 323 111 323 115.5 329.5 c 128,-1,99
 120 336 120 336 124 373 c 0,100,101
 129 418 129 418 130 421 c 2,102,-1
 133 437 l 1,103,-1
 110 437 l 2,104,105
 89 437 89 437 82 444 c 128,-1,106
 75 451 75 451 75 471 c 0,107,108
 75 492 75 492 82 498.5 c 128,-1,109
 89 505 89 505 114 505 c 2,110,-1
 141 505 l 1,111,-1
 147 567 l 2,112,113
 153 629 153 629 162 634 c 0,13,14
EndSplineSet
Validated: 1
EndChar

StartChar: dollar
Encoding: 36 36 8
Width: 451
GlyphClass: 2
Flags: W
LayerCount: 2
Fore
SplineSet
216 726 m 0,0,1
 220 732 220 732 246 732 c 0,2,3
 276 732 276 732 282 725 c 0,4,5
 286 719 286 719 286 705 c 0,6,7
 286 701 286 701 284 679 c 2,8,-1
 279 640 l 1,9,-1
 304 634 l 2,10,11
 332 628 332 628 347 622 c 0,12,13
 359 617 359 617 362.5 611.5 c 128,-1,14
 366 606 366 606 368 589 c 0,15,16
 369 583 369 583 369 571 c 0,17,18
 369 534 369 534 353 534 c 2,19,-1
 352 534 l 2,20,21
 338 537 338 537 306 548 c 0,22,23
 270 561 270 561 237 561 c 0,24,25
 203 561 203 561 183 546 c 128,-1,26
 163 531 163 531 163 503 c 0,27,28
 163 480 163 480 183.5 464 c 128,-1,29
 204 448 204 448 262 425 c 0,30,31
 318 403 318 403 342.5 385 c 128,-1,32
 367 367 367 367 382 339 c 128,-1,33
 397 311 397 311 397 274 c 0,34,35
 397 239 397 239 384 212 c 0,36,37
 349 137 349 137 248 119 c 2,38,-1
 226 115 l 1,39,-1
 223 82 l 2,40,41
 221 60 221 60 221 53 c 0,42,43
 221 45 221 45 222 44 c 0,44,45
 225 39 225 39 220 28 c 0,46,47
 214 18 214 18 187 18 c 0,48,49
 164 18 164 18 157 23 c 128,-1,50
 150 28 150 28 150 48 c 0,51,52
 150 64 150 64 151 74 c 2,53,-1
 155 115 l 1,54,-1
 118 126 l 2,55,56
 80 137 80 137 67 149 c 0,57,58
 57 157 57 157 54.5 165 c 128,-1,59
 52 173 52 173 52 196 c 0,60,61
 52 238 52 238 65 238 c 0,62,63
 74 238 74 238 103 223 c 0,64,65
 141 204 141 204 177 201 c 0,66,67
 184 200 184 200 197 200 c 0,68,69
 280 200 280 200 286 256 c 0,70,71
 286 258 286 258 286.5 261 c 128,-1,72
 287 264 287 264 287 265 c 0,73,74
 287 289 287 289 267.5 304.5 c 128,-1,75
 248 320 248 320 193 341 c 0,76,77
 138 361 138 361 109.5 382.5 c 128,-1,78
 81 404 81 404 67 435 c 0,79,80
 54 462 54 462 54 493 c 0,81,82
 54 539 54 539 82 576.5 c 128,-1,83
 110 614 110 614 156 628 c 0,84,85
 191 639 191 639 197 639 c 0,86,87
 204 639 204 639 207 679 c 0,88,89
 211 719 211 719 216 726 c 0,0,1
EndSplineSet
Validated: 1
EndChar

StartChar: percent
Encoding: 37 37 9
Width: 660
GlyphClass: 2
Flags: W
LayerCount: 2
Fore
SplineSet
487 644 m 0,0,1
 496 651 496 651 527 651 c 0,2,3
 560 651 560 651 560 638 c 0,4,5
 560 637 560 637 558 631 c 0,6,7
 549 611 549 611 363.5 360 c 128,-1,8
 178 109 178 109 170 105 c 0,9,10
 158 99 158 99 133 99 c 0,11,12
 102 99 102 99 102 108 c 0,13,14
 102 122 102 122 287 375 c 0,15,16
 473 630 473 630 487 644 c 0,0,1
200 575 m 0,17,18
 187 589 187 589 173 589 c 0,19,20
 156 589 156 589 144.5 567 c 128,-1,21
 133 545 133 545 133 510 c 0,22,23
 133 496 133 496 134 489 c 0,24,25
 140 429 140 429 173 429 c 0,26,27
 177 429 177 429 187 431 c 0,28,29
 202 435 202 435 207.5 451 c 128,-1,30
 213 467 213 467 213 510 c 0,31,32
 213 545 213 545 211 555.5 c 128,-1,33
 209 566 209 566 200 575 c 0,17,18
130 639 m 0,34,35
 144 644 144 644 175 644 c 0,36,37
 208 644 208 644 223 639 c 0,38,39
 243 633 243 633 261.5 614 c 128,-1,40
 280 595 280 595 287 574 c 0,41,42
 294 548 294 548 294 511 c 128,-1,43
 294 474 294 474 287 449 c 0,44,45
 280 427 280 427 259 406 c 128,-1,46
 238 385 238 385 217 378 c 0,47,48
 196 372 196 372 170 372 c 0,49,50
 145 372 145 372 127 378 c 0,51,52
 89 391 89 391 72 421 c 128,-1,53
 55 451 55 451 55 506 c 0,54,55
 55 552 55 552 67 580 c 0,56,57
 87 623 87 623 130 639 c 0,34,35
516 309 m 0,58,59
 504 325 504 325 488 325 c 0,60,61
 475 325 475 325 463.5 313 c 128,-1,62
 452 301 452 301 449 281 c 0,63,64
 447 265 447 265 447 252 c 0,65,66
 447 198 447 198 458 182 c 0,67,68
 469 165 469 165 487 165 c 0,69,70
 515 165 515 165 524 194 c 0,71,72
 529 208 529 208 529 237 c 0,73,74
 529 291 529 291 516 309 c 0,58,59
440 374 m 0,75,76
 460 381 460 381 492 381 c 0,77,78
 521 381 521 381 537 376 c 0,79,80
 557 370 557 370 576 351 c 128,-1,81
 595 332 595 332 601 312 c 0,82,83
 607 288 607 288 607 245 c 0,84,85
 607 166 607 166 565 134 c 0,86,87
 531 109 531 109 485 109 c 0,88,89
 432 109 432 109 401 140 c 128,-1,90
 370 171 370 171 370 233 c 0,91,92
 370 236 370 236 370.5 243.5 c 128,-1,93
 371 251 371 251 371 255 c 0,94,95
 373 306 373 306 389.5 334 c 128,-1,96
 406 362 406 362 440 374 c 0,75,76
EndSplineSet
Validated: 1
EndChar

StartChar: ampersand
Encoding: 38 38 10
Width: 624
GlyphClass: 2
Flags: W
LayerCount: 2
Fore
SplineSet
334 222 m 0,0,1
 331 224 331 224 322 233 c 128,-1,2
 313 242 313 242 296 259 c 128,-1,3
 279 276 279 276 267 287 c 2,4,-1
 209 342 l 1,5,-1
 193 328 l 2,6,7
 162 303 162 303 162 265 c 0,8,9
 162 249 162 249 170 230 c 0,10,11
 190 189 190 189 257 189 c 0,12,13
 298 189 298 189 321 202 c 0,14,15
 340 212 340 212 340 214 c 128,-1,16
 340 216 340 216 334 222 c 0,0,1
298 579 m 0,17,18
 289 583 289 583 270 583 c 0,19,20
 249 583 249 583 236 578 c 0,21,22
 209 568 209 568 209 535 c 0,23,24
 209 509 209 509 227 479 c 2,25,-1
 245 449 l 1,26,-1
 267 461 l 2,27,28
 289 474 289 474 307 492 c 0,29,30
 320 504 320 504 323.5 511.5 c 128,-1,31
 327 519 327 519 327 534 c 0,32,33
 327 568 327 568 298 579 c 0,17,18
168 638 m 0,34,35
 213 660 213 660 258 660 c 0,36,37
 262 660 262 660 271.5 659.5 c 128,-1,38
 281 659 281 659 287 659 c 0,39,40
 325 658 325 658 338.5 655 c 128,-1,41
 352 652 352 652 377 640 c 0,42,43
 409 624 409 624 422 602.5 c 128,-1,44
 435 581 435 581 435 546 c 0,45,46
 435 506 435 506 416 478 c 128,-1,47
 397 450 397 450 348 418 c 0,48,49
 307 391 307 391 307 390 c 0,50,51
 307 386 307 386 333.5 358.5 c 128,-1,52
 360 331 360 331 385 309 c 2,53,-1
 414 284 l 1,54,-1
 422 304 l 2,55,56
 430 322 430 322 434 357 c 0,57,58
 437 390 437 390 444 397 c 0,59,60
 452 403 452 403 481 403 c 0,61,62
 517 403 517 403 525 396 c 0,63,64
 533 390 533 390 533 379 c 0,65,66
 533 378 533 378 529 344 c 0,67,68
 527 331 527 331 510.5 292 c 128,-1,69
 494 253 494 253 494 228 c 0,70,71
 494 221 494 221 516.5 205.5 c 128,-1,72
 539 190 539 190 553 187 c 0,73,74
 563 185 563 185 564.5 180 c 128,-1,75
 566 175 566 175 568 151 c 2,76,-1
 568 139 l 2,77,78
 568 118 568 118 561.5 111 c 128,-1,79
 555 104 555 104 535 104 c 0,80,81
 507 104 507 104 457 136 c 2,82,-1
 424 157 l 1,83,-1
 399 143 l 2,84,85
 328 105 328 105 248 105 c 0,86,87
 186 105 186 105 136 128 c 0,88,89
 54 165 54 165 54 255 c 2,90,-1
 54 265 l 2,91,92
 56 302 56 302 71 327.5 c 128,-1,93
 86 353 86 353 121 379 c 2,94,-1
 155 405 l 1,95,-1
 138 430 l 2,96,97
 101 482 101 482 101 533 c 0,98,99
 101 603 101 603 168 638 c 0,34,35
EndSplineSet
Validated: 1
EndChar

StartChar: quotesingle
Encoding: 39 39 11
Width: 193
GlyphClass: 2
Flags: W
LayerCount: 2
Fore
SplineSet
56 675 m 0,0,1
 66 681 66 681 96 681 c 2,2,-1
 104 681 l 2,3,4
 128 681 128 681 135 675 c 128,-1,5
 142 669 142 669 142 643 c 0,6,7
 142 621 142 621 139 576 c 0,8,9
 134 484 134 484 128 477 c 0,10,11
 121 470 121 470 96 470 c 0,12,13
 70 470 70 470 63 477 c 0,14,15
 59 481 59 481 53 576 c 0,16,17
 50 631 50 631 50 650 c 0,18,19
 50 670 50 670 56 675 c 0,0,1
EndSplineSet
Validated: 1
EndChar

StartChar: parenleft
Encoding: 40 40 12
Width: 280
GlyphClass: 2
Flags: W
LayerCount: 2
Fore
SplineSet
143 682 m 0,0,1
 150 687 150 687 187 687 c 0,2,3
 210 687 210 687 216 684 c 0,4,5
 223 681 223 681 223 674 c 0,6,7
 223 662 223 662 206 617 c 0,8,9
 189 573 189 573 174 503 c 0,10,11
 160 433 160 433 160 331 c 2,12,-1
 160 314 l 2,13,14
 160 234 160 234 169 182.5 c 128,-1,15
 178 131 178 131 204 52 c 0,16,17
 224 -8 224 -8 224 -16 c 0,18,19
 224 -31 224 -31 186 -31 c 0,20,21
 153 -31 153 -31 140 -18 c 0,22,23
 130 -8 130 -8 106 52 c 128,-1,24
 82 112 82 112 73 148 c 0,25,26
 52 235 52 235 52 326 c 0,27,28
 52 491 52 491 119 639 c 0,29,30
 137 679 137 679 143 682 c 0,0,1
EndSplineSet
Validated: 1
EndChar

StartChar: parenright
Encoding: 41 41 13
Width: 280
GlyphClass: 2
Flags: W
LayerCount: 2
Fore
SplineSet
62 683 m 0,0,1
 69 686 69 686 96 686 c 0,2,3
 132 686 132 686 137 682 c 0,4,5
 144 677 144 677 164.5 629.5 c 128,-1,6
 185 582 185 582 197 542 c 0,7,8
 229 435 229 435 229 328 c 0,9,10
 229 165 229 165 160 15 c 0,11,12
 146 -18 146 -18 134 -24 c 0,13,14
 124 -30 124 -30 90 -30 c 0,15,16
 72 -30 72 -30 64 -27 c 128,-1,17
 56 -24 56 -24 56 -16 c 0,18,19
 56 -4 56 -4 76 52 c 0,20,21
 103 128 103 128 111 179 c 128,-1,22
 119 230 119 230 120 328 c 0,23,24
 120 441 120 441 111 486 c 0,25,26
 90 586 90 586 67 637 c 0,27,28
 56 664 56 664 56 673 c 0,29,30
 56 680 56 680 62 683 c 0,0,1
EndSplineSet
Validated: 1
EndChar

StartChar: asterisk
Encoding: 42 42 14
Width: 407
GlyphClass: 2
Flags: W
LayerCount: 2
Fore
SplineSet
167 687 m 0,0,1
 172 691 172 691 202 691 c 0,2,3
 224 691 224 691 231 688 c 0,4,5
 239 685 239 685 239 668 c 0,6,7
 239 653 239 653 233 620 c 0,8,9
 229 594 229 594 229 589 c 0,10,11
 229 585 229 585 230 584 c 2,12,-1
 231 584 l 2,13,14
 238 584 238 584 271 610 c 0,15,16
 309 639 309 639 315 639 c 128,-1,17
 321 639 321 639 337 615 c 128,-1,18
 353 591 353 591 353 582 c 128,-1,19
 353 573 353 573 304 554 c 0,20,21
 255 534 255 534 255 533 c 128,-1,22
 255 532 255 532 304 512 c 0,23,24
 353 493 353 493 353 484 c 128,-1,25
 353 475 353 475 337 451 c 128,-1,26
 321 427 321 427 315 427 c 128,-1,27
 309 427 309 427 271 456 c 0,28,29
 238 482 238 482 231 482 c 2,30,-1
 230 482 l 2,31,32
 229 481 229 481 229 477 c 0,33,34
 229 472 229 472 233 446 c 0,35,36
 239 415 239 415 239 399 c 128,-1,37
 239 383 239 383 231 379 c 128,-1,38
 223 375 223 375 199 375 c 0,39,40
 184 375 184 375 177.5 376 c 128,-1,41
 171 377 171 377 167 381.5 c 128,-1,42
 163 386 163 386 163 395 c 0,43,44
 163 405 163 405 168 435 c 0,45,46
 175 479 175 479 175 487 c 1,47,-1
 174 488 l 1,48,49
 174 488 174 488 172.5 487 c 128,-1,50
 171 486 171 486 169.5 485 c 128,-1,51
 168 484 168 484 165.5 482 c 128,-1,52
 163 480 163 480 161 478.5 c 128,-1,53
 159 477 159 477 155.5 474 c 128,-1,54
 152 471 152 471 149.5 469 c 128,-1,55
 147 467 147 467 143 464 c 128,-1,56
 139 461 139 461 136 458 c 0,57,58
 98 427 98 427 90 427 c 0,59,60
 80 427 80 427 66.5 448.5 c 128,-1,61
 53 470 53 470 53 485 c 0,62,63
 53 488 53 488 54 490 c 0,64,65
 58 497 58 497 104 515 c 0,66,67
 149 531 149 531 149 534 c 0,68,69
 149 535 149 535 102 554.5 c 128,-1,70
 55 574 55 574 54 577 c 2,71,-1
 54 579 l 2,72,73
 53 581 53 581 53 582 c 0,74,75
 53 597 53 597 66.5 618 c 128,-1,76
 80 639 80 639 90 639 c 0,77,78
 98 639 98 639 136 608 c 0,79,80
 172 579 172 579 175 579 c 0,81,82
 176 579 176 579 175 586 c 128,-1,83
 174 593 174 593 172 605.5 c 128,-1,84
 170 618 170 618 168 631 c 0,85,86
 163 659 163 659 163 675 c 0,87,88
 163 684 163 684 167 687 c 0,0,1
EndSplineSet
Validated: 1
EndChar

StartChar: plus
Encoding: 43 43 15
Width: 479
GlyphClass: 2
Flags: W
LayerCount: 2
Fore
SplineSet
205 536 m 0,0,1
 211 542 211 542 237 542 c 0,2,3
 259 542 259 542 271 537 c 0,4,5
 278 533 278 533 279.5 521 c 128,-1,6
 281 509 281 509 281 460 c 2,7,-1
 281 388 l 1,8,-1
 348 388 l 2,9,10
 404 388 404 388 414.5 382.5 c 128,-1,11
 425 377 425 377 425 349 c 128,-1,12
 425 321 425 321 414.5 315.5 c 128,-1,13
 404 310 404 310 348 310 c 2,14,-1
 281 310 l 1,15,-1
 281 238 l 2,16,17
 281 177 281 177 276 166.5 c 128,-1,18
 271 156 271 156 240 156 c 128,-1,19
 209 156 209 156 203.5 166.5 c 128,-1,20
 198 177 198 177 198 238 c 2,21,-1
 198 310 l 1,22,-1
 131 310 l 2,23,24
 75 310 75 310 64.5 315.5 c 128,-1,25
 54 321 54 321 54 349 c 128,-1,26
 54 377 54 377 64.5 382.5 c 128,-1,27
 75 388 75 388 131 388 c 2,28,-1
 198 388 l 1,29,-1
 198 459 l 2,30,31
 198 529 198 529 205 536 c 0,0,1
EndSplineSet
Validated: 1
EndChar

StartChar: comma
Encoding: 44 44 16
Width: 266
GlyphClass: 2
Flags: W
LayerCount: 2
Fore
SplineSet
117 225 m 0,0,1
 128 233 128 233 159 233 c 0,2,3
 194 233 194 233 204 223 c 128,-1,4
 214 213 214 213 214 184 c 0,5,6
 214 159 214 159 206 135 c 0,7,8
 199 116 199 116 165.5 67 c 128,-1,9
 132 18 132 18 120 9 c 0,10,11
 107 1 107 1 82 1 c 0,12,13
 56 1 56 1 56 9 c 0,14,15
 56 24 56 24 79 75 c 0,16,17
 98 117 98 117 102 131.5 c 128,-1,18
 106 146 106 146 106 175 c 0,19,20
 106 203 106 203 108 211.5 c 128,-1,21
 110 220 110 220 117 225 c 0,0,1
EndSplineSet
Validated: 1
EndChar

StartChar: hyphen
Encoding: 45 45 17
Width: 308
GlyphClass: 2
Flags: W
LayerCount: 2
Fore
SplineSet
55 354 m 0,0,1
 57 361 57 361 111 361 c 2,2,-1
 154 361 l 1,3,-1
 250 359 l 1,4,-1
 254 340 l 2,5,6
 256 334 256 334 256 321 c 128,-1,7
 256 308 256 308 254 302 c 2,8,-1
 250 282 l 1,9,-1
 155 280 l 1,10,-1
 123 280 l 2,11,12
 60 280 60 280 56 286 c 0,13,14
 52 291 52 291 52 323 c 0,15,16
 52 346 52 346 55 354 c 0,0,1
EndSplineSet
Validated: 1
EndChar

StartChar: period
Encoding: 46 46 18
Width: 222
GlyphClass: 2
Flags: W
LayerCount: 2
Fore
SplineSet
73 231 m 0,0,1
 87 238 87 238 109 238 c 0,2,3
 135 238 135 238 149 230 c 0,4,5
 170 220 170 220 170 175 c 0,6,7
 170 141 170 141 157 128 c 128,-1,8
 144 115 144 115 109 115 c 2,9,-1
 99 115 l 2,10,11
 69 116 69 116 60.5 124.5 c 128,-1,12
 52 133 52 133 52 163 c 2,13,-1
 52 171 l 2,14,15
 53 202 53 202 56.5 213 c 128,-1,16
 60 224 60 224 73 231 c 0,0,1
EndSplineSet
Validated: 1
EndChar

StartChar: slash
Encoding: 47 47 19
Width: 451
GlyphClass: 2
Flags: W
LayerCount: 2
Fore
SplineSet
305 705 m 0,0,1
 313 712 313 712 349 712 c 0,2,3
 378 712 378 712 387 706 c 0,4,5
 396 698 396 698 395 691 c 0,6,7
 395 689 395 689 379 645 c 128,-1,8
 363 601 363 601 331.5 510.5 c 128,-1,9
 300 420 300 420 272 342 c 0,10,11
 170 56 170 56 154 24 c 1,12,13
 133 -7 133 -7 115 -9 c 2,14,-1
 97 -9 l 1,15,-1
 82 -9 l 2,16,17
 72 -9 72 -9 67.5 -8 c 128,-1,18
 63 -7 63 -7 59.5 -3.5 c 128,-1,19
 56 0 56 0 56 7 c 0,20,21
 56 24 56 24 112 182 c 0,22,23
 142 265 142 265 171.5 348.5 c 128,-1,24
 201 432 201 432 212 462 c 0,25,26
 216 474 216 474 247 560 c 128,-1,27
 278 646 278 646 285 665 c 0,28,29
 296 698 296 698 305 705 c 0,0,1
EndSplineSet
Validated: 1
EndChar

StartChar: zero
Encoding: 48 48 20
Width: 476
GlyphClass: 2
Flags: W
LayerCount: 2
Fore
SplineSet
271 560 m 0,0,1
 257 568 257 568 241 568 c 2,2,-1
 238 568 l 2,3,4
 198 567 198 567 180.5 532 c 128,-1,5
 163 497 163 497 158 413 c 0,6,7
 158 408 158 408 157.5 397.5 c 128,-1,8
 157 387 157 387 157 381 c 0,9,10
 157 274 157 274 177 229 c 0,11,12
 194 192 194 192 235 192 c 0,13,14
 263 192 263 192 282 211 c 0,15,16
 309 238 309 238 315 349 c 0,17,18
 316 363 316 363 316 389 c 0,19,20
 316 537 316 537 271 560 c 0,0,1
185 644 m 0,21,22
 199 649 199 649 232 649 c 0,23,24
 292 649 292 649 323 635 c 0,25,26
 349 623 349 623 371 597 c 128,-1,27
 393 571 393 571 403 541 c 0,28,29
 423 482 423 482 423 390 c 0,30,31
 423 265 423 265 389 197 c 0,32,33
 367 152 367 152 314 125 c 0,34,35
 287 112 287 112 232 112 c 0,36,37
 194 112 194 112 180.5 114.5 c 128,-1,38
 167 117 167 117 149 126 c 0,39,40
 104 150 104 150 82.5 194 c 128,-1,41
 61 238 61 238 54 318 c 0,42,43
 51 348 51 348 51 378 c 0,44,45
 51 407 51 407 54 434 c 0,46,47
 62 524 62 524 93.5 574 c 128,-1,48
 125 624 125 624 185 644 c 0,21,22
EndSplineSet
Validated: 1
EndChar

StartChar: one
Encoding: 49 49 21
Width: 429
GlyphClass: 2
Flags: W
LayerCount: 2
Fore
SplineSet
123 594 m 2,0,-1
 187 635 l 1,1,-1
 228 634 l 1,2,-1
 269 632 l 1,3,-1
 271 415 l 1,4,-1
 272 197 l 1,5,-1
 318 197 l 2,6,7
 358 197 358 197 366.5 191 c 128,-1,8
 375 185 375 185 375 156 c 2,9,-1
 375 146 l 2,10,11
 375 123 375 123 355.5 118.5 c 128,-1,12
 336 114 336 114 237 114 c 2,13,-1
 216 114 l 2,14,15
 68 114 68 114 61 121 c 0,16,17
 55 127 55 127 55 156 c 128,-1,18
 55 185 55 185 61 191 c 128,-1,19
 67 197 67 197 118 197 c 2,20,-1
 169 197 l 1,21,-1
 169 362 l 2,22,23
 169 527 169 527 163 527 c 0,24,25
 161 527 161 527 116 504.5 c 128,-1,26
 71 482 71 482 64 482 c 2,27,-1
 63 482 l 1,28,29
 52 487 52 487 52 518 c 0,30,31
 52 532 52 532 55 539 c 0,32,33
 61 555 61 555 123 594 c 2,0,-1
EndSplineSet
Validated: 1
EndChar

StartChar: two
Encoding: 50 50 22
Width: 455
GlyphClass: 2
Flags: W
LayerCount: 2
Fore
SplineSet
78 601 m 0,0,1
 128 644 128 644 213 644 c 0,2,3
 216 644 216 644 222 643.5 c 128,-1,4
 228 643 228 643 231 643 c 0,5,6
 281 640 281 640 308 627 c 0,7,8
 380 590 380 590 380 508 c 0,9,10
 380 492 380 492 377 474 c 0,11,12
 369 427 369 427 339.5 381.5 c 128,-1,13
 310 336 310 336 239 263 c 2,14,-1
 179 202 l 1,15,-1
 392 202 l 1,16,-1
 397 189 l 2,17,18
 402 179 402 179 402 158 c 0,19,20
 402 138 402 138 397 128 c 2,21,-1
 392 114 l 1,22,-1
 230 114 l 1,23,-1
 177 114 l 2,24,25
 88 114 88 114 70 119 c 128,-1,26
 52 124 52 124 52 149 c 2,27,-1
 52 162 l 2,28,29
 52 191 52 191 60 205.5 c 128,-1,30
 68 220 68 220 111 264 c 0,31,32
 212 369 212 369 235 415 c 0,33,34
 254 452 254 452 254 482 c 128,-1,35
 254 512 254 512 236 529.5 c 128,-1,36
 218 547 218 547 187 547 c 0,37,38
 151 547 151 547 109 524 c 0,39,40
 81 509 81 509 74 509 c 0,41,42
 66 509 66 509 64 518.5 c 128,-1,43
 62 528 62 528 62 554 c 0,44,45
 62 578 62 578 64.5 585 c 128,-1,46
 67 592 67 592 78 601 c 0,0,1
EndSplineSet
Validated: 1
EndChar

StartChar: three
Encoding: 51 51 23
Width: 451
GlyphClass: 2
Flags: W
LayerCount: 2
Fore
SplineSet
151 638 m 0,0,1
 173 644 173 644 210 644 c 0,2,3
 273 644 273 644 300 631 c 0,4,5
 346 611 346 611 365 568 c 0,6,7
 372 551 372 551 372 514 c 128,-1,8
 372 477 372 477 365 460 c 0,9,10
 346 416 346 416 309 398 c 0,11,12
 293 390 293 390 293 388 c 0,13,14
 292 387 292 387 297 385 c 0,15,16
 325 374 325 374 336 368 c 0,17,18
 391 340 391 340 396 272 c 1,19,-1
 396 261 l 2,20,21
 396 191 396 191 342 148 c 128,-1,22
 288 105 288 105 199 105 c 0,23,24
 184 105 184 105 176 106 c 0,25,26
 142 108 142 108 107.5 118 c 128,-1,27
 73 128 73 128 61 139 c 0,28,29
 52 148 52 148 52 182 c 0,30,31
 52 221 52 221 65 221 c 0,32,33
 72 221 72 221 89 212 c 0,34,35
 139 186 139 186 185 186 c 0,36,37
 234 186 234 186 258 215 c 0,38,39
 274 233 274 233 274 261 c 0,40,41
 274 288 274 288 260 305 c 0,42,43
 244 324 244 324 225 331 c 128,-1,44
 206 338 206 338 163 340 c 0,45,46
 110 342 110 342 105 347 c 0,47,48
 98 352 98 352 98 380 c 0,49,50
 98 407 98 407 105 412 c 0,51,52
 111 418 111 418 158 420 c 0,53,54
 234 424 234 424 251 463 c 0,55,56
 259 482 259 482 259 498 c 0,57,58
 259 522 259 522 241 541 c 0,59,60
 228 555 228 555 221 557.5 c 128,-1,61
 214 560 214 560 187 560 c 0,62,63
 163 560 163 560 150.5 556.5 c 128,-1,64
 138 553 138 553 112 540 c 0,65,66
 82 524 82 524 70 524 c 2,67,-1
 68 524 l 1,68,69
 62 528 62 528 62 558 c 128,-1,70
 62 588 62 588 73 599 c 0,71,72
 97 623 97 623 151 638 c 0,0,1
EndSplineSet
Validated: 1
EndChar

StartChar: four
Encoding: 52 52 24
Width: 496
GlyphClass: 2
Flags: W
LayerCount: 2
Fore
SplineSet
275 421 m 2,0,1
 275 537 275 537 274 537 c 0,2,3
 272 537 272 537 206.5 424 c 128,-1,4
 141 311 141 311 141 308 c 128,-1,5
 141 305 141 305 208 305 c 2,6,-1
 275 305 l 1,7,-1
 275 421 l 2,0,1
241 630 m 0,8,9
 248 634 248 634 293 634 c 0,10,11
 362 634 362 634 372 628 c 0,12,13
 378 624 378 624 378 464 c 2,14,-1
 378 305 l 1,15,-1
 404 305 l 2,16,17
 430 305 430 305 435 295 c 0,18,19
 440 287 440 287 440 267 c 0,20,21
 440 246 440 246 435 236 c 0,22,23
 432 227 432 227 427 225 c 128,-1,24
 422 223 422 223 404 223 c 2,25,-1
 378 223 l 1,26,-1
 378 174 l 2,27,28
 378 131 378 131 371 122.5 c 128,-1,29
 364 114 364 114 327 114 c 128,-1,30
 290 114 290 114 282.5 122.5 c 128,-1,31
 275 131 275 131 275 174 c 2,32,-1
 275 223 l 1,33,-1
 170 223 l 2,34,35
 65 223 65 223 59 230 c 0,36,37
 54 237 54 237 54 259 c 0,38,39
 54 272 54 272 55 280 c 0,40,41
 57 311 57 311 60.5 323.5 c 128,-1,42
 64 336 64 336 80 362 c 0,43,44
 104 401 104 401 120 431 c 0,45,46
 225 623 225 623 241 630 c 0,8,9
EndSplineSet
Validated: 1
EndChar

StartChar: five
Encoding: 53 53 25
Width: 445
GlyphClass: 2
Flags: W
LayerCount: 2
Fore
SplineSet
79 627 m 0,0,1
 84 634 84 634 146 634 c 2,2,-1
 221 634 l 1,3,-1
 356 632 l 1,4,-1
 360 611 l 2,5,6
 362 605 362 605 362 589 c 128,-1,7
 362 573 362 573 360 567 c 2,8,-1
 356 545 l 1,9,-1
 259 543 l 1,10,-1
 162 542 l 1,11,-1
 162 436 l 1,12,-1
 221 432 l 2,13,14
 270 430 270 430 297 422 c 128,-1,15
 324 414 324 414 346 395 c 0,16,17
 391 357 391 357 391 279 c 0,18,19
 391 236 391 236 380 209 c 128,-1,20
 369 182 369 182 340 156 c 0,21,22
 309 127 309 127 278.5 117 c 128,-1,23
 248 107 248 107 191 107 c 2,24,-1
 175 107 l 2,25,26
 127 107 127 107 100 116 c 0,27,28
 67 126 67 126 59.5 135.5 c 128,-1,29
 52 145 52 145 52 174 c 0,30,31
 52 215 52 215 65 215 c 0,32,33
 72 215 72 215 96 204 c 0,34,35
 128 189 128 189 175 189 c 0,36,37
 213 189 213 189 232.5 196.5 c 128,-1,38
 252 204 252 204 267 224 c 0,39,40
 280 240 280 240 280 271 c 0,41,42
 280 295 280 295 272 311 c 0,43,44
 260 339 260 339 237.5 346.5 c 128,-1,45
 215 354 215 354 149 354 c 2,46,-1
 78 354 l 1,47,-1
 74 375 l 2,48,49
 71 387 71 387 71 462 c 2,50,-1
 71 507 l 2,51,52
 72 619 72 619 79 627 c 0,0,1
EndSplineSet
Validated: 1
EndChar

StartChar: six
Encoding: 54 54 26
Width: 458
GlyphClass: 2
Flags: W
LayerCount: 2
Fore
SplineSet
278 354 m 0,0,1
 269 363 269 363 240 365 c 2,2,-1
 228 365 l 2,3,4
 202 365 202 365 171 349 c 0,5,6
 159 343 159 343 156.5 338.5 c 128,-1,7
 154 334 154 334 154 319 c 0,8,9
 154 262 154 262 173 224 c 0,10,11
 189 192 189 192 229 192 c 0,12,13
 250 192 250 192 266 202 c 0,14,15
 303 225 303 225 303 286 c 0,16,17
 303 332 303 332 278 354 c 0,0,1
208 644 m 0,18,19
 228 649 228 649 263 649 c 0,20,21
 320 649 320 649 349 640 c 0,22,23
 365 634 365 634 370.5 623.5 c 128,-1,24
 376 613 376 613 376 590 c 0,25,26
 376 569 376 569 373 561.5 c 128,-1,27
 370 554 370 554 359 554 c 0,28,29
 352 554 352 554 330 559 c 0,30,31
 296 568 296 568 272 568 c 0,32,33
 244 568 244 568 216 554 c 0,34,35
 162 525 162 525 156 455 c 0,36,37
 155 447 155 447 154.5 439.5 c 128,-1,38
 154 432 154 432 154 428 c 128,-1,39
 154 424 154 424 155 424 c 0,40,41
 158 424 158 424 182 435 c 0,42,43
 215 449 215 449 263 449 c 0,44,45
 295 449 295 449 315 442 c 0,46,47
 366 425 366 425 390 381 c 0,48,49
 400 362 400 362 402 349 c 128,-1,50
 404 336 404 336 404 295 c 0,51,52
 404 234 404 234 393 211 c 0,53,54
 382 186 382 186 358.5 162 c 128,-1,55
 335 138 335 138 309 126 c 0,56,57
 290 116 290 116 276.5 114 c 128,-1,58
 263 112 263 112 224 112 c 0,59,60
 186 112 186 112 172.5 114.5 c 128,-1,61
 159 117 159 117 141 126 c 0,62,63
 91 152 91 152 71 203.5 c 128,-1,64
 51 255 51 255 51 357 c 0,65,66
 51 472 51 472 81 535 c 0,67,68
 121 622 121 622 208 644 c 0,18,19
EndSplineSet
Validated: 1
EndChar

StartChar: seven
Encoding: 55 55 27
Width: 462
GlyphClass: 2
Flags: W
LayerCount: 2
Fore
SplineSet
62 625 m 0,0,1
 65 630 65 630 233 630 c 2,2,-1
 295 630 l 2,3,4
 372 630 372 630 390 625.5 c 128,-1,5
 408 621 408 621 408 601 c 0,6,7
 408 598 408 598 407.5 590.5 c 128,-1,8
 407 583 407 583 407 578 c 0,9,10
 407 555 407 555 393.5 519.5 c 128,-1,11
 380 484 380 484 315 334 c 0,12,13
 221 119 221 119 215 116 c 0,14,15
 207 109 207 109 165 109 c 0,16,17
 117 109 117 109 111 117 c 0,18,19
 107 121 107 121 107 124 c 0,20,21
 107 135 107 135 206 349 c 2,22,-1
 291 535 l 1,23,24
 253 536 253 536 177.5 536 c 128,-1,25
 102 536 102 536 64 537 c 1,26,-1
 59 552 l 2,27,28
 55 564 55 564 55 581 c 0,29,30
 55 614 55 614 62 625 c 0,0,1
EndSplineSet
Validated: 1
EndChar

StartChar: eight
Encoding: 56 56 28
Width: 467
GlyphClass: 2
Flags: W
LayerCount: 2
Fore
SplineSet
251 321 m 0,0,1
 233 331 233 331 226 331 c 0,2,3
 220 331 220 331 198 313 c 128,-1,4
 176 295 176 295 167 283 c 0,5,6
 156 269 156 269 156 240 c 0,7,8
 156 213 156 213 166 202 c 0,9,10
 189 176 189 176 233 176 c 0,11,12
 270 176 270 176 291.5 194 c 128,-1,13
 313 212 313 212 313 239 c 0,14,15
 313 290 313 290 251 321 c 0,0,1
269 556 m 0,16,17
 252 563 252 563 233 563 c 0,18,19
 183 563 183 563 170 525 c 0,20,21
 166 516 166 516 166 501 c 0,22,23
 166 493 166 493 167 490 c 0,24,25
 170 476 170 476 185.5 459 c 128,-1,26
 201 442 201 442 221 432 c 2,27,-1
 241 422 l 1,28,-1
 260 436 l 2,29,30
 299 463 299 463 299 501 c 0,31,32
 299 544 299 544 269 556 c 0,16,17
176 635 m 0,33,34
 187 638 187 638 236 640 c 2,35,-1
 242 640 l 2,36,37
 318 640 318 640 359.5 606.5 c 128,-1,38
 401 573 401 573 401 514 c 0,39,40
 399 442 399 442 332 395 c 2,41,-1
 317 384 l 1,42,-1
 346 365 l 2,43,44
 415 320 415 320 415 249 c 2,45,-1
 415 236 l 2,46,47
 412 194 412 194 394 166.5 c 128,-1,48
 376 139 376 139 339 120 c 0,49,50
 299 100 299 100 228 100 c 0,51,52
 172 100 172 100 132 114 c 0,53,54
 94 128 94 128 72 160 c 128,-1,55
 50 192 50 192 50 232 c 0,56,57
 50 249 50 249 57 275 c 0,58,59
 62 294 62 294 82 317 c 128,-1,60
 102 340 102 340 125 355 c 128,-1,61
 148 370 148 370 148 375 c 0,62,63
 148 377 148 377 144 377 c 0,64,65
 135 377 135 377 107.5 406.5 c 128,-1,66
 80 436 80 436 74 452 c 0,67,68
 66 471 66 471 66 500 c 0,69,70
 66 542 66 542 84 571 c 0,71,72
 97 592 97 592 123.5 610.5 c 128,-1,73
 150 629 150 629 176 635 c 0,33,34
EndSplineSet
Validated: 1
EndChar

StartChar: nine
Encoding: 57 57 29
Width: 464
GlyphClass: 2
Flags: W
LayerCount: 2
Fore
SplineSet
264 548 m 0,0,1
 248 557 248 557 229 557 c 0,2,3
 184 557 184 557 167 520 c 0,4,5
 157 501 157 501 157 463 c 0,6,7
 157 429 157 429 165 414 c 0,8,9
 180 383 180 383 221 383 c 0,10,11
 230 383 230 383 235 384 c 0,12,13
 261 386 261 386 284 396 c 2,14,-1
 303 406 l 1,15,-1
 301 452 l 2,16,17
 297 529 297 529 264 548 c 0,0,1
177 635 m 0,18,19
 192 639 192 639 221 639 c 0,20,21
 286 639 286 639 314 625 c 0,22,23
 410 578 410 578 410 400 c 0,24,25
 410 375 410 375 409 362 c 0,26,27
 402 228 402 228 342 162 c 0,28,29
 284 99 284 99 189 99 c 0,30,31
 159 99 159 99 122 107 c 0,32,33
 88 115 88 115 79 124 c 128,-1,34
 70 133 70 133 70 161 c 0,35,36
 70 183 70 183 73 191 c 128,-1,37
 76 199 76 199 85 199 c 0,38,39
 88 199 88 199 122 191 c 0,40,41
 150 183 150 183 181 183 c 0,42,43
 231 183 231 183 262.5 210.5 c 128,-1,44
 294 238 294 238 303 289 c 0,45,46
 306 310 306 310 306 320 c 0,47,48
 306 323 306 323 305 323.5 c 128,-1,49
 304 324 304 324 301 323.5 c 128,-1,50
 298 323 298 323 295 321.5 c 128,-1,51
 292 320 292 320 287.5 317.5 c 128,-1,52
 283 315 283 315 279 314 c 0,53,54
 257 304 257 304 214 301 c 2,55,-1
 200 301 l 2,56,57
 100 301 100 301 65 379 c 0,58,59
 52 410 52 410 52 458 c 0,60,61
 52 500 52 500 63 531 c 0,62,63
 77 568 77 568 108 596.5 c 128,-1,64
 139 625 139 625 177 635 c 0,18,19
EndSplineSet
Validated: 1
EndChar

StartChar: colon
Encoding: 58 58 30
Width: 215
GlyphClass: 2
Flags: W
LayerCount: 2
Fore
SplineSet
65 479 m 0,0,1
 78 491 78 491 95 491 c 0,2,3
 97 491 97 491 102 490.5 c 128,-1,4
 107 490 107 490 110 490 c 0,5,6
 143 488 143 488 153 476 c 128,-1,7
 163 464 163 464 163 428 c 0,8,9
 163 402 163 402 161 394.5 c 128,-1,10
 159 387 159 387 149 379 c 0,11,12
 135 366 135 366 106 366 c 0,13,14
 78 366 78 366 64 379 c 0,15,16
 55 387 55 387 52.5 393.5 c 128,-1,17
 50 400 50 400 50 416 c 2,18,-1
 50 429 l 2,19,20
 50 455 50 455 52.5 463 c 128,-1,21
 55 471 55 471 65 479 c 0,0,1
65 215 m 0,22,23
 79 228 79 228 107 228 c 128,-1,24
 135 228 135 228 149 215 c 0,25,26
 159 207 159 207 161 199.5 c 128,-1,27
 163 192 163 192 163 166 c 128,-1,28
 163 140 163 140 161 132 c 128,-1,29
 159 124 159 124 149 116 c 0,30,31
 133 102 133 102 106 102 c 0,32,33
 80 102 80 102 64 116 c 0,34,35
 55 124 55 124 52.5 130.5 c 128,-1,36
 50 137 50 137 50 153 c 2,37,-1
 50 166 l 2,38,39
 50 191 50 191 52.5 199 c 128,-1,40
 55 207 55 207 65 215 c 0,22,23
EndSplineSet
Validated: 1
EndChar

StartChar: semicolon
Encoding: 59 59 31
Width: 266
GlyphClass: 2
Flags: W
LayerCount: 2
Fore
SplineSet
114 479 m 0,0,1
 127 491 127 491 144 491 c 0,2,3
 146 491 146 491 151 490.5 c 128,-1,4
 156 490 156 490 159 490 c 0,5,6
 192 488 192 488 202 476 c 128,-1,7
 212 464 212 464 212 428 c 0,8,9
 212 403 212 403 209.5 395 c 128,-1,10
 207 387 207 387 197 379 c 0,11,12
 183 366 183 366 155 366 c 128,-1,13
 127 366 127 366 113 379 c 0,14,15
 104 387 104 387 101.5 393.5 c 128,-1,16
 99 400 99 400 99 416 c 2,17,-1
 99 429 l 2,18,19
 99 455 99 455 101.5 463 c 128,-1,20
 104 471 104 471 114 479 c 0,0,1
117 220 m 0,21,22
 128 228 128 228 159 228 c 0,23,24
 189 228 189 228 203 214 c 0,25,26
 214 203 214 203 214 192 c 0,27,28
 214 190 214 190 212 170 c 0,29,30
 208 133 208 133 199 116 c 0,31,32
 190 95 190 95 160.5 53.5 c 128,-1,33
 131 12 131 12 120 4 c 128,-1,34
 109 -4 109 -4 80 -4 c 0,35,36
 57 -4 57 -4 57 2 c 0,37,38
 57 11 57 11 80 66 c 0,39,40
 98 108 98 108 102 123.5 c 128,-1,41
 106 139 106 139 106 169 c 0,42,43
 106 198 106 198 108 206.5 c 128,-1,44
 110 215 110 215 117 220 c 0,21,22
EndSplineSet
Validated: 1
EndChar

StartChar: less
Encoding: 60 60 32
Width: 452
GlyphClass: 2
Flags: W
LayerCount: 2
Fore
SplineSet
217 475 m 0,0,1
 369 552 369 552 382 552 c 0,2,3
 392 554 392 554 396 544 c 0,4,5
 399 536 399 536 399 514 c 0,6,7
 399 487 399 487 395 479 c 0,8,9
 392 470 392 470 276.5 414 c 128,-1,10
 161 358 161 358 161 355 c 0,11,12
 163 349 163 349 274 297 c 0,13,14
 367 253 367 253 383 240 c 128,-1,15
 399 227 399 227 399 194 c 2,16,-1
 399 185 l 2,17,18
 399 158 399 158 386 158 c 0,19,20
 368 158 368 158 225 230 c 0,21,22
 97 294 97 294 75.5 309 c 128,-1,23
 54 324 54 324 54 353 c 2,24,-1
 54 354 l 1,25,-1
 54 355 l 2,26,27
 54 380 54 380 66 392 c 0,28,29
 85 409 85 409 217 475 c 0,0,1
EndSplineSet
Validated: 1
EndChar

StartChar: equal
Encoding: 61 61 33
Width: 448
GlyphClass: 2
Flags: W
LayerCount: 2
Fore
SplineSet
56 456 m 0,0,1
 59 462 59 462 85 463.5 c 128,-1,2
 111 465 111 465 222 465 c 0,3,4
 383 465 383 465 389 459 c 128,-1,5
 395 453 395 453 395 426 c 0,6,7
 395 400 395 400 389 394 c 128,-1,8
 383 388 383 388 222 388 c 0,9,10
 107 388 107 388 83 389 c 128,-1,11
 59 390 59 390 56 397 c 0,12,13
 52 409 52 409 52 426 c 0,14,15
 52 444 52 444 56 456 c 0,0,1
56 296 m 0,16,17
 59 302 59 302 85 303.5 c 128,-1,18
 111 305 111 305 222 305 c 0,19,20
 383 305 383 305 389 299 c 128,-1,21
 395 293 395 293 395 266 c 0,22,23
 395 240 395 240 389 234 c 128,-1,24
 383 228 383 228 222 228 c 0,25,26
 107 228 107 228 83 229 c 128,-1,27
 59 230 59 230 56 237 c 0,28,29
 52 249 52 249 52 266 c 0,30,31
 52 284 52 284 56 296 c 0,16,17
EndSplineSet
Validated: 1
EndChar

StartChar: greater
Encoding: 62 62 34
Width: 450
GlyphClass: 2
Flags: W
LayerCount: 2
Fore
SplineSet
58 551 m 0,0,1
 59 552 59 552 62 552 c 0,2,3
 75 552 75 552 308 435 c 2,4,-1
 392 393 l 1,5,-1
 395 371 l 2,6,7
 396 366 396 366 396 352 c 0,8,9
 396 337 396 337 394 331 c 0,10,11
 390 318 390 318 369.5 305.5 c 128,-1,12
 349 293 349 293 232 235 c 0,13,14
 72 157 72 157 65 157 c 0,15,16
 62 157 62 157 60 158.5 c 128,-1,17
 58 160 58 160 56.5 165 c 128,-1,18
 55 170 55 170 54.5 176 c 128,-1,19
 54 182 54 182 53 195 c 2,20,-1
 53 207 l 2,21,22
 53 232 53 232 59 237 c 0,23,24
 74 248 74 248 176 295 c 0,25,26
 291 349 291 349 291 351 c 0,27,28
 291 357 291 357 176 411 c 0,29,30
 60 465 60 465 55 474 c 0,31,32
 52 482 52 482 52 504 c 0,33,34
 52 545 52 545 58 551 c 0,0,1
EndSplineSet
Validated: 1
EndChar

StartChar: question
Encoding: 63 63 35
Width: 411
GlyphClass: 2
Flags: W
LayerCount: 2
Fore
SplineSet
136 673 m 0,0,1
 144 675 144 675 163 675 c 0,2,3
 167 675 167 675 177.5 674.5 c 128,-1,4
 188 674 188 674 193 674 c 0,5,6
 235 673 235 673 261.5 662.5 c 128,-1,7
 288 652 288 652 312 629 c 0,8,9
 359 583 359 583 359 514 c 0,10,11
 359 462 359 462 331 418.5 c 128,-1,12
 303 375 303 375 255 362 c 0,13,14
 236 357 236 357 231 346 c 128,-1,15
 226 335 226 335 226 299 c 0,16,17
 226 274 226 274 216 269 c 0,18,19
 208 264 208 264 181 264 c 0,20,21
 147 264 147 264 140 271 c 0,22,23
 135 278 135 278 133 337 c 2,24,-1
 133 364 l 2,25,26
 133 396 133 396 139 404.5 c 128,-1,27
 145 413 145 413 165 413 c 0,28,29
 231 413 231 413 247 474 c 0,30,31
 250 488 250 488 250 501 c 0,32,33
 250 557 250 557 212 582 c 0,34,35
 197 591 197 591 163 591 c 0,36,37
 123 591 123 591 93 579 c 0,38,39
 74 571 74 571 68 571 c 0,40,41
 56 571 56 571 56 610 c 0,42,43
 56 639 56 639 65 647 c 0,44,45
 78 659 78 659 136 673 c 0,0,1
140 210 m 0,46,47
 156 224 156 224 182 224 c 0,48,49
 209 224 209 224 225 210 c 0,50,51
 235 202 235 202 237 194.5 c 128,-1,52
 239 187 239 187 239 163 c 128,-1,53
 239 139 239 139 237 131.5 c 128,-1,54
 235 124 235 124 225 116 c 0,55,56
 209 102 209 102 182 102 c 0,57,58
 156 102 156 102 140 116 c 0,59,60
 130 124 130 124 128 131.5 c 128,-1,61
 126 139 126 139 126 163 c 128,-1,62
 126 187 126 187 128 194.5 c 128,-1,63
 130 202 130 202 140 210 c 0,46,47
EndSplineSet
Validated: 1
EndChar

StartChar: at
Encoding: 64 64 36
Width: 742
GlyphClass: 2
Flags: W
LayerCount: 2
Fore
SplineSet
400 411 m 0,0,1
 382 429 382 429 362 429 c 0,2,3
 340 429 340 429 324 410 c 0,4,5
 309 393 309 393 300 362.5 c 128,-1,6
 291 332 291 332 291 304 c 0,7,8
 291 275 291 275 301 264 c 0,9,10
 310 254 310 254 326 254 c 0,11,12
 344 254 344 254 367 269 c 0,13,14
 391 286 391 286 397.5 296 c 128,-1,15
 404 306 404 306 410 337 c 0,16,17
 417 375 417 375 417 381 c 0,18,19
 417 394 417 394 400 411 c 0,0,1
339 651 m 0,20,21
 354 654 354 654 402 654 c 2,22,-1
 430 654 l 1,23,24
 592 650 592 650 656 555 c 0,25,26
 690 503 690 503 690 419 c 0,27,28
 690 362 690 362 672.5 308 c 128,-1,29
 655 254 655 254 624 223 c 0,30,31
 578 177 578 177 510 177 c 0,32,33
 458 177 458 177 433 206 c 0,34,35
 417 222 417 222 417 228 c 0,36,37
 417 229 417 229 416 229 c 0,38,39
 412 229 412 229 384 210 c 0,40,41
 335 176 335 176 295 176 c 0,42,43
 273 176 273 176 249 187 c 0,44,45
 201 210 201 210 201 290 c 0,46,47
 201 358 201 358 224 411 c 0,48,49
 243 455 243 455 279.5 480.5 c 128,-1,50
 316 506 316 506 355 506 c 0,51,52
 398 506 398 506 425 476 c 0,53,54
 441 460 441 460 444 460 c 128,-1,55
 447 460 447 460 450 477 c 0,56,57
 453 492 453 492 460.5 496.5 c 128,-1,58
 468 501 468 501 491 501 c 2,59,-1
 495 501 l 2,60,61
 511 501 511 501 516.5 498 c 128,-1,62
 522 495 522 495 522 482 c 0,63,64
 522 467 522 467 508 397 c 0,65,66
 490 302 490 302 490 286 c 0,67,68
 490 272 490 272 498 263 c 128,-1,69
 506 254 506 254 519 254 c 0,70,71
 554 254 554 254 576 296.5 c 128,-1,72
 598 339 598 339 598 409 c 0,73,74
 598 412 598 412 597.5 419 c 128,-1,75
 597 426 597 426 597 430 c 0,76,77
 595 472 595 472 585.5 495 c 128,-1,78
 576 518 576 518 553 537 c 0,79,80
 526 559 526 559 496.5 567 c 128,-1,81
 467 575 467 575 410 575 c 2,82,-1
 387 575 l 2,83,84
 340 575 340 575 308 564 c 0,85,86
 215 531 215 531 173 442 c 0,87,88
 154 401 154 401 148 370 c 128,-1,89
 142 339 142 339 142 279 c 0,90,91
 142 224 142 224 144 209.5 c 128,-1,92
 146 195 146 195 157 174 c 0,93,94
 184 121 184 121 245 101 c 0,95,96
 280 91 280 91 344 91 c 128,-1,97
 408 91 408 91 456 101 c 0,98,99
 480 107 480 107 490 107 c 0,100,101
 505 107 505 107 505 86 c 0,102,103
 505 84 505 84 504.5 78.5 c 128,-1,104
 504 73 504 73 504 69 c 0,105,106
 501 40 501 40 493 35 c 0,107,108
 464 14 464 14 333 14 c 0,109,110
 258 14 258 14 222 24 c 0,111,112
 133 49 133 49 92 107.5 c 128,-1,113
 51 166 51 166 51 269 c 0,114,115
 51 422 51 422 128 524.5 c 128,-1,116
 205 627 205 627 339 651 c 0,20,21
EndSplineSet
Validated: 1
EndChar

StartChar: A
Encoding: 65 65 37
Width: 586
GlyphClass: 2
Flags: W
LayerCount: 2
Fore
SplineSet
358 322 m 0,0,1
 358 326 358 326 324.5 427.5 c 128,-1,2
 291 529 291 529 289 530 c 0,3,4
 288 531 288 531 277.5 500.5 c 128,-1,5
 267 470 267 470 251 424 c 2,6,-1
 215 315 l 1,7,-1
 286 315 l 2,8,9
 358 315 358 315 358 322 c 0,0,1
54 130 m 0,10,11
 54 137 54 137 136.5 374 c 128,-1,12
 219 611 219 611 219 613 c 0,13,14
 219 620 219 620 230 627 c 0,15,16
 244 636 244 636 298 636 c 0,17,18
 341 636 341 636 349 629 c 0,19,20
 358 622 358 622 413 468 c 0,21,22
 468 312 468 312 474 303 c 0,23,24
 483 288 483 288 507.5 213.5 c 128,-1,25
 532 139 532 139 532 125 c 0,26,27
 532 114 532 114 483 114 c 0,28,29
 439 114 439 114 430 121 c 128,-1,30
 421 128 421 128 405 180 c 2,31,-1
 389 233 l 1,32,-1
 190 233 l 1,33,-1
 173 180 l 2,34,35
 157 128 157 128 148 121 c 0,36,37
 140 115 140 115 94 115 c 0,38,39
 71 115 71 115 62 118 c 0,40,41
 54 121 54 121 54 130 c 0,10,11
EndSplineSet
Validated: 33
EndChar

StartChar: B
Encoding: 66 66 38
Width: 481
GlyphClass: 2
Flags: W
LayerCount: 2
Fore
SplineSet
267 336 m 0,0,1
 249 341 249 341 200 341 c 2,2,-1
 153 341 l 1,3,-1
 153 197 l 1,4,-1
 206 197 l 2,5,6
 266 198 266 198 292 213 c 128,-1,7
 318 228 318 228 318 264 c 0,8,9
 318 266 318 266 317.5 269.5 c 128,-1,10
 317 273 317 273 317 275 c 0,11,12
 312 322 312 322 267 336 c 0,0,1
291 497 m 0,13,14
 287 532 287 532 264.5 545 c 128,-1,15
 242 558 242 558 194 558 c 2,16,-1
 153 558 l 1,17,-1
 153 419 l 1,18,-1
 196 419 l 2,19,20
 292 419 292 419 292 486 c 0,21,22
 292 488 292 488 291.5 491.5 c 128,-1,23
 291 495 291 495 291 497 c 0,13,14
59 626 m 0,24,25
 64 632 64 632 80.5 633.5 c 128,-1,26
 97 635 97 635 158 635 c 0,27,28
 234 635 234 635 270.5 630 c 128,-1,29
 307 625 307 625 334 611 c 0,30,31
 396 581 396 581 396 502 c 0,32,33
 396 438 396 438 354 410 c 0,34,35
 337 399 337 399 337 393 c 0,36,37
 337 388 337 388 346 388 c 0,38,39
 358 388 358 388 380 369 c 128,-1,40
 402 350 402 350 412 331 c 0,41,42
 428 303 428 303 428 268 c 0,43,44
 428 196 428 196 376 157 c 0,45,46
 341 131 341 131 308.5 123.5 c 128,-1,47
 276 116 276 116 182 115 c 0,48,49
 169 115 169 115 149.5 114.5 c 128,-1,50
 130 114 130 114 124 114 c 0,51,52
 70 114 70 114 60 123 c 0,53,54
 53 129 53 129 51.5 166 c 128,-1,55
 50 203 50 203 50 374 c 0,56,57
 50 537 50 537 51.5 578 c 128,-1,58
 53 619 53 619 59 626 c 0,24,25
EndSplineSet
Validated: 1
EndChar

StartChar: C
Encoding: 67 67 39
Width: 489
GlyphClass: 2
Flags: W
LayerCount: 2
Fore
SplineSet
228 638 m 0,0,1
 252 644 252 644 282 644 c 0,2,3
 372 644 372 644 419 607 c 0,4,5
 430 598 430 598 432.5 590.5 c 128,-1,6
 435 583 435 583 435 558 c 0,7,8
 435 512 435 512 421 512 c 0,9,10
 415 512 415 512 410 516 c 0,11,12
 354 552 354 552 316 556 c 0,13,14
 310 557 310 557 300 557 c 0,15,16
 223 557 223 557 187 479 c 0,17,18
 176 455 176 455 174 440 c 128,-1,19
 172 425 172 425 172 372 c 2,20,-1
 172 296 l 1,21,-1
 190 261 l 2,22,23
 207 227 207 227 233 210 c 0,24,25
 250 199 250 199 261.5 196.5 c 128,-1,26
 273 194 273 194 303 194 c 128,-1,27
 333 194 333 194 345.5 197 c 128,-1,28
 358 200 358 200 387 215 c 128,-1,29
 416 230 416 230 425 230 c 0,30,31
 433 230 433 230 435 220.5 c 128,-1,32
 437 211 437 211 437 186 c 0,33,34
 437 162 437 162 435 155 c 128,-1,35
 433 148 433 148 424 141 c 0,36,37
 378 105 378 105 280 105 c 0,38,39
 251 105 251 105 231 109 c 0,40,41
 65 142 65 142 53 346 c 0,42,43
 52 355 52 355 52 372 c 0,44,45
 52 474 52 474 98.5 544.5 c 128,-1,46
 145 615 145 615 228 638 c 0,0,1
EndSplineSet
Validated: 1
EndChar

StartChar: D
Encoding: 68 68 40
Width: 533
GlyphClass: 2
Flags: W
LayerCount: 2
Fore
SplineSet
261 547 m 0,0,1
 233 553 233 553 197 553 c 2,2,-1
 158 553 l 1,3,-1
 158 196 l 1,4,-1
 211 198 l 2,5,6
 288 201 288 201 324.5 232 c 128,-1,7
 361 263 361 263 371 335 c 0,8,9
 374 358 374 358 374 379 c 0,10,11
 374 446 374 446 344 490.5 c 128,-1,12
 314 535 314 535 261 547 c 0,0,1
59 626 m 0,13,14
 64 632 64 632 80.5 633.5 c 128,-1,15
 97 635 97 635 160 635 c 0,16,17
 262 635 262 635 312 624 c 128,-1,18
 362 613 362 613 401 582 c 0,19,20
 475 525 475 525 481 398 c 1,21,-1
 481 375 l 2,22,23
 481 274 481 274 441.5 214 c 128,-1,24
 402 154 402 154 318 127 c 0,25,26
 292 119 292 119 180 116 c 0,27,28
 114 114 114 114 106 114 c 0,29,30
 70 114 70 114 60 122 c 0,31,32
 53 129 53 129 51.5 162.5 c 128,-1,33
 50 196 50 196 50 374 c 0,34,35
 50 537 50 537 51.5 578 c 128,-1,36
 53 619 53 619 59 626 c 0,13,14
EndSplineSet
Validated: 1
EndChar

StartChar: E
Encoding: 69 69 41
Width: 411
GlyphClass: 2
Flags: W
LayerCount: 2
Fore
SplineSet
59 626 m 0,0,1
 66 634 66 634 131 634 c 2,2,-1
 209 634 l 1,3,-1
 352 632 l 1,4,-1
 356 613 l 2,5,6
 358 607 358 607 358 594 c 0,7,8
 358 580 358 580 356 574 c 2,9,-1
 352 555 l 1,10,11
 319 554 319 554 254.5 554 c 128,-1,12
 190 554 190 554 158 553 c 1,13,-1
 158 429 l 1,14,-1
 237 429 l 2,15,16
 316 429 316 429 322 423 c 128,-1,17
 328 417 328 417 328 382 c 0,18,19
 328 362 328 362 325 355 c 0,20,21
 321 346 321 346 240 346 c 2,22,-1
 158 346 l 1,23,-1
 158 197 l 1,24,-1
 254 197 l 1,25,-1
 268 197 l 2,26,27
 336 197 336 197 347.5 192 c 128,-1,28
 359 187 359 187 359 158 c 0,29,30
 359 157 359 157 359 156 c 2,31,-1
 359 145 l 2,32,33
 359 123 359 123 340.5 118.5 c 128,-1,34
 322 114 322 114 229 114 c 2,35,-1
 209 114 l 2,36,37
 116 114 116 114 90.5 115.5 c 128,-1,38
 65 117 65 117 59 123 c 0,39,40
 52 129 52 129 51 164 c 128,-1,41
 50 199 50 199 50 374 c 0,42,43
 50 537 50 537 51.5 578 c 128,-1,44
 53 619 53 619 59 626 c 0,0,1
EndSplineSet
Validated: 1
EndChar

StartChar: F
Encoding: 70 70 42
Width: 396
GlyphClass: 2
Flags: W
LayerCount: 2
Fore
SplineSet
59 626 m 128,-1,1
 65 633 65 633 85.5 634 c 128,-1,2
 106 635 106 635 201 635 c 2,3,-1
 334 635 l 1,4,-1
 339 622 l 2,5,6
 344 612 344 612 344 592 c 0,7,8
 344 571 344 571 339 561 c 2,9,-1
 334 547 l 1,10,-1
 158 547 l 1,11,-1
 158 408 l 1,12,13
 186 408 186 408 242 407 c 128,-1,14
 298 406 298 406 326 406 c 1,15,-1
 330 387 l 2,16,17
 332 381 332 381 332 368 c 0,18,19
 332 354 332 354 330 348 c 2,20,-1
 326 328 l 1,21,22
 298 328 298 328 242 327 c 128,-1,23
 186 326 186 326 158 326 c 1,24,-1
 158 125 l 1,25,-1
 145 120 l 2,26,27
 134 115 134 115 101 115 c 128,-1,28
 68 115 68 115 60 120 c 0,29,30
 53 124 53 124 51.5 160 c 128,-1,31
 50 196 50 196 50 371 c 0,32,33
 50 536 50 536 51.5 577.5 c 128,-1,0
 53 619 53 619 59 626 c 128,-1,1
EndSplineSet
Validated: 1
EndChar

StartChar: G
Encoding: 71 71 43
Width: 545
GlyphClass: 2
Flags: W
LayerCount: 2
Fore
SplineSet
250 638 m 0,0,1
 279 645 279 645 319 645 c 0,2,3
 405 645 405 645 459 617 c 0,4,5
 482 605 482 605 488.5 594 c 128,-1,6
 495 583 495 583 495 554 c 0,7,8
 495 531 495 531 493 522.5 c 128,-1,9
 491 514 491 514 483 514 c 128,-1,10
 475 514 475 514 445 528 c 0,11,12
 384 557 384 557 326 557 c 0,13,14
 221 557 221 557 177 463 c 0,15,16
 167 441 167 441 165 427 c 128,-1,17
 163 413 163 413 163 372 c 0,18,19
 163 328 163 328 165.5 315 c 128,-1,20
 168 302 168 302 181 276 c 0,21,22
 224 192 224 192 318 192 c 0,23,24
 320 192 320 192 325 192.5 c 128,-1,25
 330 193 330 193 333 193 c 0,26,27
 374 197 374 197 380.5 205.5 c 128,-1,28
 387 214 387 214 387 266 c 2,29,-1
 387 325 l 1,30,-1
 334 327 l 1,31,-1
 282 328 l 1,32,-1
 277 348 l 2,33,34
 275 354 275 354 275 368 c 0,35,36
 275 381 275 381 277 387 c 2,37,-1
 282 406 l 1,38,-1
 379 407 l 1,39,-1
 423 407 l 2,40,41
 479 407 479 407 486 400 c 0,42,43
 493 394 493 394 494 375.5 c 128,-1,44
 495 357 495 357 495 271 c 2,45,-1
 495 230 l 2,46,47
 495 156 495 156 485 142 c 0,48,49
 478 132 478 132 439 121 c 0,50,51
 436 120 436 120 433 119 c 0,52,53
 389 107 389 107 317 107 c 0,54,55
 250 107 250 107 215 119 c 0,56,57
 52 179 52 179 52 370 c 0,58,59
 52 476 52 476 104.5 547 c 128,-1,60
 157 618 157 618 250 638 c 0,0,1
EndSplineSet
Validated: 1
EndChar

StartChar: H
Encoding: 72 72 44
Width: 507
GlyphClass: 2
Flags: W
LayerCount: 2
Fore
SplineSet
363 637 m 0,0,1
 373 640 373 640 398 640 c 0,2,3
 437 640 437 640 447 635 c 0,4,5
 454 631 454 631 455.5 593.5 c 128,-1,6
 457 556 457 556 457 377 c 0,7,8
 457 188 457 188 455.5 156 c 128,-1,9
 454 124 454 124 446 119 c 0,10,11
 436 115 436 115 410 115 c 0,12,13
 363 115 363 115 356 122 c 0,14,15
 352 126 352 126 352 232 c 2,16,-1
 352 339 l 1,17,18
 319 340 319 340 254.5 340 c 128,-1,19
 190 340 190 340 158 341 c 1,20,-1
 158 125 l 1,21,-1
 145 120 l 2,22,23
 134 115 134 115 101 115 c 128,-1,24
 68 115 68 115 60 120 c 0,25,26
 53 124 53 124 51.5 160.5 c 128,-1,27
 50 197 50 197 50 375 c 128,-1,28
 50 553 50 553 51.5 589.5 c 128,-1,29
 53 626 53 626 60 630 c 0,30,31
 68 635 68 635 101 635 c 128,-1,32
 134 635 134 635 145 630 c 2,33,-1
 158 625 l 1,34,-1
 158 434 l 1,35,-1
 255 435 l 1,36,-1
 352 437 l 1,37,-1
 350 521 l 2,38,39
 350 531 350 531 349.5 547.5 c 128,-1,40
 349 564 349 564 349 570 c 0,41,42
 349 634 349 634 363 637 c 0,0,1
EndSplineSet
Validated: 1
EndChar

StartChar: I
Encoding: 73 73 45
Width: 208
GlyphClass: 2
Flags: W
LayerCount: 2
Fore
SplineSet
62 635 m 2,0,1
 75 640 75 640 103 640 c 0,2,3
 132 640 132 640 145 635 c 2,4,-1
 158 630 l 1,5,-1
 158 380 l 2,6,7
 158 202 158 202 156.5 165.5 c 128,-1,8
 155 129 155 129 148 125 c 0,9,10
 140 120 140 120 107 120 c 128,-1,11
 74 120 74 120 63 125 c 2,12,-1
 50 130 l 1,13,-1
 50 630 l 1,14,-1
 62 635 l 2,0,1
EndSplineSet
Validated: 1
EndChar

StartChar: J
Encoding: 74 74 46
Width: 320
GlyphClass: 2
Flags: W
LayerCount: 2
Fore
SplineSet
168 635 m 0,0,1
 174 640 174 640 211 640 c 128,-1,2
 248 640 248 640 255 635 c 0,3,4
 262 631 262 631 263.5 602 c 128,-1,5
 265 573 265 573 268 423 c 0,6,7
 270 283 270 283 270 275 c 0,8,9
 270 213 270 213 260 186 c 0,10,11
 231 109 231 109 138 109 c 0,12,13
 85 109 85 109 64 130 c 0,14,15
 54 140 54 140 54 174 c 0,16,17
 54 200 54 200 61 210 c 0,18,19
 67 217 67 217 71 217 c 128,-1,20
 75 217 75 217 90 211 c 0,21,22
 112 203 112 203 123 203 c 0,23,24
 138 203 138 203 150 215 c 2,25,-1
 164 228 l 1,26,-1
 162 429 l 2,27,28
 161 480 161 480 161 547 c 0,29,30
 161 631 161 631 168 635 c 0,0,1
EndSplineSet
Validated: 1
EndChar

StartChar: K
Encoding: 75 75 47
Width: 483
GlyphClass: 2
Flags: W
LayerCount: 2
Fore
SplineSet
57 634 m 0,0,1
 63 639 63 639 97 639 c 0,2,3
 132 639 132 639 142 634 c 2,4,-1
 155 629 l 1,5,-1
 155 520 l 2,6,7
 155 414 155 414 160 414 c 0,8,9
 164 414 164 414 241 525 c 0,10,11
 317 634 317 634 330 637 c 0,12,13
 342 639 342 639 355 639 c 0,14,15
 412 639 412 639 421 630 c 0,16,17
 424 627 424 627 424 623 c 0,18,19
 424 609 424 609 335 493 c 0,20,21
 264 402 264 402 264 399 c 0,22,23
 264 395 264 395 347 272 c 0,24,25
 430 147 430 147 430 137 c 128,-1,26
 430 127 430 127 420 121 c 0,27,28
 410 116 410 116 371 116 c 0,29,30
 344 116 344 116 335 119 c 0,31,32
 328 122 328 122 251 239 c 0,33,34
 172 361 172 361 168 365 c 0,35,36
 167 366 167 366 166 366 c 0,37,38
 160 366 160 366 160 249 c 2,39,-1
 160 126 l 1,40,-1
 146 121 l 2,41,42
 137 117 137 117 110 117 c 0,43,44
 64 117 64 117 57 124 c 0,45,46
 53 128 53 128 51 379 c 0,47,48
 50 442 50 442 50 526 c 0,49,50
 50 630 50 630 57 634 c 0,0,1
EndSplineSet
Validated: 1
EndChar

StartChar: L
Encoding: 76 76 48
Width: 393
GlyphClass: 2
Flags: W
LayerCount: 2
Fore
SplineSet
59 634 m 0,0,1
 67 639 67 639 100 639 c 0,2,3
 135 639 135 639 145 634 c 2,4,-1
 159 629 l 1,5,-1
 159 204 l 1,6,-1
 244 204 l 1,7,-1
 256 204 l 2,8,9
 319 204 319 204 329.5 198.5 c 128,-1,10
 340 193 340 193 340 160 c 2,11,-1
 340 149 l 2,12,13
 340 125 340 125 325 120.5 c 128,-1,14
 310 116 310 116 232 116 c 2,15,-1
 199 116 l 2,16,17
 113 116 113 116 89 117.5 c 128,-1,18
 65 119 65 119 59 125 c 0,19,20
 52 131 52 131 51 166.5 c 128,-1,21
 50 202 50 202 50 381 c 0,22,23
 50 558 50 558 51 594 c 128,-1,24
 52 630 52 630 59 634 c 0,0,1
EndSplineSet
Validated: 1
EndChar

StartChar: M
Encoding: 77 77 49
Width: 711
GlyphClass: 2
Flags: W
LayerCount: 2
Fore
SplineSet
63 626 m 2,0,1
 72 635 72 635 82 637 c 128,-1,2
 92 639 92 639 130 639 c 0,3,4
 212 639 212 639 228 612 c 0,5,6
 235 603 235 603 294 440 c 0,7,8
 353 275 353 275 356 275 c 0,9,10
 360 275 360 275 397 371 c 0,11,12
 465 552 465 552 481 592 c 0,13,14
 493 623 493 623 510 631 c 128,-1,15
 527 639 527 639 580 639 c 0,16,17
 619 639 619 639 629 637 c 128,-1,18
 639 635 639 635 648 626 c 2,19,-1
 661 614 l 1,20,-1
 661 370 l 2,21,22
 661 191 661 191 660 158 c 128,-1,23
 659 125 659 125 652 121 c 0,24,25
 642 116 642 116 610 116 c 0,26,27
 587 116 587 116 575 119 c 2,28,-1
 563 122 l 1,29,-1
 563 329 l 2,30,31
 563 538 563 538 558 538 c 0,32,33
 554 538 554 538 481 335 c 0,34,35
 408 129 408 129 398 123 c 0,36,37
 389 116 389 116 354 116 c 0,38,39
 326 116 326 116 313 121 c 0,40,41
 306 124 306 124 291.5 160 c 128,-1,42
 277 196 277 196 232 326 c 0,43,44
 160 536 160 536 158 536 c 0,45,46
 154 536 154 536 154 339 c 0,47,48
 154 136 154 136 148 126 c 0,49,50
 141 116 141 116 96 116 c 0,51,52
 71 116 71 116 61 121 c 0,53,54
 53 126 53 126 51.5 156.5 c 128,-1,55
 50 187 50 187 50 370 c 2,56,-1
 50 614 l 1,57,-1
 63 626 l 2,0,1
EndSplineSet
Validated: 1
EndChar

StartChar: N
Encoding: 78 78 50
Width: 530
GlyphClass: 2
Flags: W
LayerCount: 2
Fore
SplineSet
68 633 m 0,0,1
 79 639 79 639 124 639 c 0,2,3
 170 639 170 639 182 633 c 0,4,5
 197 625 197 625 215 593 c 0,6,7
 236 557 236 557 294 447.5 c 128,-1,8
 352 338 352 338 366 307 c 0,9,10
 382 272 382 272 385 272 c 0,11,12
 387 272 387 272 387 448 c 0,13,14
 387 626 387 626 392 632 c 0,15,16
 398 639 398 639 436 639 c 0,17,18
 468 639 468 639 474 633 c 128,-1,19
 480 627 480 627 480 382 c 2,20,-1
 480 137 l 1,21,-1
 469 126 l 2,22,23
 459 116 459 116 417 116 c 0,24,25
 381 116 381 116 366.5 122 c 128,-1,26
 352 128 352 128 339 147 c 0,27,28
 310 190 310 190 192 419 c 2,29,-1
 144 511 l 1,30,-1
 147 323 l 2,31,32
 148 282 148 282 148 219 c 0,33,34
 148 131 148 131 144 127 c 0,35,36
 137 117 137 117 92 117 c 0,37,38
 69 117 69 117 61 121 c 128,-1,39
 53 125 53 125 51.5 156.5 c 128,-1,40
 50 188 50 188 50 372 c 0,41,42
 50 616 50 616 54 622 c 128,-1,43
 58 628 58 628 68 633 c 0,0,1
EndSplineSet
Validated: 1
EndChar

StartChar: O
Encoding: 79 79 51
Width: 597
GlyphClass: 2
Flags: W
LayerCount: 2
Fore
SplineSet
343 556 m 0,0,1
 324 561 324 561 300 561 c 0,2,3
 248 561 248 561 212 525 c 0,4,5
 185 499 185 499 176.5 469.5 c 128,-1,6
 168 440 168 440 168 375 c 0,7,8
 168 314 168 314 175.5 284 c 128,-1,9
 183 254 183 254 205 230 c 0,10,11
 237 193 237 193 301 193 c 0,12,13
 322 193 322 193 343 199 c 0,14,15
 361 204 361 204 382.5 223 c 128,-1,16
 404 242 404 242 413 261 c 0,17,18
 434 303 434 303 434 379 c 0,19,20
 434 458 434 458 413 501 c 0,21,22
 403 520 403 520 383 535.5 c 128,-1,23
 363 551 363 551 343 556 c 0,0,1
231 641 m 0,24,25
 263 649 263 649 305 649 c 0,26,27
 342 649 342 649 379 642 c 0,28,29
 506 615 506 615 539 479 c 0,30,31
 546 448 546 448 546 386 c 128,-1,32
 546 324 546 324 539 292 c 0,33,34
 521 218 521 218 473 171 c 128,-1,35
 425 124 425 124 354 110 c 0,36,37
 327 105 327 105 301 105 c 0,38,39
 201 105 201 105 142 146 c 0,40,41
 100 176 100 176 76 236.5 c 128,-1,42
 52 297 52 297 52 371 c 0,43,44
 52 391 52 391 53 402 c 0,45,46
 68 601 68 601 231 641 c 0,24,25
EndSplineSet
Validated: 1
EndChar

StartChar: P
Encoding: 80 80 52
Width: 459
GlyphClass: 2
Flags: W
LayerCount: 2
Fore
SplineSet
296 470 m 0,0,1
 295 518 295 518 271.5 537 c 128,-1,2
 248 556 248 556 197 556 c 2,3,-1
 159 556 l 1,4,-1
 159 380 l 1,5,-1
 194 380 l 2,6,7
 296 380 296 380 296 470 c 0,0,1
61 630 m 0,8,9
 70 639 70 639 107 639 c 0,10,11
 145 639 145 639 176 638 c 0,12,13
 269 636 269 636 302.5 627 c 128,-1,14
 336 618 336 618 366 588 c 0,15,16
 407 548 407 548 407 484 c 0,17,18
 407 481 407 481 406.5 475 c 128,-1,19
 406 469 406 469 406 466 c 0,20,21
 402 390 402 390 355 347 c 0,22,23
 328 323 328 323 297 312 c 128,-1,24
 266 301 266 301 215 299 c 2,25,-1
 159 296 l 1,26,-1
 159 215 l 2,27,28
 159 133 159 133 154 126 c 0,29,30
 147 116 147 116 98 116 c 0,31,32
 71 116 71 116 61 121 c 0,33,34
 53 125 53 125 51.5 157 c 128,-1,35
 50 189 50 189 50 373 c 0,36,37
 50 556 50 556 51.5 589 c 128,-1,38
 53 622 53 622 61 630 c 0,8,9
EndSplineSet
Validated: 1
EndChar

StartChar: Q
Encoding: 81 81 53
Width: 655
GlyphClass: 2
Flags: W
LayerCount: 2
Fore
SplineSet
347 561 m 0,0,1
 332 566 332 566 301 566 c 0,2,3
 272 566 272 566 254 561 c 0,4,5
 232 555 232 555 208 530 c 128,-1,6
 184 505 184 505 175 478 c 0,7,8
 164 445 164 445 164 383 c 0,9,10
 164 310 164 310 178 276 c 0,11,12
 207 200 207 200 296 200 c 0,13,14
 308 200 308 200 314 201 c 0,15,16
 357 205 357 205 387.5 233 c 128,-1,17
 418 261 418 261 428 307 c 0,18,19
 434 337 434 337 434 384 c 0,20,21
 434 446 434 446 425 476 c 0,22,23
 417 504 417 504 394 529 c 128,-1,24
 371 554 371 554 347 561 c 0,0,1
52 378 m 0,25,26
 52 488 52 488 98 557 c 128,-1,27
 144 626 144 626 232 648 c 0,28,29
 259 655 259 655 297 655 c 0,30,31
 380 655 380 655 432 629 c 0,32,33
 538 575 538 575 545 411 c 0,34,35
 545 406 545 406 545.5 396 c 128,-1,36
 546 386 546 386 546 382 c 0,37,38
 546 271 546 271 497 203 c 2,39,-1
 479 178 l 1,40,-1
 504 160 l 2,41,42
 528 142 528 142 558 131 c 0,43,44
 587 120 587 120 593 107 c 0,45,46
 598 94 598 94 598 74 c 0,47,48
 598 55 598 55 593 40 c 0,49,50
 588 29 588 29 580 29 c 0,51,52
 573 29 573 29 567 30 c 0,53,54
 536 35 536 35 494.5 58 c 128,-1,55
 453 81 453 81 419 112 c 2,56,-1
 398 132 l 1,57,-1
 375 123 l 2,58,59
 344 112 344 112 286 112 c 0,60,61
 253 112 253 112 232 116 c 0,62,63
 141 132 141 132 97 195.5 c 128,-1,64
 53 259 53 259 52 378 c 0,25,26
EndSplineSet
Validated: 1
EndChar

StartChar: R
Encoding: 82 82 54
Width: 491
GlyphClass: 2
Flags: W
LayerCount: 2
Fore
SplineSet
299 494 m 0,0,1
 299 562 299 562 197 562 c 2,2,-1
 159 562 l 1,3,-1
 159 417 l 1,4,-1
 199 417 l 2,5,6
 252 418 252 418 275.5 436 c 128,-1,7
 299 454 299 454 299 494 c 0,0,1
59 636 m 0,8,9
 68 645 68 645 114 645 c 0,10,11
 153 645 153 645 182 644 c 0,12,13
 278 642 278 642 308 635.5 c 128,-1,14
 338 629 338 629 366 605 c 0,15,16
 405 572 405 572 411 519 c 0,17,18
 412 514 412 514 412 503 c 0,19,20
 412 463 412 463 390.5 428.5 c 128,-1,21
 369 394 369 394 335 378 c 2,22,-1
 314 368 l 1,23,-1
 332 353 l 2,24,25
 350 338 350 338 364 313 c 128,-1,26
 378 288 378 288 407 221 c 0,27,28
 437 150 437 150 437 135 c 0,29,30
 437 127 437 127 430 124 c 0,31,32
 421 121 421 121 395 121 c 0,33,34
 344 121 344 121 333 128 c 0,35,36
 328 131 328 131 299 202 c 0,37,38
 265 289 265 289 244 314 c 128,-1,39
 223 339 223 339 183 339 c 2,40,-1
 159 339 l 1,41,-1
 159 239 l 2,42,43
 159 139 159 139 154 132 c 0,44,45
 147 122 147 122 95 122 c 0,46,47
 69 122 69 122 61 126 c 128,-1,48
 53 130 53 130 51.5 162 c 128,-1,49
 50 194 50 194 50 379 c 0,50,51
 50 548 50 548 51.5 588.5 c 128,-1,52
 53 629 53 629 59 636 c 0,8,9
EndSplineSet
Validated: 1
EndChar

StartChar: S
Encoding: 83 83 55
Width: 446
GlyphClass: 2
Flags: W
LayerCount: 2
Fore
SplineSet
175 643 m 0,0,1
 195 648 195 648 225 648 c 0,2,3
 285 648 285 648 315 637 c 0,4,5
 349 624 349 624 355.5 616 c 128,-1,6
 362 608 362 608 362 575 c 0,7,8
 362 537 362 537 356 533 c 1,9,-1
 354 533 l 2,10,11
 346 533 346 533 314 547 c 0,12,13
 278 564 278 564 239 564 c 0,14,15
 211 564 211 564 203.5 562 c 128,-1,16
 196 560 196 560 185 547 c 0,17,18
 170 530 170 530 170 509 c 0,19,20
 170 491 170 491 182 476 c 0,21,22
 194 462 194 462 262 428 c 0,23,24
 340 391 340 391 366 359 c 128,-1,25
 392 327 392 327 393 270 c 0,26,27
 393 244 393 244 390 231.5 c 128,-1,28
 387 219 387 219 376 198 c 0,29,30
 334 116 334 116 220 107 c 0,31,32
 213 106 213 106 200 106 c 0,33,34
 158 106 158 106 118.5 118 c 128,-1,35
 79 130 79 130 62 147 c 0,36,37
 51 158 51 158 51 191 c 0,38,39
 51 233 51 233 66 233 c 0,40,41
 74 233 74 233 91 224 c 0,42,43
 143 195 143 195 195 195 c 0,44,45
 234 195 234 195 259 212.5 c 128,-1,46
 284 230 284 230 284 261 c 0,47,48
 284 280 284 280 264.5 297 c 128,-1,49
 245 314 245 314 193 340 c 0,50,51
 136 368 136 368 112 386.5 c 128,-1,52
 88 405 88 405 75 433 c 0,53,54
 61 461 61 461 61 498 c 0,55,56
 61 611 61 611 175 643 c 0,0,1
EndSplineSet
Validated: 1
EndChar

StartChar: T
Encoding: 84 84 56
Width: 507
GlyphClass: 2
Flags: W
LayerCount: 2
Fore
SplineSet
60 633 m 0,0,1
 65 638 65 638 175 638 c 2,2,-1
 259 638 l 1,3,-1
 450 637 l 1,4,-1
 452 606 l 2,5,6
 453 595 453 595 453 580 c 0,7,8
 453 560 453 560 442.5 555.5 c 128,-1,9
 432 551 432 551 392 551 c 2,10,-1
 377 551 l 1,11,-1
 307 551 l 1,12,-1
 308 339 l 2,13,14
 309 275 309 275 309 197 c 0,15,16
 309 125 309 125 303 121 c 0,17,18
 297 116 297 116 263 116 c 0,19,20
 228 116 228 116 218 121 c 0,21,22
 208 125 208 125 206 133.5 c 128,-1,23
 204 142 204 142 204 187 c 0,24,25
 204 276 204 276 201 400 c 2,26,-1
 198 551 l 1,27,-1
 132 551 l 2,28,29
 67 551 67 551 60 558 c 0,30,31
 54 564 54 564 54 596 c 0,32,33
 54 627 54 627 60 633 c 0,0,1
EndSplineSet
Validated: 1
EndChar

StartChar: U
Encoding: 85 85 57
Width: 525
GlyphClass: 2
Flags: W
LayerCount: 2
Fore
SplineSet
58 633 m 0,0,1
 64 638 64 638 91 638 c 2,2,-1
 108 638 l 2,3,4
 148 636 148 636 150 634 c 0,5,6
 153 628 153 628 155 455 c 0,7,8
 157 309 157 309 161 276.5 c 128,-1,9
 165 244 165 244 187 223 c 0,10,11
 217 194 217 194 261 194 c 0,12,13
 297 194 297 194 326.5 214 c 128,-1,14
 356 234 356 234 365 268 c 0,15,16
 371 292 371 292 371 460 c 2,17,-1
 371 523 l 2,18,19
 371 603 371 603 376 621 c 128,-1,20
 381 639 381 639 404 639 c 2,21,-1
 423 639 l 1,22,-1
 442 639 l 2,23,24
 465 639 465 639 470 620.5 c 128,-1,25
 475 602 475 602 475 516 c 2,26,-1
 475 448 l 2,27,28
 475 270 475 270 465 236 c 0,29,30
 437 149 437 149 348 118 c 0,31,32
 321 108 321 108 264 108 c 0,33,34
 195 108 195 108 163 121 c 0,35,36
 97 147 97 147 67 210 c 2,37,-1
 52 243 l 1,38,-1
 51 435 l 2,39,40
 50 492 50 492 50 561 c 0,41,42
 50 626 50 626 58 633 c 0,0,1
EndSplineSet
Validated: 1
EndChar

StartChar: V
Encoding: 86 86 58
Width: 577
GlyphClass: 2
Flags: W
LayerCount: 2
Fore
SplineSet
57 631 m 0,0,1
 64 639 64 639 104 639 c 128,-1,2
 144 639 144 639 152 636 c 0,3,4
 161 633 161 633 192 534 c 0,5,6
 208 483 208 483 220.5 443.5 c 128,-1,7
 233 404 233 404 243 372.5 c 128,-1,8
 253 341 253 341 260.5 318 c 128,-1,9
 268 295 268 295 273.5 278.5 c 128,-1,10
 279 262 279 262 282.5 251.5 c 128,-1,11
 286 241 286 241 288.5 235.5 c 128,-1,12
 291 230 291 230 292 228 c 2,13,-1
 293 226 l 2,14,15
 294 227 294 227 326 326.5 c 128,-1,16
 358 426 358 426 391.5 527.5 c 128,-1,17
 425 629 425 629 429 633 c 0,18,19
 437 639 437 639 483 639 c 0,20,21
 506 639 506 639 515 636 c 0,22,23
 523 633 523 633 523 623 c 0,24,25
 523 609 523 609 439.5 368 c 128,-1,26
 356 127 356 127 349 123 c 0,27,28
 341 116 341 116 287 116 c 0,29,30
 234 116 234 116 224 125 c 0,31,32
 215 134 215 134 132 378 c 0,33,34
 56 605 56 605 56 625 c 0,35,36
 56 630 56 630 57 631 c 0,0,1
EndSplineSet
Validated: 1
EndChar

StartChar: W
Encoding: 87 87 59
Width: 820
GlyphClass: 2
Flags: W
LayerCount: 2
Fore
SplineSet
61 636 m 0,0,1
 68 639 68 639 95 639 c 0,2,3
 146 639 146 639 153 633 c 0,4,5
 163 623 163 623 204 442 c 0,6,7
 252 232 252 232 256 232 c 2,8,-1
 258 235 l 2,9,10
 261 241 261 241 307 434 c 0,11,12
 353 626 353 626 363 633 c 128,-1,13
 373 640 373 640 407 640 c 0,14,15
 453 640 453 640 462 630 c 0,16,17
 470 622 470 622 520 425 c 0,18,19
 567 234 567 234 572 234 c 0,20,21
 575 234 575 234 598 331.5 c 128,-1,22
 621 429 621 429 645 529 c 128,-1,23
 669 629 669 629 674 633 c 0,24,25
 682 639 682 639 718 639 c 0,26,27
 766 639 766 639 766 619 c 0,28,29
 766 615 766 615 765 612 c 0,30,31
 749 540 749 540 692.5 335.5 c 128,-1,32
 636 131 636 131 631 126 c 0,33,34
 624 117 624 117 567 117 c 0,35,36
 505 117 505 117 498 127 c 0,37,38
 494 132 494 132 472 216 c 128,-1,39
 450 300 450 300 429 381.5 c 128,-1,40
 408 463 408 463 406 463 c 0,41,42
 403 463 403 463 383.5 381.5 c 128,-1,43
 364 300 364 300 342.5 215.5 c 128,-1,44
 321 131 321 131 313 125 c 0,45,46
 300 115 300 115 251 115 c 128,-1,47
 202 115 202 115 189 125 c 0,48,49
 178 133 178 133 116 367 c 0,50,51
 57 588 57 588 54 617 c 0,52,53
 54 634 54 634 61 636 c 0,0,1
EndSplineSet
Validated: 1
EndChar

StartChar: X
Encoding: 88 88 60
Width: 530
GlyphClass: 2
Flags: W
LayerCount: 2
Fore
SplineSet
67 634 m 0,0,1
 70 639 70 639 114 639 c 0,2,3
 160 639 160 639 168 634 c 0,4,5
 178 628 178 628 223 544 c 0,6,7
 269 458 269 458 272 458 c 0,8,9
 276 458 276 458 298 501 c 0,10,11
 364 630 364 630 372 636 c 0,12,13
 376 638 376 638 403 638 c 2,14,-1
 422 638 l 2,15,16
 463 636 463 636 466 630 c 0,17,18
 467 628 467 628 467 624 c 0,19,20
 467 608 467 608 407 499 c 2,21,-1
 345 385 l 1,22,-1
 413 261 l 2,23,24
 476 146 476 146 476 130 c 2,25,-1
 476 129 l 2,26,27
 475 128 475 128 475 127 c 0,28,29
 469 118 469 118 424 117 c 2,30,-1
 410 117 l 2,31,32
 375 117 375 117 372 120 c 0,33,34
 365 127 365 127 316 220 c 0,35,36
 269 312 269 312 264 317 c 0,37,38
 263 318 263 318 249 291.5 c 128,-1,39
 235 265 235 265 215 226 c 0,40,41
 168 134 168 134 157 125 c 0,42,43
 147 116 147 116 108 116 c 0,44,45
 75 116 75 116 64.5 119 c 128,-1,46
 54 122 54 122 54 131 c 128,-1,47
 54 140 54 140 121 261 c 0,48,49
 187 380 187 380 187 388 c 2,50,-1
 127 499 l 2,51,52
 65 613 65 613 65 627 c 0,53,54
 65 630 65 630 67 634 c 0,0,1
EndSplineSet
Validated: 1
EndChar

StartChar: Y
Encoding: 89 89 61
Width: 518
GlyphClass: 2
Flags: W
LayerCount: 2
Fore
SplineSet
58 636 m 0,0,1
 61 640 61 640 93 640 c 0,2,3
 150 640 150 640 159 633 c 0,4,5
 164 628 164 628 195 563.5 c 128,-1,6
 226 499 226 499 254 435 c 2,7,-1
 262 414 l 1,8,-1
 273 440 l 2,9,10
 296 499 296 499 325 562 c 128,-1,11
 354 625 354 625 361 631 c 0,12,13
 372 640 372 640 415 640 c 0,14,15
 457 640 457 640 463 632 c 0,16,17
 464 631 464 631 464 629 c 0,18,19
 464 615 464 615 391 470 c 2,20,-1
 313 316 l 1,21,-1
 313 221 l 1,22,-1
 313 200 l 2,23,24
 313 139 313 139 307.5 127.5 c 128,-1,25
 302 116 302 116 272 116 c 2,26,-1
 259 116 l 1,27,-1
 246 116 l 2,28,29
 215 116 215 116 209.5 128 c 128,-1,30
 204 140 204 140 204 202 c 2,31,-1
 204 223 l 1,32,-1
 204 320 l 1,33,-1
 129 466 l 2,34,35
 55 611 55 611 55 629 c 0,36,37
 55 633 55 633 58 636 c 0,0,1
EndSplineSet
Validated: 1
EndChar

StartChar: Z
Encoding: 90 90 62
Width: 463
GlyphClass: 2
Flags: W
LayerCount: 2
Fore
SplineSet
62 630 m 0,0,1
 66 637 66 637 88.5 638 c 128,-1,2
 111 639 111 639 226 639 c 2,3,-1
 384 639 l 1,4,-1
 392 626 l 2,5,6
 399 616 399 616 399 599 c 0,7,8
 399 589 399 589 398 582 c 0,9,10
 396 560 396 560 380 531 c 128,-1,11
 364 502 364 502 286 377 c 2,12,-1
 177 202 l 1,13,-1
 286 200 l 2,14,15
 396 198 396 198 403 193 c 0,16,17
 410 186 410 186 410 154 c 0,18,19
 410 136 410 136 406 124 c 0,20,21
 404 119 404 119 375.5 117.5 c 128,-1,22
 347 116 347 116 237 116 c 2,23,-1
 195 116 l 2,24,25
 91 116 91 116 71.5 121 c 128,-1,26
 52 126 52 126 52 152 c 2,27,-1
 52 161 l 2,28,29
 52 189 52 189 58 201 c 0,30,31
 63 211 63 211 140 335.5 c 128,-1,32
 217 460 217 460 249 511 c 0,33,34
 275 552 275 552 275 553 c 0,35,36
 275 556 275 556 171 556 c 0,37,38
 87 556 87 556 72 560.5 c 128,-1,39
 57 565 57 565 57 592 c 2,40,-1
 57 598 l 2,41,42
 57 620 57 620 62 630 c 0,0,1
EndSplineSet
Validated: 1
EndChar

StartChar: bracketleft
Encoding: 91 91 63
Width: 300
GlyphClass: 2
Flags: W
LayerCount: 2
Fore
SplineSet
86 779 m 2,0,-1
 105 800 l 1,1,-1
 380 800 l 1,2,-1
 379 758 l 1,3,-1
 377 715 l 1,4,-1
 277 713 l 2,5,6
 204 712 204 712 189 710.5 c 128,-1,7
 174 709 174 709 168 702 c 0,8,9
 161 694 161 694 159.5 646.5 c 128,-1,10
 158 599 158 599 158 395 c 0,11,12
 158 100 158 100 163 87 c 2,13,-1
 169 73 l 1,14,-1
 385 73 l 1,15,-1
 385 -34 l 1,16,-1
 271 -37 l 2,17,18
 241 -38 241 -38 201 -38 c 0,19,20
 156 -38 156 -38 132 -29 c 0,21,22
 85 -8 85 -8 62 40 c 2,23,-1
 50 65 l 1,24,-1
 50 388 l 1,25,-1
 50 441 l 2,26,27
 50 664 50 664 54.5 707.5 c 128,-1,28
 59 751 59 751 84 777 c 0,29,30
 85 778 85 778 86 779 c 2,0,-1
EndSplineSet
Validated: 1
EndChar

StartChar: backslash
Encoding: 92 92 64
Width: 457
GlyphClass: 2
Flags: W
LayerCount: 2
Fore
SplineSet
62 712 m 0,0,1
 70 717 70 717 103 717 c 0,2,3
 142 717 142 717 150 711 c 0,4,5
 159 704 159 704 257 427 c 0,6,7
 354 155 354 155 372 106 c 0,8,9
 401 28 401 28 401 18 c 0,10,11
 401 15 401 15 397 9 c 0,12,13
 391 2 391 2 352 2 c 0,14,15
 316 2 316 2 308 9 c 0,16,17
 301 13 301 13 213 259 c 0,18,19
 128 501 128 501 95 593 c 0,20,21
 58 696 58 696 58 706 c 0,22,23
 58 709 58 709 62 712 c 0,0,1
EndSplineSet
Validated: 1
EndChar

StartChar: bracketright
Encoding: 93 93 65
Width: 301
GlyphClass: 2
Flags: W
LayerCount: 2
Fore
SplineSet
-83 755 m 1,0,-1
 -85 800 l 1,1,-1
 189 800 l 1,2,-1
 211 777 l 2,3,4
 234 753 234 753 240 737 c 0,5,6
 251 702 251 702 251 501 c 0,7,8
 251 468 251 468 251 386 c 2,9,-1
 251 65 l 1,10,-1
 238 40 l 2,11,12
 215 -8 215 -8 168 -29 c 0,13,14
 152 -36 152 -36 130 -38 c 128,-1,15
 108 -40 108 -40 30 -40 c 2,16,-1
 -84 -40 l 1,17,-1
 -84 68 l 1,18,-1
 21 69 l 2,19,20
 126 70 126 70 133 77 c 128,-1,21
 140 84 140 84 141 384 c 2,22,-1
 141 553 l 2,23,24
 141 685 141 685 135 695 c 0,25,26
 129 704 129 704 114.5 705.5 c 128,-1,27
 100 707 100 707 22 708 c 2,28,-1
 -82 710 l 1,29,-1
 -83 755 l 1,0,-1
EndSplineSet
Validated: 1
EndChar

StartChar: asciicircum
Encoding: 94 94 66
Width: 489
GlyphClass: 2
Flags: W
LayerCount: 2
Fore
SplineSet
194 634 m 0,0,1
 207 639 207 639 239 639 c 0,2,3
 280 639 280 639 293 633 c 0,4,5
 303 629 303 629 316.5 603 c 128,-1,6
 330 577 330 577 372 484 c 0,7,8
 435 345 435 345 435 331 c 0,9,10
 435 325 435 325 428.5 323 c 128,-1,11
 422 321 422 321 398 319 c 0,12,13
 393 319 393 319 385.5 318.5 c 128,-1,14
 378 318 378 318 375 318 c 0,15,16
 348 318 348 318 336 336.5 c 128,-1,17
 324 355 324 355 289 440 c 0,18,19
 244 548 244 548 240 548 c 128,-1,20
 236 548 236 548 196 440 c 0,21,22
 157 337 157 337 145 327 c 0,23,24
 136 319 136 319 109 319 c 2,25,-1
 95 319 l 2,26,27
 58 321 58 321 55 327 c 0,28,29
 54 329 54 329 54 333 c 0,30,31
 54 347 54 347 126 507 c 0,32,33
 129 513 129 513 138 535 c 128,-1,34
 147 557 147 557 151 567 c 0,35,36
 167 604 167 604 175 617 c 128,-1,37
 183 630 183 630 194 634 c 0,0,1
EndSplineSet
Validated: 1
EndChar

StartChar: underscore
Encoding: 95 95 67
Width: 670
GlyphClass: 2
Flags: W
LayerCount: 2
Fore
SplineSet
-76 755 m 1,0,-1
 -78 800 l 1,1,-1
 748 800 l 1,2,-1
 746 755 l 1,3,-1
 745 710 l 1,4,-1
 -75 710 l 1,5,-1
 -76 755 l 1,0,-1
-77 -40 m 1,6,-1
 -77 68 l 1,7,-1
 747 68 l 1,8,-1
 747 -40 l 1,9,-1
 -77 -40 l 1,6,-1
EndSplineSet
Validated: 1
EndChar

StartChar: grave
Encoding: 96 96 68
Width: 271
GlyphClass: 2
Flags: W
LayerCount: 2
Fore
SplineSet
61 688 m 0,0,1
 65 691 65 691 104 691 c 2,2,-1
 116 691 l 2,3,4
 142 691 142 691 151 683 c 0,5,6
 163 672 163 672 190 626.5 c 128,-1,7
 217 581 217 581 217 572 c 128,-1,8
 217 563 217 563 183 563 c 0,9,10
 156 563 156 563 142.5 573.5 c 128,-1,11
 129 584 129 584 84 639 c 0,12,13
 55 674 55 674 55 682 c 0,14,15
 55 686 55 686 61 688 c 0,0,1
EndSplineSet
Validated: 1
EndChar

StartChar: a
Encoding: 97 97 69
Width: 431
GlyphClass: 2
Flags: W
LayerCount: 2
Fore
SplineSet
283 254 m 2,0,-1
 283 285 l 1,1,-1
 248 284 l 2,2,3
 185 283 185 283 166 261 c 0,4,5
 154 248 154 248 154 230 c 0,6,7
 154 214 154 214 164.5 201 c 128,-1,8
 175 188 175 188 192 184 c 0,9,10
 204 182 204 182 208 182 c 0,11,12
 234 182 234 182 261 205 c 0,13,14
 276 219 276 219 279.5 226 c 128,-1,15
 283 233 283 233 283 254 c 2,0,-1
161 510 m 0,16,17
 183 515 183 515 219 515 c 0,18,19
 280 515 280 515 305 506 c 0,20,21
 328 498 328 498 346.5 480 c 128,-1,22
 365 462 365 462 372 441 c 0,23,24
 380 418 380 418 380 271 c 2,25,-1
 380 220 l 2,26,27
 380 149 380 149 376.5 134.5 c 128,-1,28
 373 120 373 120 354 120 c 2,29,-1
 339 120 l 2,30,31
 312 120 312 120 305 123.5 c 128,-1,32
 298 127 298 127 298 143 c 2,33,-1
 298 161 l 1,34,-1
 275 143 l 2,35,36
 230 109 230 109 185 109 c 0,37,38
 182 109 182 109 177 109.5 c 128,-1,39
 172 110 172 110 170 110 c 0,40,41
 118 114 118 114 85.5 145.5 c 128,-1,42
 53 177 53 177 53 224 c 0,43,44
 53 231 53 231 55 247 c 0,45,46
 64 294 64 294 105 317.5 c 128,-1,47
 146 341 146 341 225 345 c 2,48,-1
 284 348 l 1,49,-1
 281 379 l 2,50,51
 278 410 278 410 265 423 c 0,52,53
 256 432 256 432 247 434.5 c 128,-1,54
 238 437 238 437 211 437 c 0,55,56
 169 436 169 436 138 422 c 0,57,58
 104 408 104 408 92 406 c 2,59,-1
 89 406 l 2,60,61
 79 406 79 406 74 430 c 0,62,63
 72 438 72 438 72 448 c 0,64,65
 72 457 72 457 78 468 c 0,66,67
 94 492 94 492 161 510 c 0,16,17
EndSplineSet
Validated: 1
EndChar

StartChar: b
Encoding: 98 98 70
Width: 464
GlyphClass: 2
Flags: W
LayerCount: 2
Fore
SplineSet
274 413 m 0,0,1
 255 429 255 429 235 429 c 0,2,3
 216 429 216 429 196 415 c 0,4,5
 166 395 166 395 160 380 c 128,-1,6
 154 365 154 365 153 314 c 0,7,8
 153 261 153 261 160 244 c 128,-1,9
 167 227 167 227 196 210 c 0,10,11
 218 198 218 198 235 198 c 0,12,13
 248 198 248 198 265 207 c 0,14,15
 305 231 305 231 305 313 c 0,16,17
 305 355 305 355 298.5 376 c 128,-1,18
 292 397 292 397 274 413 c 0,0,1
59 676 m 0,19,20
 67 681 67 681 97 681 c 0,21,22
 130 681 130 681 140 676 c 2,23,-1
 153 671 l 1,24,-1
 153 470 l 1,25,-1
 179 488 l 2,26,27
 219 516 219 516 267 516 c 0,28,29
 335 516 335 516 373 463.5 c 128,-1,30
 411 411 411 411 411 318 c 0,31,32
 411 226 411 226 374.5 171.5 c 128,-1,33
 338 117 338 117 271 111 c 0,34,35
 265 110 265 110 254 110 c 0,36,37
 206 110 206 110 165 144 c 2,38,-1
 138 166 l 1,39,-1
 138 149 l 2,40,41
 138 133 138 133 131 126 c 0,42,43
 125 120 125 120 94 120 c 0,44,45
 62 120 62 120 56 126 c 128,-1,46
 50 132 50 132 50 402 c 0,47,48
 50 595 50 595 51 633.5 c 128,-1,49
 52 672 52 672 59 676 c 0,19,20
EndSplineSet
Validated: 1
EndChar

StartChar: c
Encoding: 99 99 71
Width: 397
GlyphClass: 2
Flags: W
LayerCount: 2
Fore
SplineSet
176 509 m 0,0,1
 199 515 199 515 225 515 c 0,2,3
 302 515 302 515 333 484 c 0,4,5
 343 474 343 474 343 434 c 0,6,7
 343 418 343 418 339 406 c 0,8,9
 336 398 336 398 326 398 c 0,10,11
 318 398 318 398 312 405 c 0,12,13
 304 415 304 415 279 423.5 c 128,-1,14
 254 432 254 432 236 432 c 2,15,-1
 230 432 l 1,16,17
 190 428 190 428 171 391 c 0,18,19
 159 368 159 368 159 313 c 0,20,21
 159 267 159 267 166.5 244 c 128,-1,22
 174 221 174 221 194 206 c 0,23,24
 211 193 211 193 235 193 c 0,25,26
 272 193 272 193 313 221 c 0,27,28
 328 231 328 231 333 231 c 0,29,30
 343 231 343 231 346 196 c 0,31,32
 346 193 346 193 346.5 187.5 c 128,-1,33
 347 182 347 182 347 180 c 0,34,35
 347 159 347 159 339 148 c 128,-1,36
 331 137 331 137 308 126 c 0,37,38
 287 117 287 117 273 114.5 c 128,-1,39
 259 112 259 112 224 112 c 0,40,41
 168 113 168 113 144 125 c 0,42,43
 98 147 98 147 78 186 c 128,-1,44
 58 225 58 225 55 296 c 0,45,46
 54 310 54 310 54 331 c 0,47,48
 54 364 54 364 63 392 c 0,49,50
 76 436 76 436 106 467 c 128,-1,51
 136 498 136 498 176 509 c 0,0,1
EndSplineSet
Validated: 1
EndChar

StartChar: d
Encoding: 100 100 72
Width: 465
GlyphClass: 2
Flags: W
LayerCount: 2
Fore
SplineSet
271 414 m 0,0,1
 250 428 250 428 228 428 c 0,2,3
 193 428 193 428 171 385 c 0,4,5
 159 362 159 362 159 313 c 0,6,7
 159 262 159 262 171 238 c 0,8,9
 192 197 192 197 228 197 c 0,10,11
 245 197 245 197 268 210 c 0,12,13
 287 221 287 221 303 241 c 0,14,15
 317 259 317 259 317 286 c 0,16,17
 317 289 317 289 316.5 299.5 c 128,-1,18
 316 310 316 310 316 318 c 0,19,20
 314 367 314 367 307.5 380.5 c 128,-1,21
 301 394 301 394 271 414 c 0,0,1
326 678 m 0,22,23
 336 681 336 681 359 681 c 0,24,25
 395 681 395 681 405 676 c 0,26,27
 412 672 412 672 413 635 c 128,-1,28
 414 598 414 598 414 398 c 2,29,-1
 414 264 l 2,30,31
 414 165 414 165 410.5 142 c 128,-1,32
 407 119 407 119 391 119 c 0,33,34
 389 119 389 119 383 119.5 c 128,-1,35
 377 120 377 120 373 120 c 0,36,37
 346 120 346 120 336.5 126 c 128,-1,38
 327 132 327 132 327 148 c 2,39,-1
 327 166 l 1,40,-1
 295 143 l 2,41,42
 249 110 249 110 208 110 c 0,43,44
 196 110 196 110 190 111 c 0,45,46
 87 118 87 118 61 237 c 0,47,48
 54 268 54 268 54 306 c 0,49,50
 54 384 54 384 80 436 c 0,51,52
 99 474 99 474 133.5 495 c 128,-1,53
 168 516 168 516 207 516 c 0,54,55
 257 516 257 516 294 486 c 0,56,57
 307 474 307 474 310 477 c 0,58,59
 312 478 312 478 312 565 c 2,60,-1
 312 600 l 2,61,62
 312 646 312 646 315 661 c 128,-1,63
 318 676 318 676 326 678 c 0,22,23
EndSplineSet
Validated: 1
EndChar

StartChar: e
Encoding: 101 101 73
Width: 461
GlyphClass: 2
Flags: W
LayerCount: 2
Fore
SplineSet
267 437 m 0,0,1
 248 444 248 444 232 444 c 0,2,3
 218 444 218 444 205 439 c 0,4,5
 189 432 189 432 173 405.5 c 128,-1,6
 157 379 157 379 157 358 c 0,7,8
 157 352 157 352 231 352 c 2,9,-1
 306 352 l 1,10,-1
 306 374 l 2,11,12
 306 420 306 420 267 437 c 0,0,1
186 511 m 0,13,14
 201 514 201 514 233 514 c 0,15,16
 293 514 293 514 309 506 c 0,17,18
 355 485 355 485 378 451 c 0,19,20
 408 407 408 407 408 336 c 0,21,22
 408 300 408 300 396 291 c 0,23,24
 388 285 388 285 271 285 c 2,25,-1
 157 285 l 1,26,-1
 157 270 l 2,27,28
 157 253 157 253 170 230.5 c 128,-1,29
 183 208 183 208 198 199 c 0,30,31
 215 189 215 189 256 189 c 0,32,33
 307 189 307 189 342 202 c 0,34,35
 369 211 369 211 378 211 c 1,36,-1
 379 210 l 2,37,38
 380 210 380 210 381 210 c 0,39,40
 388 207 388 207 388 174 c 0,41,42
 388 152 388 152 386.5 145.5 c 128,-1,43
 385 139 385 139 378 135 c 0,44,45
 330 110 330 110 242 110 c 0,46,47
 212 110 212 110 192 114 c 0,48,49
 124 127 124 127 91 170 c 128,-1,50
 58 213 58 213 54 292 c 1,51,-1
 54 311 l 2,52,53
 54 390 54 390 88.5 442 c 128,-1,54
 123 494 123 494 186 511 c 0,13,14
EndSplineSet
Validated: 1
EndChar

StartChar: f
Encoding: 102 102 74
Width: 365
GlyphClass: 2
Flags: W
LayerCount: 2
Fore
SplineSet
193 680 m 0,0,1
 206 685 206 685 235 685 c 0,2,3
 282 685 282 685 299 674 c 0,4,5
 312 665 312 665 312 648 c 0,6,7
 312 646 312 646 311.5 640.5 c 128,-1,8
 311 635 311 635 311 631 c 0,9,10
 309 598 309 598 302 598 c 2,11,-1
 299 598 l 1,12,13
 262 603 262 603 255 603 c 0,14,15
 243 603 243 603 232 592 c 0,16,17
 223 583 223 583 221 575 c 128,-1,18
 219 567 219 567 219 543 c 2,19,-1
 219 507 l 1,20,-1
 257 505 l 1,21,-1
 294 504 l 1,22,-1
 295 476 l 2,23,24
 296 467 296 467 296 453 c 0,25,26
 296 433 296 433 288.5 428.5 c 128,-1,27
 281 424 281 424 255 424 c 2,28,-1
 219 424 l 1,29,-1
 219 277 l 1,30,-1
 219 232 l 2,31,32
 219 153 219 153 214 136.5 c 128,-1,33
 209 120 209 120 185 120 c 2,34,-1
 167 120 l 1,35,-1
 149 120 l 2,36,37
 126 120 126 120 121 135 c 128,-1,38
 116 150 116 150 116 221 c 2,39,-1
 116 277 l 1,40,-1
 116 424 l 1,41,-1
 90 424 l 2,42,43
 68 424 68 424 61 432 c 128,-1,44
 54 440 54 440 54 465 c 128,-1,45
 54 490 54 490 61 498 c 128,-1,46
 68 506 68 506 90 506 c 2,47,-1
 114 506 l 1,48,-1
 117 555 l 2,49,50
 120 610 120 610 136.5 637.5 c 128,-1,51
 153 665 153 665 193 680 c 0,0,1
EndSplineSet
Validated: 1
EndChar

StartChar: g
Encoding: 103 103 75
Width: 471
GlyphClass: 2
Flags: W
LayerCount: 2
Fore
SplineSet
295 122 m 0,0,1
 282 131 282 131 233 134 c 2,2,-1
 185 136 l 1,3,-1
 171 120 l 2,4,5
 152 96 152 96 152 78 c 0,6,7
 152 73 152 73 154 65 c 0,8,9
 158 51 158 51 180 42 c 128,-1,10
 202 33 202 33 230 33 c 128,-1,11
 258 33 258 33 279 42 c 0,12,13
 312 56 312 56 312 89 c 0,14,15
 312 108 312 108 295 122 c 0,0,1
260 431 m 0,16,17
 244 439 244 439 223 439 c 0,18,19
 209 439 209 439 201 435 c 0,20,21
 172 423 172 423 168 384 c 0,22,23
 168 381 168 381 167.5 377 c 128,-1,24
 167 373 167 373 167 372 c 0,25,26
 167 357 167 357 181 342 c 0,27,28
 200 321 200 321 229 321 c 0,29,30
 256 321 256 321 274 340 c 0,31,32
 286 352 286 352 286 378 c 0,33,34
 286 401 286 401 280.5 412 c 128,-1,35
 275 423 275 423 260 431 c 0,16,17
169 502 m 0,36,37
 193 510 193 510 209 510 c 0,38,39
 215 510 215 510 237 508 c 0,40,41
 255 506 255 506 345 504 c 2,42,-1
 412 502 l 1,43,-1
 417 484 l 2,44,45
 419 478 419 478 419 465 c 0,46,47
 419 451 419 451 417 445 c 0,48,49
 413 431 413 431 409.5 428.5 c 128,-1,50
 406 426 406 426 389 425 c 2,51,-1
 365 423 l 1,52,-1
 373 401 l 2,53,54
 377 390 377 390 377 375 c 0,55,56
 377 338 377 338 352 300 c 0,57,58
 336 277 336 277 302 263 c 128,-1,59
 268 249 268 249 231 249 c 0,60,61
 211 249 211 249 195 253 c 0,62,63
 182 257 182 257 174 257 c 0,64,65
 168 257 168 257 164 251 c 0,66,67
 157 240 157 240 157 236 c 0,68,69
 157 230 157 230 164 220 c 0,70,71
 171 211 171 211 243 206 c 0,72,73
 304 202 304 202 327 197.5 c 128,-1,74
 350 193 350 193 369 180 c 0,75,76
 414 150 414 150 414 97 c 0,77,78
 414 51 414 51 379 16 c 0,79,80
 351 -12 351 -12 320 -21.5 c 128,-1,81
 289 -31 289 -31 227 -32 c 2,82,-1
 216 -32 l 2,83,84
 129 -32 129 -32 89 -3 c 0,85,86
 75 7 75 7 64.5 27.5 c 128,-1,87
 54 48 54 48 54 64 c 0,88,89
 56 105 56 105 89 137 c 2,90,-1
 105 152 l 1,91,-1
 93 165 l 2,92,93
 71 187 71 187 71 215 c 0,94,95
 71 242 71 242 90 271 c 2,96,-1
 105 295 l 1,97,-1
 93 319 l 2,98,99
 80 344 80 344 80 376 c 0,100,101
 80 445 80 445 125 479 c 0,102,103
 141 492 141 492 169 502 c 0,36,37
EndSplineSet
Validated: 1
EndChar

StartChar: h
Encoding: 104 104 76
Width: 447
GlyphClass: 2
Flags: W
LayerCount: 2
Fore
SplineSet
59 676 m 0,0,1
 67 681 67 681 97 681 c 0,2,3
 130 681 130 681 140 676 c 2,4,-1
 153 671 l 1,5,-1
 153 471 l 1,6,-1
 180 488 l 2,7,8
 206 507 206 507 227 512 c 0,9,10
 240 516 240 516 259 516 c 0,11,12
 323 516 323 516 357 479 c 0,13,14
 380 453 380 453 387.5 409.5 c 128,-1,15
 395 366 395 366 395 250 c 2,16,-1
 395 204 l 2,17,18
 395 145 395 145 389.5 132.5 c 128,-1,19
 384 120 384 120 359 120 c 2,20,-1
 344 120 l 1,21,-1
 329 120 l 2,22,23
 303 120 303 120 297.5 134 c 128,-1,24
 292 148 292 148 292 215 c 2,25,-1
 292 252 l 2,26,27
 292 352 292 352 287.5 377.5 c 128,-1,28
 283 403 283 403 264 418 c 0,29,30
 251 428 251 428 234 428 c 0,31,32
 214 428 214 428 193 414 c 0,33,34
 176 403 176 403 170 398.5 c 128,-1,35
 164 394 164 394 159 377 c 128,-1,36
 154 360 154 360 153.5 340.5 c 128,-1,37
 153 321 153 321 153 271 c 2,38,-1
 153 253 l 1,39,-1
 153 206 l 2,40,41
 153 145 153 145 147.5 132.5 c 128,-1,42
 142 120 142 120 117 120 c 2,43,-1
 102 120 l 2,44,45
 97 120 97 120 89.5 119.5 c 128,-1,46
 82 119 82 119 79 119 c 0,47,48
 68 119 68 119 63 122.5 c 128,-1,49
 58 126 58 126 54.5 146 c 128,-1,50
 51 166 51 166 50.5 194 c 128,-1,51
 50 222 50 222 50 284 c 2,52,-1
 50 401 l 2,53,54
 50 594 50 594 51 633 c 128,-1,55
 52 672 52 672 59 676 c 0,0,1
EndSplineSet
Validated: 1
EndChar

StartChar: i
Encoding: 105 105 77
Width: 218
GlyphClass: 2
Flags: W
LayerCount: 2
Fore
SplineSet
71 655 m 0,0,1
 78 659 78 659 103 659 c 2,2,-1
 116 659 l 2,3,4
 148 658 148 658 158 647.5 c 128,-1,5
 168 637 168 637 168 607 c 0,6,7
 168 575 168 575 156.5 565 c 128,-1,8
 145 555 145 555 109 555 c 0,9,10
 75 555 75 555 64.5 562 c 128,-1,11
 54 569 54 569 51 592 c 0,12,13
 50 596 50 596 50 605 c 0,14,15
 50 645 50 645 71 655 c 0,0,1
69 496 m 128,-1,17
 76 500 76 500 101 500 c 0,18,19
 151 500 151 500 157 491 c 0,20,21
 163 481 163 481 163 304 c 2,22,-1
 163 238 l 2,23,24
 163 151 163 151 158 132.5 c 128,-1,25
 153 114 153 114 129 114 c 2,26,-1
 109 114 l 1,27,-1
 89 114 l 2,28,29
 69 114 69 114 64.5 130 c 128,-1,30
 60 146 60 146 60 214 c 2,31,-1
 60 306 l 2,32,33
 60 437 60 437 61 464.5 c 128,-1,16
 62 492 62 492 69 496 c 128,-1,17
EndSplineSet
Validated: 1
EndChar

StartChar: j
Encoding: 106 106 78
Width: 293
GlyphClass: 2
Flags: W
LayerCount: 2
Fore
SplineSet
147 656 m 0,0,1
 158 660 158 660 188 660 c 0,2,3
 210 660 210 660 217 658 c 0,4,5
 243 651 243 651 243 610 c 0,6,7
 243 568 243 568 217 558 c 0,8,9
 204 553 204 553 187 553 c 0,10,11
 147 553 147 553 134 568 c 0,12,13
 124 579 124 579 124 602 c 0,14,15
 124 646 124 646 147 656 c 0,0,1
134 489 m 0,16,17
 141 501 141 501 187 501 c 0,18,19
 211 501 211 501 223 496 c 0,20,21
 230 492 230 492 231.5 460 c 128,-1,22
 233 428 233 428 233 277 c 0,23,24
 233 122 233 122 231.5 88.5 c 128,-1,25
 230 55 230 55 223 35 c 0,26,27
 197 -34 197 -34 116 -34 c 2,28,-1
 102 -34 l 2,29,30
 75 -32 75 -32 66.5 -23.5 c 128,-1,31
 58 -15 58 -15 58 9 c 0,32,33
 58 34 58 34 62.5 40.5 c 128,-1,34
 67 47 67 47 86 47 c 0,35,36
 109 47 109 47 119 61 c 0,37,38
 127 71 127 71 128.5 102 c 128,-1,39
 130 133 130 133 130 279 c 0,40,41
 130 483 130 483 134 489 c 0,16,17
EndSplineSet
Validated: 1
EndChar

StartChar: k
Encoding: 107 107 79
Width: 439
GlyphClass: 2
Flags: W
LayerCount: 2
Fore
SplineSet
59 671 m 0,0,1
 67 676 67 676 97 676 c 0,2,3
 130 676 130 676 140 671 c 2,4,-1
 153 666 l 1,5,-1
 153 508 l 2,6,7
 153 356 153 356 159 356 c 0,8,9
 160 356 160 356 161 357 c 0,10,11
 173 369 173 369 218 429 c 0,12,13
 266 495 266 495 278 498 c 0,14,15
 289 501 289 501 318 501 c 0,16,17
 370 501 370 501 370 486 c 0,18,19
 370 470 370 470 314 408 c 0,20,21
 257 344 257 344 257 341 c 0,22,23
 257 333 257 333 320 238 c 0,24,25
 385 140 385 140 385 133 c 0,26,27
 385 114 385 114 331 114 c 0,28,29
 290 114 290 114 281 121 c 0,30,31
 276 124 276 124 223 207 c 0,32,33
 217 216 217 216 210.5 226.5 c 128,-1,34
 204 237 204 237 199.5 244 c 128,-1,35
 195 251 195 251 190 258.5 c 128,-1,36
 185 266 185 266 181.5 271 c 128,-1,37
 178 276 178 276 174.5 281.5 c 128,-1,38
 171 287 171 287 169 290 c 128,-1,39
 167 293 167 293 164.5 295.5 c 128,-1,40
 162 298 162 298 160.5 299 c 128,-1,41
 159 300 159 300 158 300 c 0,42,43
 153 300 153 300 153 265 c 2,44,-1
 153 219 l 2,45,46
 153 154 153 154 151.5 139 c 128,-1,47
 150 124 150 124 143 120 c 0,48,49
 131 115 131 115 99 115 c 0,50,51
 62 115 62 115 56 121 c 128,-1,52
 50 127 50 127 50 396 c 0,53,54
 50 589 50 589 51 628 c 128,-1,55
 52 667 52 667 59 671 c 0,0,1
EndSplineSet
Validated: 1
EndChar

StartChar: l
Encoding: 108 108 80
Width: 202
GlyphClass: 2
Flags: W
LayerCount: 2
Fore
SplineSet
59 671 m 128,-1,1
 66 675 66 675 99 675 c 0,2,3
 139 675 139 675 146 670 c 0,4,5
 150 664 150 664 152 396 c 2,6,-1
 152 272 l 2,7,8
 152 128 152 128 144 121 c 0,9,10
 135 114 135 114 93 114 c 0,11,12
 70 114 70 114 58 118 c 0,13,14
 53 120 53 120 51.5 165.5 c 128,-1,15
 50 211 50 211 50 393 c 0,16,17
 50 588 50 588 51 627.5 c 128,-1,0
 52 667 52 667 59 671 c 128,-1,1
EndSplineSet
Validated: 1
EndChar

StartChar: m
Encoding: 109 109 81
Width: 673
GlyphClass: 2
Flags: W
LayerCount: 2
Fore
SplineSet
207 499 m 0,0,1
 230 510 230 510 260 510 c 0,2,3
 326 510 326 510 357 464 c 2,4,-1
 371 444 l 1,5,-1
 399 470 l 2,6,7
 446 511 446 511 495 511 c 0,8,9
 497 511 497 511 501.5 510.5 c 128,-1,10
 506 510 506 510 509 510 c 0,11,12
 601 501 601 501 617 399 c 0,13,14
 622 372 622 372 622 247 c 2,15,-1
 622 201 l 2,16,17
 622 140 622 140 616.5 127 c 128,-1,18
 611 114 611 114 585 114 c 2,19,-1
 570 114 l 1,20,-1
 559 114 l 2,21,22
 530 114 530 114 524.5 130 c 128,-1,23
 519 146 519 146 518 230 c 0,24,25
 518 247 518 247 518 256 c 0,26,27
 516 351 516 351 514.5 370.5 c 128,-1,28
 513 390 513 390 505 402 c 0,29,30
 489 424 489 424 462 424 c 0,31,32
 454 424 454 424 446 421 c 0,33,34
 435 417 435 417 410 394 c 2,35,-1
 385 371 l 1,36,-1
 385 249 l 2,37,38
 385 127 385 127 379 121 c 128,-1,39
 373 115 373 115 327 115 c 0,40,41
 302 115 302 115 295 118 c 0,42,43
 287 121 287 121 287 225 c 0,44,45
 287 325 287 325 282 360.5 c 128,-1,46
 277 396 277 396 261 410 c 128,-1,47
 245 424 245 424 233 424 c 0,48,49
 200 424 200 424 169 390 c 2,50,-1
 153 372 l 1,51,-1
 153 248 l 1,52,-1
 153 201 l 2,53,54
 153 139 153 139 147.5 126.5 c 128,-1,55
 142 114 142 114 117 114 c 2,56,-1
 102 114 l 1,57,-1
 84 114 l 2,58,59
 71 114 71 114 65.5 116.5 c 128,-1,60
 60 119 60 119 55.5 133 c 128,-1,61
 51 147 51 147 50.5 169.5 c 128,-1,62
 50 192 50 192 50 239 c 2,63,-1
 50 307 l 2,64,65
 50 489 50 489 56 495 c 128,-1,66
 62 501 62 501 91 501 c 0,67,68
 116 501 116 501 128 496 c 0,69,70
 138 490 138 490 138 469 c 2,71,-1
 138 448 l 1,72,-1
 159 468 l 2,73,74
 182 488 182 488 207 499 c 0,0,1
EndSplineSet
Validated: 1
EndChar

StartChar: n
Encoding: 110 110 82
Width: 447
GlyphClass: 2
Flags: W
LayerCount: 2
Fore
SplineSet
212 501 m 0,0,1
 235 510 235 510 263 510 c 0,2,3
 327 510 327 510 358 474 c 0,4,5
 382 448 382 448 389 406 c 128,-1,6
 396 364 396 364 396 248 c 2,7,-1
 396 211 l 2,8,9
 396 141 396 141 391 127.5 c 128,-1,10
 386 114 386 114 358 114 c 2,11,-1
 344 114 l 1,12,-1
 330 114 l 2,13,14
 304 114 304 114 298.5 126 c 128,-1,15
 293 138 293 138 293 197 c 2,16,-1
 293 242 l 2,17,18
 293 361 293 361 288 378 c 0,19,20
 283 396 283 396 266.5 410 c 128,-1,21
 250 424 250 424 234 424 c 0,22,23
 220 424 220 424 196 410 c 128,-1,24
 172 396 172 396 162 382 c 0,25,26
 153 369 153 369 153 247 c 0,27,28
 153 159 153 159 152 141.5 c 128,-1,29
 151 124 151 124 144 120 c 0,30,31
 132 115 132 115 100 115 c 0,32,33
 63 115 63 115 57 121 c 0,34,35
 50 128 50 128 50 308 c 128,-1,36
 50 488 50 488 57 495 c 0,37,38
 63 501 63 501 92 501 c 0,39,40
 116 501 116 501 128 496 c 0,41,42
 138 490 138 490 138 470 c 2,43,-1
 138 448 l 1,44,-1
 162 470 l 2,45,46
 187 491 187 491 212 501 c 0,0,1
EndSplineSet
Validated: 1
EndChar

StartChar: o
Encoding: 111 111 83
Width: 482
GlyphClass: 2
Flags: W
LayerCount: 2
Fore
SplineSet
283 435 m 0,0,1
 265 444 265 444 245 444 c 0,2,3
 155 442 155 442 155 325 c 0,4,5
 155 322 155 322 155.5 315 c 128,-1,6
 156 308 156 308 156 305 c 0,7,8
 164 204 164 204 238 204 c 2,9,-1
 246 204 l 1,10,11
 329 210 329 210 329 320 c 0,12,13
 329 337 329 337 328 347 c 0,14,15
 321 415 321 415 283 435 c 0,0,1
189 522 m 0,16,17
 201 525 201 525 237 525 c 2,18,-1
 258 525 l 2,19,20
 306 524 306 524 339 509 c 0,21,22
 390 487 390 487 417 429 c 0,23,24
 426 410 426 410 428 394 c 128,-1,25
 430 378 430 378 430 328 c 0,26,27
 430 277 430 277 428 262 c 128,-1,28
 426 247 426 247 416 225 c 0,29,30
 387 164 387 164 328 137 c 0,31,32
 306 127 306 127 291.5 124.5 c 128,-1,33
 277 122 277 122 237 122 c 0,34,35
 198 122 198 122 183 124.5 c 128,-1,36
 168 127 168 127 149 136 c 0,37,38
 118 150 118 150 101.5 166 c 128,-1,39
 85 182 85 182 71 211 c 0,40,41
 58 236 58 236 56 250 c 128,-1,42
 54 264 54 264 54 318 c 0,43,44
 54 369 54 369 56 384 c 128,-1,45
 58 399 58 399 68 421 c 0,46,47
 105 500 105 500 189 522 c 0,16,17
EndSplineSet
Validated: 1
EndChar

StartChar: p
Encoding: 112 112 84
Width: 463
GlyphClass: 2
Flags: W
LayerCount: 2
Fore
SplineSet
277 426 m 0,0,1
 258 443 258 443 231 443 c 0,2,3
 218 443 218 443 210 439 c 0,4,5
 196 433 196 433 175 412 c 2,6,-1
 153 391 l 1,7,-1
 153 328 l 2,8,9
 154 286 154 286 156 274 c 128,-1,10
 158 262 158 262 165 253 c 0,11,12
 179 236 179 236 199 224 c 128,-1,13
 219 212 219 212 232 212 c 0,14,15
 264 212 264 212 284 242 c 128,-1,16
 304 272 304 272 305 323 c 2,17,-1
 305 330 l 2,18,19
 305 400 305 400 277 426 c 0,0,1
212 522 m 0,20,21
 236 531 236 531 264 531 c 0,22,23
 307 531 307 531 337 513 c 0,24,25
 372 491 372 491 389 453.5 c 128,-1,26
 406 416 406 416 409 353 c 0,27,28
 409 349 409 349 409.5 341 c 128,-1,29
 410 333 410 333 410 329 c 0,30,31
 410 238 410 238 373.5 185 c 128,-1,32
 337 132 337 132 269 126 c 0,33,34
 266 126 266 126 261 125.5 c 128,-1,35
 256 125 256 125 254 125 c 0,36,37
 213 125 213 125 176 154 c 2,38,-1
 153 171 l 1,39,-1
 153 -4 l 1,40,-1
 140 -9 l 2,41,42
 130 -14 130 -14 98 -14 c 0,43,44
 68 -14 68 -14 60 -9 c 0,45,46
 53 -5 53 -5 51.5 33 c 128,-1,47
 50 71 50 71 50 253 c 0,48,49
 50 509 50 509 56 515 c 128,-1,50
 62 521 62 521 91 521 c 0,51,52
 116 521 116 521 128 516 c 0,53,54
 138 510 138 510 138 490 c 2,55,-1
 138 469 l 1,56,-1
 161 490 l 2,57,58
 187 512 187 512 212 522 c 0,20,21
EndSplineSet
Validated: 1
EndChar

StartChar: q
Encoding: 113 113 85
Width: 464
GlyphClass: 2
Flags: W
LayerCount: 2
Fore
SplineSet
271 409 m 0,0,1
 250 423 250 423 228 423 c 0,2,3
 193 423 193 423 171 380 c 0,4,5
 159 358 159 358 159 308 c 0,6,7
 159 257 159 257 171 233 c 0,8,9
 191 192 191 192 227 192 c 0,10,11
 248 192 248 192 271 207 c 0,12,13
 292 220 292 220 306 240 c 0,14,15
 316 259 316 259 316 283 c 0,16,17
 316 301 316 301 315 315 c 0,18,19
 313 363 313 363 307 376.5 c 128,-1,20
 301 390 301 390 271 409 c 0,0,1
159 503 m 0,21,22
 179 511 179 511 205 511 c 0,23,24
 257 511 257 511 305 472 c 2,25,-1
 327 454 l 1,26,-1
 327 472 l 2,27,28
 327 489 327 489 336.5 495 c 128,-1,29
 346 501 346 501 373 501 c 0,30,31
 377 501 377 501 383 501.5 c 128,-1,32
 389 502 389 502 391 502 c 0,33,34
 400 502 400 502 404 499 c 128,-1,35
 408 496 408 496 410.5 479.5 c 128,-1,36
 413 463 413 463 413.5 439 c 128,-1,37
 414 415 414 415 414 363 c 2,38,-1
 414 235 l 1,39,-1
 414 -24 l 1,40,-1
 404 -30 l 2,41,42
 397 -34 397 -34 366 -34 c 0,43,44
 324 -34 324 -34 318 -28 c 0,45,46
 316 -26 316 -26 314 50 c 128,-1,47
 312 126 312 126 312 144 c 0,48,49
 312 145 312 145 310 145 c 0,50,51
 304 145 304 145 285 132 c 0,52,53
 244 104 244 104 199 104 c 0,54,55
 178 104 178 104 155 110 c 0,56,57
 131 118 131 118 105 144.5 c 128,-1,58
 79 171 79 171 69 199 c 0,59,60
 54 242 54 242 54 311 c 0,61,62
 54 344 54 344 58 364 c 0,63,64
 67 413 67 413 95 451.5 c 128,-1,65
 123 490 123 490 159 503 c 0,21,22
EndSplineSet
Validated: 1
EndChar

StartChar: r
Encoding: 114 114 86
Width: 334
GlyphClass: 2
Flags: W
LayerCount: 2
Fore
SplineSet
197 504 m 0,0,1
 208 511 208 511 233 511 c 0,2,3
 261 511 261 511 274 502 c 0,4,5
 282 494 282 494 282 457 c 0,6,7
 282 427 282 427 276 418 c 0,8,9
 270 412 270 412 263 412 c 0,10,11
 257 412 257 412 242 415 c 128,-1,12
 227 418 227 418 221 418 c 0,13,14
 212 418 212 418 201 410 c 0,15,16
 185 398 185 398 170 378 c 2,17,-1
 153 356 l 1,18,-1
 153 241 l 1,19,-1
 153 197 l 2,20,21
 153 138 153 138 147 126 c 128,-1,22
 141 114 141 114 114 114 c 2,23,-1
 102 114 l 1,24,-1
 84 114 l 2,25,26
 71 114 71 114 65.5 116.5 c 128,-1,27
 60 119 60 119 55.5 133 c 128,-1,28
 51 147 51 147 50.5 169.5 c 128,-1,29
 50 192 50 192 50 239 c 2,30,-1
 50 307 l 2,31,32
 50 489 50 489 56 495 c 128,-1,33
 62 501 62 501 91 501 c 0,34,35
 116 501 116 501 128 496 c 0,36,37
 138 490 138 490 138 469 c 2,38,-1
 138 447 l 1,39,-1
 160 472 l 2,40,41
 183 497 183 497 197 504 c 0,0,1
EndSplineSet
Validated: 1
EndChar

StartChar: s
Encoding: 115 115 87
Width: 376
GlyphClass: 2
Flags: W
LayerCount: 2
Fore
SplineSet
136 502 m 0,0,1
 162 511 162 511 197 511 c 0,2,3
 228 511 228 511 255 504 c 0,4,5
 287 496 287 496 295.5 486 c 128,-1,6
 304 476 304 476 304 449 c 0,7,8
 304 420 304 420 298 416 c 1,9,-1
 297 416 l 2,10,11
 296 415 296 415 295 415 c 0,12,13
 282 415 282 415 266 424 c 0,14,15
 236 436 236 436 200 436 c 0,16,17
 170 436 170 436 160 427 c 0,18,19
 149 418 149 418 149 399 c 0,20,21
 149 384 149 384 158 376 c 0,22,23
 166 368 166 368 217 347 c 0,24,25
 267 327 267 327 285 314 c 0,26,27
 324 284 324 284 324 229 c 0,28,29
 324 185 324 185 295 151 c 0,30,31
 257 108 257 108 172 107 c 0,32,33
 88 107 88 107 62 130 c 0,34,35
 51 140 51 140 51 171 c 0,36,37
 51 206 51 206 62 206 c 0,38,39
 68 206 68 206 94 194 c 0,40,41
 124 180 124 180 163 179 c 0,42,43
 189 179 189 179 197 181 c 128,-1,44
 205 183 205 183 214 193 c 0,45,46
 225 205 225 205 225 219 c 0,47,48
 225 248 225 248 176 266 c 0,49,50
 110 291 110 291 81 320 c 128,-1,51
 52 349 52 349 52 391 c 0,52,53
 52 402 52 402 53 407 c 0,54,55
 60 476 60 476 136 502 c 0,0,1
EndSplineSet
Validated: 1
EndChar

StartChar: t
Encoding: 116 116 88
Width: 358
GlyphClass: 2
Flags: W
LayerCount: 2
Fore
SplineSet
120 593 m 0,0,1
 129 599 129 599 165 599 c 0,2,3
 194 599 194 599 204 594 c 0,4,5
 214 588 214 588 214 545 c 2,6,-1
 214 501 l 1,7,-1
 254 501 l 2,8,9
 294 501 294 501 300 495 c 128,-1,10
 306 489 306 489 306 462 c 0,11,12
 306 440 306 440 301 428 c 0,13,14
 295 419 295 419 255 419 c 2,15,-1
 214 419 l 1,16,-1
 214 212 l 1,17,-1
 227 198 l 2,18,19
 237 188 237 188 248 188 c 0,20,21
 256 188 256 188 262 189 c 0,22,23
 287 194 287 194 293 194 c 0,24,25
 302 194 302 194 303.5 188.5 c 128,-1,26
 305 183 305 183 306 162 c 2,27,-1
 306 152 l 2,28,29
 306 128 306 128 296.5 119.5 c 128,-1,30
 287 111 287 111 258 107 c 0,31,32
 236 105 236 105 226 105 c 0,33,34
 137 105 137 105 116 181 c 0,35,36
 111 198 111 198 111 309 c 2,37,-1
 111 419 l 1,38,-1
 89 419 l 2,39,40
 67 419 67 419 60.5 426.5 c 128,-1,41
 54 434 54 434 54 458 c 0,42,43
 54 488 54 488 58.5 494.5 c 128,-1,44
 63 501 63 501 85 501 c 2,45,-1
 111 501 l 1,46,-1
 111 545 l 2,47,48
 111 588 111 588 120 593 c 0,0,1
EndSplineSet
Validated: 1
EndChar

StartChar: u
Encoding: 117 117 89
Width: 446
GlyphClass: 2
Flags: W
LayerCount: 2
Fore
SplineSet
60 501 m 0,0,1
 68 506 68 506 101 506 c 0,2,3
 136 506 136 506 144 501 c 0,4,5
 151 497 151 497 152.5 479 c 128,-1,6
 154 461 154 461 154 381 c 0,7,8
 154 264 154 264 159 246 c 0,9,10
 164 226 164 226 179.5 211.5 c 128,-1,11
 195 197 195 197 211 197 c 0,12,13
 237 197 237 197 272 229 c 2,14,-1
 293 251 l 1,15,-1
 293 373 l 1,16,-1
 293 410 l 2,17,18
 293 478 293 478 298.5 492 c 128,-1,19
 304 506 304 506 330 506 c 2,20,-1
 345 506 l 1,21,-1
 365 506 l 2,22,23
 387 506 387 506 391.5 488.5 c 128,-1,24
 396 471 396 471 396 392 c 2,25,-1
 396 311 l 1,26,-1
 396 231 l 2,27,28
 396 154 396 154 392 137 c 128,-1,29
 388 120 388 120 371 120 c 2,30,-1
 355 120 l 2,31,32
 327 120 327 120 318 126 c 128,-1,33
 309 132 309 132 309 151 c 2,34,-1
 309 172 l 1,35,-1
 285 152 l 2,36,37
 240 115 240 115 195 111 c 1,38,-1
 184 111 l 2,39,40
 159 111 159 111 132.5 118.5 c 128,-1,41
 106 126 106 126 93 137 c 0,42,43
 67 160 67 160 59 206.5 c 128,-1,44
 51 253 51 253 51 376 c 0,45,46
 51 457 51 457 52.5 477 c 128,-1,47
 54 497 54 497 60 501 c 0,0,1
EndSplineSet
Validated: 1
EndChar

StartChar: v
Encoding: 118 118 90
Width: 477
GlyphClass: 2
Flags: W
LayerCount: 2
Fore
SplineSet
61 503 m 0,0,1
 68 506 68 506 93 506 c 0,2,3
 140 506 140 506 148 500 c 128,-1,4
 156 494 156 494 191 385 c 0,5,6
 240 229 240 229 242 229 c 2,7,-1
 243 229 l 2,8,9
 244 230 244 230 286 362 c 128,-1,10
 328 494 328 494 336 500 c 0,11,12
 345 506 345 506 387 506 c 0,13,14
 410 506 410 506 417 503 c 0,15,16
 425 500 425 500 425 484 c 0,17,18
 425 469 425 469 366 298 c 0,19,20
 307 128 307 128 298 124 c 0,21,22
 286 120 286 120 239 120 c 2,23,-1
 222 120 l 2,24,25
 188 120 188 120 178 129 c 0,26,27
 169 137 169 137 111.5 302 c 128,-1,28
 54 467 54 467 54 486 c 0,29,30
 54 501 54 501 61 503 c 0,0,1
EndSplineSet
Validated: 1
EndChar

StartChar: w
Encoding: 119 119 91
Width: 688
GlyphClass: 2
Flags: W
LayerCount: 2
Fore
SplineSet
61 497 m 0,0,1
 68 501 68 501 97 501 c 0,2,3
 138 501 138 501 148 495 c 0,4,5
 155 489 155 489 191 362 c 0,6,7
 225 236 225 236 227 234 c 0,8,9
 227 233 227 233 228 233 c 0,10,11
 233 233 233 233 265 362 c 0,12,13
 297 489 297 489 306 495 c 0,14,15
 314 501 314 501 351 501 c 0,16,17
 381 501 381 501 389 496 c 0,18,19
 395 492 395 492 457 267 c 0,20,21
 466 233 466 233 471 233 c 0,22,23
 472 233 472 233 472 234 c 0,24,25
 474 237 474 237 508 364 c 0,26,27
 540 490 540 490 548 495 c 0,28,29
 556 501 556 501 598 501 c 0,30,31
 620 501 620 501 628 498 c 128,-1,32
 636 495 636 495 636 482 c 0,33,34
 636 470 636 470 587 301 c 0,35,36
 536 132 536 132 527 123 c 0,37,38
 514 113 514 113 472 113 c 0,39,40
 429 113 429 113 416 123 c 0,41,42
 409 129 409 129 392.5 184.5 c 128,-1,43
 376 240 376 240 361 291.5 c 128,-1,44
 346 343 346 343 343 343 c 0,45,46
 341 343 341 343 312 233 c 0,47,48
 285 127 285 127 277 121 c 0,49,50
 266 114 266 114 222 114 c 0,51,52
 176 114 176 114 166 121 c 0,53,54
 159 126 159 126 106.5 296 c 128,-1,55
 54 466 54 466 54 483 c 0,56,57
 54 495 54 495 61 497 c 0,0,1
EndSplineSet
Validated: 1
EndChar

StartChar: x
Encoding: 120 120 92
Width: 454
GlyphClass: 2
Flags: W
LayerCount: 2
Fore
SplineSet
63 497 m 0,0,1
 69 501 69 501 112 501 c 2,2,-1
 125 501 l 2,3,4
 153 501 153 501 163 492 c 128,-1,5
 173 483 173 483 192 444 c 0,6,7
 216 397 216 397 222 389 c 2,8,-1
 233 372 l 1,9,-1
 244 391 l 1,10,11
 297 491 297 491 306 497 c 0,12,13
 311 501 311 501 349 501 c 0,14,15
 380 501 380 501 388 498 c 128,-1,16
 396 495 396 495 396 490 c 0,17,18
 396 482 396 482 350 402 c 0,19,20
 304 319 304 319 304 315 c 0,21,22
 304 310 304 310 353 223 c 128,-1,23
 402 136 402 136 402 128 c 0,24,25
 402 122 402 122 393 118 c 0,26,27
 386 115 386 115 348 115 c 128,-1,28
 310 115 310 115 302 118 c 0,29,30
 293 123 293 123 259 185 c 0,31,32
 225 248 225 248 221 248 c 128,-1,33
 217 248 217 248 185 187 c 0,34,35
 153 125 153 125 143 119 c 0,36,37
 133 115 133 115 105 115 c 2,38,-1
 93 115 l 2,39,40
 52 118 52 118 52 126 c 0,41,42
 52 138 52 138 99 221 c 0,43,44
 149 308 149 308 149 312 c 0,45,46
 149 320 149 320 115 377 c 0,47,48
 82 433 82 433 82 438 c 0,49,50
 82 440 82 440 69 460 c 0,51,52
 57 480 57 480 57 488 c 0,53,54
 57 494 57 494 63 497 c 0,0,1
EndSplineSet
Validated: 1
EndChar

StartChar: y
Encoding: 121 121 93
Width: 477
GlyphClass: 2
Flags: W
LayerCount: 2
Fore
SplineSet
54 480 m 0,0,1
 54 494 54 494 67.5 497.5 c 128,-1,2
 81 501 81 501 109 501 c 0,3,4
 134 501 134 501 141.5 499 c 128,-1,5
 149 497 149 497 154 490 c 0,6,7
 158 484 158 484 198.5 371.5 c 128,-1,8
 239 259 239 259 242 254 c 0,9,10
 243 250 243 250 246 250 c 0,11,12
 251 250 251 250 280 342 c 0,13,14
 311 437 311 437 318 460 c 0,15,16
 326 488 326 488 335 494.5 c 128,-1,17
 344 501 344 501 372 501 c 0,18,19
 425 501 425 501 425 479 c 0,20,21
 425 465 425 465 269 11 c 0,22,23
 258 -21 258 -21 245 -28 c 0,24,25
 229 -35 229 -35 198 -35 c 0,26,27
 166 -35 166 -35 155 -28 c 0,28,29
 149 -23 149 -23 149 -19 c 0,30,31
 149 -13 149 -13 162 22 c 0,32,33
 181 72 181 72 187 87 c 0,34,35
 193 100 193 100 193 107 c 0,36,37
 193 112 193 112 186 126 c 0,38,39
 175 148 175 148 114.5 310 c 128,-1,40
 54 472 54 472 54 480 c 0,0,1
EndSplineSet
Validated: 1
EndChar

StartChar: z
Encoding: 122 122 94
Width: 381
GlyphClass: 2
Flags: W
LayerCount: 2
Fore
SplineSet
65 497 m 128,-1,1
 69 501 69 501 163 501 c 0,2,3
 307 501 307 501 313 495 c 128,-1,4
 319 489 319 489 319 460 c 0,5,6
 319 435 319 435 304.5 408 c 128,-1,7
 290 381 290 381 220 274 c 2,8,-1
 172 199 l 1,9,-1
 244 198 l 2,10,11
 307 196 307 196 318.5 191 c 128,-1,12
 330 186 330 186 330 157 c 2,13,-1
 330 148 l 2,14,15
 330 123 330 123 313.5 118.5 c 128,-1,16
 297 114 297 114 211 114 c 2,17,-1
 193 114 l 1,18,-1
 67 114 l 1,19,-1
 59 127 l 2,20,21
 52 137 52 137 52 151 c 0,22,23
 52 160 52 160 53 166 c 0,24,25
 55 183 55 183 68.5 207.5 c 128,-1,26
 82 232 82 232 127 302 c 0,27,28
 142 325 142 325 162 355 c 128,-1,29
 182 385 182 385 191 399 c 128,-1,30
 200 413 200 413 200 414 c 0,31,32
 200 419 200 419 138 419 c 0,33,34
 74 419 74 419 68 425 c 0,35,36
 61 432 61 432 61 471 c 0,37,0
 61 493 61 493 65 497 c 128,-1,1
EndSplineSet
Validated: 1
EndChar

StartChar: braceleft
Encoding: 123 123 95
Width: 346
GlyphClass: 2
Flags: W
LayerCount: 2
Fore
SplineSet
184 685 m 0,0,1
 206 697 206 697 241 697 c 0,2,3
 258 697 258 697 273 692 c 0,4,5
 290 686 290 686 290 658 c 0,6,7
 290 646 290 646 288 639 c 0,8,9
 286 627 286 627 282 623.5 c 128,-1,10
 278 620 278 620 262 618 c 0,11,12
 239 614 239 614 234 609 c 0,13,14
 227 602 227 602 224 519 c 0,15,16
 221 433 221 433 208 405 c 0,17,18
 195 375 195 375 171 361 c 2,19,-1
 148 346 l 1,20,-1
 165 337 l 2,21,22
 198 322 198 322 215 277 c 0,23,24
 220 264 220 264 224 167 c 0,25,26
 227 89 227 89 232 74 c 128,-1,27
 237 59 237 59 262 59 c 0,28,29
 278 59 278 59 283.5 53 c 128,-1,30
 289 47 289 47 289 26 c 2,31,-1
 289 18 l 2,32,33
 288 -4 288 -4 278 -11.5 c 128,-1,34
 268 -19 268 -19 238 -19 c 0,35,36
 160 -18 160 -18 137 49 c 0,37,38
 133 58 133 58 129 152.5 c 128,-1,39
 125 247 125 247 123 254 c 0,40,41
 121 271 121 271 107.5 286.5 c 128,-1,42
 94 302 94 302 80 305 c 0,43,44
 54 310 54 310 54 346 c 0,45,46
 54 366 54 366 59 374.5 c 128,-1,47
 64 383 64 383 83 391 c 0,48,49
 110 403 110 403 118 427 c 128,-1,50
 126 451 126 451 128 529 c 0,51,52
 129 589 129 589 131.5 605.5 c 128,-1,53
 134 622 134 622 145 643 c 0,54,55
 154 661 154 661 162 669 c 128,-1,56
 170 677 170 677 184 685 c 0,0,1
EndSplineSet
Validated: 1
EndChar

StartChar: bar
Encoding: 124 124 96
Width: 198
GlyphClass: 2
Flags: W
LayerCount: 2
Fore
SplineSet
57 701 m 0,0,1
 63 707 63 707 98 707 c 0,2,3
 121 707 121 707 128.5 704.5 c 128,-1,4
 136 702 136 702 141 694 c 0,5,6
 148 685 148 685 148 492 c 2,7,-1
 148 332 l 2,8,9
 146 -19 146 -19 142 -22 c 0,10,11
 133 -31 133 -31 78 -31 c 0,12,13
 60 -31 60 -31 57 -28 c 0,14,15
 50 -21 50 -21 50 336 c 0,16,17
 50 694 50 694 57 701 c 0,0,1
EndSplineSet
Validated: 1
EndChar

StartChar: braceright
Encoding: 125 125 97
Width: 347
GlyphClass: 2
Flags: W
LayerCount: 2
Fore
SplineSet
56 653 m 0,0,1
 56 678 56 678 66.5 687 c 128,-1,2
 77 696 77 696 104 696 c 0,3,4
 157 696 157 696 184 669 c 0,5,6
 204 648 204 648 210.5 619 c 128,-1,7
 217 590 217 590 220 513 c 0,8,9
 222 450 222 450 224.5 433 c 128,-1,10
 227 416 227 416 236 406 c 0,11,12
 248 393 248 393 267 387 c 0,13,14
 293 381 293 381 293 351 c 0,15,16
 293 347 293 347 291 333 c 0,17,18
 289 321 289 321 284.5 315.5 c 128,-1,19
 280 310 280 310 266 303 c 0,20,21
 239 289 239 289 231.5 267 c 128,-1,22
 224 245 224 245 221 166 c 0,23,24
 217 87 217 87 210 57 c 128,-1,25
 203 27 203 27 184 8 c 0,26,27
 157 -19 157 -19 104 -19 c 0,28,29
 56 -19 56 -19 56 21 c 0,30,31
 56 42 56 42 62 50.5 c 128,-1,32
 68 59 68 59 84 59 c 0,33,34
 110 59 110 59 116.5 78.5 c 128,-1,35
 123 98 123 98 125 181 c 0,36,37
 127 256 127 256 138 279 c 0,38,39
 158 322 158 322 187 339 c 2,40,-1
 202 348 l 1,41,-1
 183 354 l 2,42,43
 166 359 166 359 150 377 c 128,-1,44
 134 395 134 395 129 415 c 0,45,46
 123 437 123 437 123 508 c 0,47,48
 123 580 123 580 116 599.5 c 128,-1,49
 109 619 109 619 84 619 c 0,50,51
 68 619 68 619 62 626 c 128,-1,52
 56 633 56 633 56 653 c 0,0,1
EndSplineSet
Validated: 1
EndChar

StartChar: asciitilde
Encoding: 126 126 98
Width: 478
GlyphClass: 2
Flags: W
LayerCount: 2
Fore
SplineSet
116 577 m 0,0,1
 140 588 140 588 169 588 c 0,2,3
 195 588 195 588 216 579 c 0,4,5
 239 568 239 568 268 538 c 0,6,7
 298 506 298 506 310 506 c 0,8,9
 324 506 324 506 336 519.5 c 128,-1,10
 348 533 348 533 348 549 c 0,11,12
 348 566 348 566 356 572 c 128,-1,13
 364 578 364 578 387 578 c 0,14,15
 409 578 409 578 416.5 573 c 128,-1,16
 424 568 424 568 424 552 c 0,17,18
 424 541 424 541 423 534 c 0,19,20
 418 489 418 489 392.5 459 c 128,-1,21
 367 429 367 429 328 425 c 0,22,23
 321 424 321 424 309 424 c 0,24,25
 284 424 284 424 264 434.5 c 128,-1,26
 244 445 244 445 218 471 c 0,27,28
 184 505 184 505 168 505 c 0,29,30
 158 505 158 505 148 498 c 0,31,32
 138 492 138 492 133 466 c 0,33,34
 129 441 129 441 124 438 c 0,35,36
 119 434 119 434 99 434 c 0,37,38
 69 434 69 434 61 441 c 0,39,40
 54 447 54 447 54 456 c 0,41,42
 54 464 54 464 57 486 c 0,43,44
 67 552 67 552 116 577 c 0,0,1
EndSplineSet
Validated: 1
EndChar

StartChar: Ccircumflex
Encoding: 264 264 100
Width: 487
GlyphClass: 3
Flags: W
LayerCount: 2
Fore
SplineSet
231 790 m 0,0,1
 243 794 243 794 279 794 c 2,2,-1
 294 794 l 2,3,4
 314 794 314 794 327 783.5 c 128,-1,5
 340 773 340 773 388 721 c 0,6,7
 419 688 419 688 419 680 c 0,8,9
 419 671 419 671 375 671 c 2,10,-1
 339 671 l 1,11,12
 312 702 312 702 276 738 c 1,13,14
 266 728 266 728 246 706 c 128,-1,15
 226 684 226 684 216 674 c 1,16,-1
 175 674 l 2,17,18
 133 674 133 674 133 680 c 0,19,20
 133 687 133 687 177.5 736.5 c 128,-1,21
 222 786 222 786 231 790 c 0,0,1
225 638 m 0,22,23
 249 644 249 644 279 644 c 0,24,25
 369 644 369 644 416 607 c 0,26,27
 427 598 427 598 429.5 591 c 128,-1,28
 432 584 432 584 432 559 c 0,29,30
 432 512 432 512 418 512 c 0,31,32
 412 512 412 512 407 516 c 0,33,34
 351 552 351 552 313 556 c 0,35,36
 307 557 307 557 297 557 c 0,37,38
 220 557 220 557 184 479 c 0,39,40
 173 455 173 455 171 440 c 128,-1,41
 169 425 169 425 169 372 c 2,42,-1
 169 296 l 1,43,-1
 187 261 l 2,44,45
 204 227 204 227 230 210 c 0,46,47
 247 199 247 199 258.5 196.5 c 128,-1,48
 270 194 270 194 300 194 c 128,-1,49
 330 194 330 194 342 197 c 128,-1,50
 354 200 354 200 382 214 c 0,51,52
 416 231 416 231 427 231 c 2,53,-1
 428 231 l 2,54,55
 433 228 433 228 433 205 c 2,56,-1
 433 188 l 2,57,58
 431 158 431 158 429 151.5 c 128,-1,59
 427 145 427 145 414 137 c 0,60,61
 366 105 366 105 277 105 c 0,62,63
 248 105 248 105 227 109 c 0,64,65
 108 133 108 133 65 257 c 0,66,67
 52 295 52 295 51 362 c 0,68,69
 51 424 51 424 60 460 c 0,70,71
 98 602 98 602 225 638 c 0,22,23
EndSplineSet
Validated: 1
EndChar

StartChar: ccircumflex
Encoding: 265 265 101
Width: 398
GlyphClass: 3
Flags: W
LayerCount: 2
Fore
SplineSet
168 676 m 128,-1,1
 178 681 178 681 213 681 c 2,2,-1
 223 681 l 2,3,4
 247 681 247 681 259 670 c 128,-1,5
 271 659 271 659 306 607 c 0,6,7
 331 570 331 570 331 563 c 0,8,9
 331 553 331 553 292 553 c 2,10,-1
 263 553 l 1,11,-1
 237 589 l 2,12,13
 212 625 212 625 209 625 c 0,14,15
 207 625 207 625 186 591 c 0,16,17
 170 568 170 568 160.5 560.5 c 128,-1,18
 151 553 151 553 134 553 c 0,19,20
 123 553 123 553 116 554 c 0,21,22
 90 555 90 555 90 564 c 128,-1,23
 90 573 90 573 124 622 c 128,-1,0
 158 671 158 671 168 676 c 128,-1,1
175 505 m 0,24,25
 195 511 195 511 220 511 c 0,26,27
 254 511 254 511 285.5 502 c 128,-1,28
 317 493 317 493 332 478 c 0,29,30
 341 469 341 469 341 431 c 0,31,32
 341 410 341 410 337 401 c 0,33,34
 334 393 334 393 324 393 c 0,35,36
 316 393 316 393 310 400 c 0,37,38
 302 410 302 410 277.5 418.5 c 128,-1,39
 253 427 253 427 235 427 c 2,40,-1
 229 427 l 1,41,42
 188 423 188 423 169 386 c 0,43,44
 157 363 157 363 157 308 c 0,45,46
 157 262 157 262 164.5 239 c 128,-1,47
 172 216 172 216 192 201 c 0,48,49
 209 188 209 188 233 188 c 0,50,51
 270 188 270 188 311 216 c 0,52,53
 330 230 330 230 336 224 c 0,54,55
 345 215 345 215 345 177 c 0,56,57
 345 157 345 157 341 149 c 0,58,59
 333 129 333 129 297.5 117 c 128,-1,60
 262 105 262 105 219 105 c 0,61,62
 172 105 172 105 141 120 c 0,63,64
 87 146 87 146 67 201 c 0,65,66
 52 241 52 241 52 316 c 0,67,68
 52 349 52 349 57 371 c 0,69,70
 85 479 85 479 175 505 c 0,24,25
EndSplineSet
Validated: 1
EndChar

StartChar: Gcircumflex
Encoding: 284 284 102
Width: 538
GlyphClass: 3
Flags: W
LayerCount: 2
Fore
SplineSet
249 795 m 0,0,1
 255 798 255 798 283 798 c 2,2,-1
 299 798 l 2,3,4
 329 797 329 797 336.5 794.5 c 128,-1,5
 344 792 344 792 355 779 c 0,6,7
 378 753 378 753 404 726 c 0,8,9
 435 691 435 691 435 685 c 128,-1,10
 435 679 435 679 392 679 c 2,11,-1
 350 679 l 1,12,-1
 330 702 l 2,13,14
 306 730 306 730 303 735 c 0,15,16
 298 740 298 740 296 740 c 0,17,18
 291 740 291 740 261 710 c 2,19,-1
 227 676 l 1,20,-1
 189 677 l 2,21,22
 151 678 151 678 151 685 c 128,-1,23
 151 692 151 692 195.5 741 c 128,-1,24
 240 790 240 790 249 795 c 0,0,1
243 643 m 0,25,26
 274 650 274 650 314 650 c 0,27,28
 397 650 397 650 453 622 c 0,29,30
 475 611 475 611 481.5 599.5 c 128,-1,31
 488 588 488 588 488 559 c 0,32,33
 488 536 488 536 486 527.5 c 128,-1,34
 484 519 484 519 476 519 c 128,-1,35
 468 519 468 519 438 533 c 0,36,37
 374 563 374 563 326 563 c 0,38,39
 324 563 324 563 318 562.5 c 128,-1,40
 312 562 312 562 309 562 c 0,41,42
 210 554 210 554 170 468 c 0,43,44
 160 446 160 446 158 432 c 128,-1,45
 156 418 156 418 156 377 c 0,46,47
 156 333 156 333 158.5 320 c 128,-1,48
 161 307 161 307 174 281 c 0,49,50
 217 197 217 197 311 197 c 0,51,52
 314 197 314 197 319 197.5 c 128,-1,53
 324 198 324 198 326 198 c 0,54,55
 366 202 366 202 373 211 c 128,-1,56
 380 220 380 220 380 272 c 2,57,-1
 380 330 l 1,58,59
 363 330 363 330 328 332 c 128,-1,60
 293 334 293 334 275 334 c 1,61,-1
 270 353 l 2,62,63
 268 359 268 359 268 372 c 0,64,65
 268 386 268 386 270 392 c 2,66,-1
 275 411 l 1,67,-1
 372 412 l 1,68,-1
 416 412 l 2,69,70
 472 412 472 412 479 405 c 0,71,72
 486 399 486 399 487 380.5 c 128,-1,73
 488 362 488 362 488 276 c 2,74,-1
 488 235 l 2,75,76
 488 161 488 161 478 147 c 0,77,78
 471 137 471 137 432 126 c 0,79,80
 429 125 429 125 426 124 c 0,81,82
 381 112 381 112 315 112 c 0,83,84
 248 112 248 112 213 124 c 0,85,86
 154 146 154 146 116 186 c 0,87,88
 81 224 81 224 66 268 c 128,-1,89
 51 312 51 312 51 379 c 2,90,-1
 51 401 l 2,91,92
 52 449 52 449 55 464 c 128,-1,93
 58 479 58 479 72 508 c 0,94,95
 89 545 89 545 115 573 c 0,96,97
 136 595 136 595 172.5 615 c 128,-1,98
 209 635 209 635 243 643 c 0,25,26
EndSplineSet
Validated: 1
Ligature2: "'liga' Required Ligatures lookup 0 subtable" G x
Ligature2: "'liga' Required Ligatures lookup 0 subtable" G X
EndChar

StartChar: gcircumflex
Encoding: 285 285 103
Width: 473
GlyphClass: 3
Flags: W
LayerCount: 2
Fore
SplineSet
198 681 m 0,0,1
 206 686 206 686 239 686 c 0,2,3
 274 686 274 686 281 681 c 0,4,5
 292 675 292 675 326.5 625.5 c 128,-1,6
 361 576 361 576 361 566 c 0,7,8
 361 558 361 558 327 558 c 0,9,10
 301 558 301 558 292 564.5 c 128,-1,11
 283 571 283 571 258 606 c 2,12,-1
 241 631 l 1,13,-1
 219 601 l 2,14,15
 194 568 194 568 189 564 c 0,16,17
 182 558 182 558 154 558 c 0,18,19
 118 558 118 558 118 566 c 0,20,21
 118 575 118 575 153 625 c 128,-1,22
 188 675 188 675 198 681 c 0,0,1
295 127 m 0,23,24
 282 136 282 136 233 139 c 2,25,-1
 185 141 l 1,26,-1
 171 125 l 2,27,28
 152 101 152 101 152 83 c 0,29,30
 152 78 152 78 154 70 c 0,31,32
 158 56 158 56 180 47 c 128,-1,33
 202 38 202 38 230 38 c 128,-1,34
 258 38 258 38 279 47 c 0,35,36
 312 61 312 61 312 94 c 0,37,38
 312 113 312 113 295 127 c 0,23,24
260 437 m 0,39,40
 247 444 247 444 225 444 c 0,41,42
 210 444 210 444 201 440 c 0,43,44
 172 428 172 428 168 389 c 0,45,46
 168 386 168 386 167.5 382 c 128,-1,47
 167 378 167 378 167 377 c 0,48,49
 167 362 167 362 181 347 c 0,50,51
 200 326 200 326 229 326 c 0,52,53
 256 326 256 326 274 345 c 0,54,55
 286 357 286 357 286 384 c 0,56,57
 286 407 286 407 280.5 418 c 128,-1,58
 275 429 275 429 260 437 c 0,39,40
169 507 m 0,59,60
 193 515 193 515 210 515 c 0,61,62
 215 515 215 515 237 513 c 0,63,64
 242 513 242 513 345 507 c 2,65,-1
 412 504 l 1,66,-1
 417 487 l 2,67,68
 419 482 419 482 419 470 c 0,69,70
 419 457 419 457 417 451 c 0,71,72
 413 437 413 437 409.5 434 c 128,-1,73
 406 431 406 431 389 430 c 2,74,-1
 365 428 l 1,75,-1
 373 406 l 2,76,77
 377 395 377 395 377 380 c 0,78,79
 377 342 377 342 352 305 c 0,80,81
 336 282 336 282 302 268 c 128,-1,82
 268 254 268 254 231 254 c 0,83,84
 211 254 211 254 195 258 c 0,85,86
 182 262 182 262 174 262 c 0,87,88
 168 262 168 262 164 256 c 0,89,90
 157 246 157 246 157 240 c 0,91,92
 157 236 157 236 164 225 c 0,93,94
 171 216 171 216 243 211 c 0,95,96
 323 205 323 205 333 202 c 0,97,98
 371 192 371 192 392.5 164 c 128,-1,99
 414 136 414 136 414 101 c 0,100,101
 414 56 414 56 379 21 c 0,102,103
 336 -22 336 -22 244 -28 c 0,104,105
 235 -29 235 -29 218 -29 c 0,106,107
 148 -29 148 -29 105.5 -7 c 128,-1,108
 63 15 63 15 56 56 c 0,109,110
 55 60 55 60 55 69 c 0,111,112
 55 104 55 104 85 137 c 2,113,-1
 105 159 l 1,114,-1
 93 170 l 2,115,116
 71 192 71 192 71 224 c 0,117,118
 71 232 71 232 72 235 c 0,119,120
 76 253 76 253 90 276 c 2,121,-1
 105 300 l 1,122,-1
 93 324 l 2,123,124
 80 349 80 349 80 381 c 0,125,126
 80 450 80 450 125 484 c 0,127,128
 141 497 141 497 169 507 c 0,59,60
EndSplineSet
Validated: 1
Ligature2: "'liga' Required Ligatures lookup 0 subtable" g x
EndChar

StartChar: Hcircumflex
Encoding: 292 292 104
Width: 507
GlyphClass: 3
Flags: W
LayerCount: 2
Fore
SplineSet
204 786 m 0,0,1
 217 796 217 796 264 796 c 0,2,3
 282 796 282 796 294 792 c 0,4,5
 300 789 300 789 348 739 c 128,-1,6
 396 689 396 689 396 678 c 0,7,8
 396 676 396 676 395 676 c 0,9,10
 388 671 388 671 352 671 c 2,11,-1
 316 671 l 1,12,13
 289 702 289 702 253 738 c 1,14,15
 211 694 211 694 191 671 c 1,16,-1
 152 671 l 2,17,18
 109 671 109 671 109 677 c 0,19,20
 109 684 109 684 149 730 c 128,-1,21
 189 776 189 776 204 786 c 0,0,1
62 630 m 2,22,23
 73 634 73 634 103 634 c 0,24,25
 134 634 134 634 145 630 c 2,26,-1
 158 625 l 1,27,-1
 158 434 l 1,28,-1
 255 435 l 1,29,-1
 352 437 l 1,30,-1
 353 532 l 2,31,32
 355 627 355 627 357 629 c 0,33,34
 362 634 362 634 405 634 c 0,35,36
 440 634 440 634 447 630 c 128,-1,37
 454 626 454 626 455.5 604.5 c 128,-1,38
 457 583 457 583 457 473 c 2,39,-1
 457 375 l 1,40,-1
 457 277 l 2,41,42
 457 167 457 167 455.5 145 c 128,-1,43
 454 123 454 123 447 119 c 0,44,45
 437 115 437 115 411 115 c 0,46,47
 363 115 363 115 356 122 c 0,48,49
 352 126 352 126 352 232 c 2,50,-1
 352 339 l 1,51,52
 319 340 319 340 254.5 340 c 128,-1,53
 190 340 190 340 158 341 c 1,54,-1
 158 234 l 1,55,-1
 158 201 l 2,56,57
 158 138 158 138 152.5 126 c 128,-1,58
 147 114 147 114 118 114 c 2,59,-1
 104 114 l 2,60,61
 99 114 99 114 91 113.5 c 128,-1,62
 83 113 83 113 80 113 c 0,63,64
 59 113 59 113 54.5 135.5 c 128,-1,65
 50 158 50 158 50 256 c 2,66,-1
 50 375 l 1,67,-1
 50 625 l 1,68,-1
 62 630 l 2,22,23
EndSplineSet
Validated: 1
Ligature2: "'liga' Required Ligatures lookup 0 subtable" H x
Ligature2: "'liga' Required Ligatures lookup 0 subtable" H X
EndChar

StartChar: hcircumflex
Encoding: 293 293 105
Width: 540
GlyphClass: 3
Flags: W
LayerCount: 2
Fore
SplineSet
113 750 m 2,0,-1
 156 795 l 1,1,-1
 238 795 l 1,2,-1
 292 740 l 2,3,4
 343 687 343 687 343 679 c 0,5,6
 343 674 343 674 300 672 c 2,7,-1
 260 671 l 1,8,9
 240 694 240 694 198 738 c 1,10,11
 162 702 162 702 135 671 c 1,12,-1
 98 671 l 2,13,14
 61 671 61 671 58 676 c 0,15,16
 57 677 57 677 57 680 c 0,17,18
 57 690 57 690 113 750 c 2,0,-1
152 629 m 0,19,20
 161 635 161 635 197 635 c 0,21,22
 226 635 226 635 236 630 c 0,23,24
 243 626 243 626 244.5 612.5 c 128,-1,25
 246 599 246 599 246 545 c 2,26,-1
 246 465 l 1,27,-1
 272 483 l 2,28,29
 298 501 298 501 320 507 c 0,30,31
 333 511 333 511 352 511 c 0,32,33
 416 511 416 511 450 474 c 0,34,35
 473 448 473 448 480.5 404 c 128,-1,36
 488 360 488 360 488 242 c 2,37,-1
 488 197 l 2,38,39
 488 138 488 138 482.5 126 c 128,-1,40
 477 114 477 114 451 114 c 2,41,-1
 437 114 l 1,42,-1
 422 114 l 2,43,44
 396 114 396 114 390.5 128 c 128,-1,45
 385 142 385 142 385 209 c 2,46,-1
 385 246 l 2,47,48
 385 346 385 346 380.5 371.5 c 128,-1,49
 376 397 376 397 357 412 c 0,50,51
 341 423 341 423 326 423 c 0,52,53
 309 423 309 423 286 409 c 0,54,55
 269 398 269 398 263 393.5 c 128,-1,56
 257 389 257 389 252 372 c 128,-1,57
 247 355 247 355 246.5 335.5 c 128,-1,58
 246 316 246 316 246 265 c 2,59,-1
 246 247 l 2,60,61
 246 162 246 162 244.5 143 c 128,-1,62
 243 124 243 124 236 120 c 0,63,64
 224 115 224 115 192 115 c 0,65,66
 155 115 155 115 149 121 c 128,-1,67
 143 127 143 127 143 376 c 0,68,69
 143 554 143 554 144 589.5 c 128,-1,70
 145 625 145 625 152 629 c 0,19,20
EndSplineSet
Validated: 1
Ligature2: "'liga' Required Ligatures lookup 0 subtable" h x
EndChar

StartChar: Jcircumflex
Encoding: 308 308 106
Width: 408
GlyphClass: 3
Flags: W
LayerCount: 2
Fore
SplineSet
115 742 m 2,0,-1
 166 795 l 1,1,-1
 245 795 l 1,2,-1
 279 765 l 2,3,4
 352 697 352 697 352 683 c 1,5,-1
 351 681 l 2,6,7
 347 677 347 677 308 673 c 2,8,-1
 271 670 l 1,9,10
 250 692 250 692 208 738 c 1,11,12
 197 727 197 727 176 704.5 c 128,-1,13
 155 682 155 682 145 671 c 1,14,-1
 106 672 l 2,15,16
 67 673 67 673 67 681 c 0,17,18
 67 690 67 690 115 742 c 2,0,-1
173 630 m 0,19,20
 179 635 179 635 217 635 c 0,21,22
 254 635 254 635 262 630 c 0,23,24
 269 626 269 626 270 597.5 c 128,-1,25
 271 569 271 569 271 416 c 0,26,27
 271 266 271 266 269.5 232.5 c 128,-1,28
 268 199 268 199 261 180 c 0,29,30
 241 127 241 127 191 111 c 0,31,32
 169 104 169 104 139 104 c 0,33,34
 77 104 77 104 63 126 c 0,35,36
 55 137 55 137 55 168 c 0,37,38
 55 197 55 197 62 205 c 0,39,40
 68 212 68 212 71 212 c 0,41,42
 75 212 75 212 90 206 c 0,43,44
 112 198 112 198 123 198 c 0,45,46
 136 198 136 198 148 207 c 2,47,-1
 161 216 l 1,48,-1
 163 421 l 2,49,50
 165 626 165 626 173 630 c 0,19,20
EndSplineSet
Validated: 1
Ligature2: "'liga' Required Ligatures lookup 0 subtable" J x
Ligature2: "'liga' Required Ligatures lookup 0 subtable" J X
EndChar

StartChar: jcircumflex
Encoding: 309 309 107
Width: 358
GlyphClass: 3
Flags: W
LayerCount: 2
Fore
SplineSet
136 682 m 128,-1,1
 145 686 145 686 172 686 c 0,2,3
 208 686 208 686 218 680 c 0,4,5
 226 676 226 676 264 625.5 c 128,-1,6
 302 575 302 575 302 569 c 0,7,8
 302 558 302 558 258 558 c 2,9,-1
 230 558 l 1,10,-1
 204 594 l 2,11,12
 179 630 179 630 176 630 c 128,-1,13
 173 630 173 630 152 596 c 0,14,15
 132 564 132 564 119 560 c 0,16,17
 107 558 107 558 98 558 c 0,18,19
 56 558 56 558 56 568 c 0,20,21
 56 577 56 577 91.5 627.5 c 128,-1,0
 127 678 127 678 136 682 c 128,-1,1
143 503 m 0,22,23
 150 506 150 506 173 506 c 0,24,25
 208 506 208 506 220 501 c 0,26,27
 227 497 227 497 228.5 465 c 128,-1,28
 230 433 230 433 230 282 c 0,29,30
 230 127 230 127 228.5 93.5 c 128,-1,31
 227 60 227 60 220 40 c 0,32,33
 194 -29 194 -29 113 -29 c 2,34,-1
 99 -29 l 2,35,36
 72 -27 72 -27 63.5 -18.5 c 128,-1,37
 55 -10 55 -10 55 14 c 0,38,39
 55 40 55 40 59.5 46.5 c 128,-1,40
 64 53 64 53 82 53 c 0,41,42
 104 53 104 53 115 64 c 2,43,-1
 127 75 l 1,44,-1
 127 281 l 2,45,46
 127 488 127 488 131 494 c 0,47,48
 134 498 134 498 143 503 c 0,22,23
EndSplineSet
Validated: 1
Ligature2: "'liga' Required Ligatures lookup 0 subtable" j x
EndChar

StartChar: Scircumflex
Encoding: 348 348 108
Width: 446
GlyphClass: 3
Flags: W
LayerCount: 2
Fore
SplineSet
134 747 m 2,0,-1
 184 800 l 1,1,-1
 267 800 l 1,2,-1
 320 745 l 2,3,4
 371 692 371 692 371 684 c 0,5,6
 371 679 371 679 329 677 c 2,7,-1
 289 676 l 1,8,9
 268 698 268 698 226 744 c 1,10,11
 184 698 184 698 163 676 c 1,12,-1
 125 677 l 2,13,14
 85 678 85 678 85 687 c 128,-1,15
 85 696 85 696 134 747 c 2,0,-1
179 644 m 0,16,17
 202 650 202 650 230 650 c 0,18,19
 307 650 307 650 350 622 c 0,20,21
 358 617 358 617 360 609.5 c 128,-1,22
 362 602 362 602 362 576 c 0,23,24
 362 537 362 537 357 534 c 2,25,-1
 355 534 l 2,26,27
 346 534 346 534 314 548 c 0,28,29
 279 565 279 565 240 565 c 0,30,31
 213 565 213 565 205.5 562.5 c 128,-1,32
 198 560 198 560 187 548 c 0,33,34
 172 532 172 532 172 510 c 0,35,36
 172 494 172 494 183 478 c 0,37,38
 195 464 195 464 263 430 c 0,39,40
 340 393 340 393 366 361.5 c 128,-1,41
 392 330 392 330 393 273 c 0,42,43
 393 247 393 247 390 235 c 128,-1,44
 387 223 387 223 376 202 c 0,45,46
 334 120 334 120 221 111 c 0,47,48
 214 110 214 110 200 110 c 0,49,50
 159 110 159 110 120 121.5 c 128,-1,51
 81 133 81 133 64 150 c 0,52,53
 53 161 53 161 53 194 c 0,54,55
 53 236 53 236 68 236 c 0,56,57
 76 236 76 236 93 227 c 0,58,59
 147 197 147 197 198 197 c 0,60,61
 236 197 236 197 260.5 214.5 c 128,-1,62
 285 232 285 232 285 263 c 0,63,64
 285 282 285 282 265.5 299 c 128,-1,65
 246 316 246 316 195 342 c 0,66,67
 119 379 119 379 93.5 407.5 c 128,-1,68
 68 436 68 436 64 488 c 1,69,-1
 64 501 l 2,70,71
 64 613 64 613 179 644 c 0,16,17
EndSplineSet
Validated: 1
Ligature2: "'liga' Required Ligatures lookup 0 subtable" S x
Ligature2: "'liga' Required Ligatures lookup 0 subtable" S X
EndChar

StartChar: scircumflex
Encoding: 349 349 109
Width: 378
GlyphClass: 3
Flags: W
LayerCount: 2
Fore
SplineSet
144 681 m 0,0,1
 152 686 152 686 185 686 c 0,2,3
 219 686 219 686 227 681 c 0,4,5
 238 675 238 675 273 625.5 c 128,-1,6
 308 576 308 576 308 566 c 0,7,8
 308 558 308 558 275 558 c 0,9,10
 247 558 247 558 239 562 c 0,11,12
 224 577 224 577 210 598 c 2,13,-1
 187 631 l 1,14,-1
 170 606 l 2,15,16
 147 573 147 573 136 565.5 c 128,-1,17
 125 558 125 558 98 558 c 0,18,19
 64 558 64 558 64 566 c 0,20,21
 64 575 64 575 98.5 624.5 c 128,-1,22
 133 674 133 674 144 681 c 0,0,1
141 509 m 0,23,24
 167 516 167 516 196 516 c 0,25,26
 224 516 224 516 256 509 c 0,27,28
 288 501 288 501 296.5 491 c 128,-1,29
 305 481 305 481 305 454 c 0,30,31
 305 425 305 425 299 421 c 2,32,-1
 298 420 l 2,33,34
 297 420 297 420 296 420 c 0,35,36
 284 420 284 420 267 429 c 0,37,38
 237 441 237 441 201 441 c 0,39,40
 172 441 172 441 161 432 c 128,-1,41
 150 423 150 423 150 404 c 0,42,43
 150 388 150 388 159 381 c 0,44,45
 166 374 166 374 218 353 c 0,46,47
 264 334 264 334 286 319 c 0,48,49
 325 289 325 289 325 234 c 0,50,51
 325 190 325 190 296 156 c 0,52,53
 258 113 258 113 173 112 c 0,54,55
 90 112 90 112 63 136 c 0,56,57
 52 146 52 146 52 176 c 0,58,59
 52 211 52 211 63 211 c 0,60,61
 69 211 69 211 95 199 c 0,62,63
 125 185 125 185 164 184 c 0,64,65
 190 184 190 184 198 186 c 128,-1,66
 206 188 206 188 215 198 c 0,67,68
 227 212 227 212 227 225 c 0,69,70
 227 253 227 253 173 274 c 0,71,72
 109 298 109 298 81 326 c 128,-1,73
 53 354 53 354 53 395 c 0,74,75
 53 406 53 406 54 411 c 0,76,77
 62 485 62 485 141 509 c 0,23,24
EndSplineSet
Validated: 1
Ligature2: "'liga' Required Ligatures lookup 0 subtable" s x
EndChar

StartChar: Ubreve
Encoding: 364 364 110
Width: 523
GlyphClass: 3
Flags: W
LayerCount: 2
Fore
SplineSet
144 787 m 0,0,1
 146 794 146 794 165 794 c 2,2,-1
 177 794 l 2,3,4
 198 792 198 792 203 790 c 128,-1,5
 208 788 208 788 212 775 c 0,6,7
 225 738 225 738 260 738 c 0,8,9
 296 738 296 738 312 773 c 0,10,11
 319 787 319 787 323.5 789.5 c 128,-1,12
 328 792 328 792 349 792 c 0,13,14
 369 792 369 792 373 790 c 128,-1,15
 377 788 377 788 379 777 c 0,16,17
 380 773 380 773 380 765 c 0,18,19
 380 724 380 724 347 697.5 c 128,-1,20
 314 671 314 671 261 671 c 0,21,22
 258 671 258 671 253 671.5 c 128,-1,23
 248 672 248 672 246 672 c 0,24,25
 185 676 185 676 158 715 c 0,26,27
 142 740 142 740 142 773 c 0,28,29
 142 779 142 779 144 787 c 0,0,1
58 629 m 0,30,31
 64 634 64 634 90 634 c 2,32,-1
 107 634 l 2,33,34
 148 632 148 632 150 630 c 0,35,36
 152 626 152 626 154 452 c 0,37,38
 155 309 155 309 160 275.5 c 128,-1,39
 165 242 165 242 187 221 c 0,40,41
 218 191 218 191 262 191 c 0,42,43
 298 191 298 191 326.5 211 c 128,-1,44
 355 231 355 231 364 265 c 0,45,46
 369 284 369 284 369 457 c 2,47,-1
 369 520 l 2,48,49
 369 600 369 600 374 617.5 c 128,-1,50
 379 635 379 635 402 635 c 2,51,-1
 421 635 l 1,52,-1
 440 635 l 2,53,54
 462 635 462 635 467 618 c 128,-1,55
 472 601 472 601 472 524 c 2,56,-1
 472 445 l 2,57,58
 472 264 472 264 463 234 c 0,59,60
 435 147 435 147 347 116 c 0,61,62
 320 106 320 106 261 106 c 0,63,64
 192 106 192 106 162 119 c 0,65,66
 97 144 97 144 67 208 c 2,67,-1
 52 241 l 1,68,-1
 51 431 l 2,69,70
 50 488 50 488 50 557 c 0,71,72
 50 622 50 622 58 629 c 0,30,31
EndSplineSet
Validated: 1
Ligature2: "'liga' Required Ligatures lookup 0 subtable" U x
Ligature2: "'liga' Required Ligatures lookup 0 subtable" U X
EndChar

StartChar: ubreve
Encoding: 365 365 111
Width: 443
GlyphClass: 3
Flags: W
LayerCount: 2
Fore
SplineSet
109 675 m 0,0,1
 115 681 115 681 135 681 c 0,2,3
 159 681 159 681 167 673 c 0,4,5
 175 667 175 667 175 653 c 0,6,7
 175 640 175 640 188 627 c 128,-1,8
 201 614 201 614 220 614 c 0,9,10
 237 614 237 614 251.5 624 c 128,-1,11
 266 634 266 634 270 651 c 128,-1,12
 274 668 274 668 279 675 c 0,13,14
 286 682 286 682 309 682 c 0,15,16
 320 682 320 682 332 678 c 0,17,18
 340 675 340 675 340 658 c 0,19,20
 340 640 340 640 331.5 616.5 c 128,-1,21
 323 593 323 593 311 582 c 0,22,23
 282 553 282 553 222 553 c 128,-1,24
 162 553 162 553 133 582 c 0,25,26
 121 594 121 594 112.5 616.5 c 128,-1,27
 104 639 104 639 104 657 c 0,28,29
 104 670 104 670 109 675 c 0,0,1
58 496 m 128,-1,31
 65 500 65 500 98 500 c 0,32,33
 132 500 132 500 140 496 c 0,34,35
 147 492 147 492 148.5 473.5 c 128,-1,36
 150 455 150 455 150 373 c 0,37,38
 150 254 150 254 155 237 c 0,39,40
 160 218 160 218 175.5 205 c 128,-1,41
 191 192 191 192 208 192 c 0,42,43
 222 192 222 192 243.5 204.5 c 128,-1,44
 265 217 265 217 277 233 c 0,45,46
 284 242 284 242 286.5 263.5 c 128,-1,47
 289 285 289 285 291 370 c 0,48,49
 294 492 294 492 300 497 c 0,50,51
 307 501 307 501 336 501 c 0,52,53
 372 501 372 501 382 496 c 0,54,55
 389 492 389 492 390.5 464 c 128,-1,56
 392 436 392 436 392 306 c 2,57,-1
 392 241 l 2,58,59
 392 151 392 151 388.5 132.5 c 128,-1,60
 385 114 385 114 366 114 c 2,61,-1
 350 114 l 2,62,63
 322 114 322 114 313 120.5 c 128,-1,64
 304 127 304 127 304 146 c 2,65,-1
 304 166 l 1,66,-1
 280 146 l 2,67,68
 250 121 250 121 231.5 114 c 128,-1,69
 213 107 213 107 178 107 c 0,70,71
 111 107 111 107 80 147 c 0,72,73
 60 173 60 173 56 203.5 c 128,-1,74
 52 234 52 234 51 351 c 2,75,-1
 51 400 l 2,76,30
 51 492 51 492 58 496 c 128,-1,31
EndSplineSet
Validated: 1
Ligature2: "'liga' Required Ligatures lookup 0 subtable" u x
EndChar

StartChar: uniE001
Encoding: 57345 57345 112
Width: 421
GlyphClass: 3
Flags: W
LayerCount: 2
Fore
SplineSet
136 416 m 1,0,1
 136 457 136 457 135 538.5 c 128,-1,2
 134 620 134 620 134 661 c 1,3,-1
 235 661 l 1,4,-1
 239 542 l 2,5,6
 241 482 241 482 241 465 c 0,7,8
 241 421 241 421 238 418 c 0,9,10
 234 414 234 414 199 414 c 2,11,-1
 185 414 l 1,12,-1
 136 416 l 1,0,1
211 256 m 0,13,14
 211 279 211 279 188 279 c 128,-1,15
 165 279 165 279 165 256 c 0,16,17
 165 245 165 245 171.5 239 c 128,-1,18
 178 233 178 233 188 233 c 0,19,20
 197 233 197 233 204 239 c 128,-1,21
 211 245 211 245 211 256 c 0,13,14
157 388 m 0,22,23
 171 391 171 391 184 391 c 0,24,25
 245 391 245 391 283 351 c 0,26,27
 299 336 299 336 307.5 318 c 128,-1,28
 316 300 316 300 328 260 c 0,29,30
 331 246 331 246 341 213 c 128,-1,31
 351 180 351 180 353 173 c 0,32,33
 366 127 366 127 366 124 c 0,34,35
 366 120 366 120 319 120 c 0,36,37
 253 120 253 120 251 125 c 0,38,39
 250 128 250 128 242 128 c 0,40,41
 235 128 235 128 220 125 c 0,42,43
 204 122 204 122 189 122 c 0,44,45
 150 122 150 122 117.5 142 c 128,-1,46
 85 162 85 162 66 199 c 0,47,48
 55 218 55 218 55 256 c 128,-1,49
 55 294 55 294 66 313 c 0,50,51
 96 372 96 372 157 388 c 0,22,23
EndSplineSet
Validated: 1
Ligature2: "'liga' Required Ligatures lookup 0 subtable" a a
Ligature2: "'liga' Required Ligatures lookup 0 subtable" a space
Ligature2: "'liga' Required Ligatures lookup 0 subtable" a exclam
LCarets2: 1 0
EndChar

StartChar: uniE002
Encoding: 57346 57346 113
Width: 641
GlyphClass: 3
Flags: W
LayerCount: 2
Fore
SplineSet
82 653 m 0,0,1
 96 660 96 660 105 660 c 0,2,3
 113 660 113 660 127 653 c 0,4,5
 159 637 159 637 159 603 c 0,6,7
 159 583 159 583 145 568 c 128,-1,8
 131 553 131 553 108 553 c 0,9,10
 89 553 89 553 73 565 c 128,-1,11
 57 577 57 577 53 594 c 0,12,13
 52 597 52 597 52 603 c 0,14,15
 52 617 52 617 60.5 631.5 c 128,-1,16
 69 646 69 646 82 653 c 0,0,1
359 248 m 128,-1,18
 359 254 359 254 321 254 c 0,19,20
 282 254 282 254 282 248 c 128,-1,21
 282 242 282 242 294 237.5 c 128,-1,22
 306 233 306 233 321 233 c 128,-1,23
 336 233 336 233 347.5 237.5 c 128,-1,17
 359 242 359 242 359 248 c 128,-1,18
374 393 m 2,24,-1
 372 416 l 1,25,-1
 323 418 l 1,26,-1
 309 418 l 2,27,28
 273 418 273 418 270 415 c 0,29,30
 266 411 266 411 266 397 c 0,31,32
 266 369 266 369 275 365 c 0,33,34
 282 362 282 362 317 362 c 0,35,36
 364 362 364 362 369 366 c 0,37,38
 376 370 376 370 374 393 c 2,24,-1
349 542 m 0,39,40
 340 547 340 547 322 547 c 0,41,42
 282 547 282 547 282 532 c 0,43,44
 282 527 282 527 321 527 c 0,45,46
 359 527 359 527 359 533 c 0,47,48
 359 538 359 538 349 542 c 0,39,40
282 654 m 0,49,50
 301 660 301 660 314 660 c 2,51,-1
 316 660 l 2,52,53
 329 660 329 660 355 653.5 c 128,-1,54
 381 647 381 647 395 640 c 0,55,56
 416 629 416 629 440 602.5 c 128,-1,57
 464 576 464 576 471 554 c 2,58,-1
 480 527 l 1,59,-1
 534 526 l 1,60,-1
 589 524 l 1,61,-1
 589 421 l 1,62,-1
 537 419 l 1,63,-1
 486 416 l 1,64,-1
 484 393 l 2,65,66
 482 370 482 370 489 366 c 0,67,68
 493 364 493 364 510 364 c 0,69,70
 524 364 524 364 532 365 c 0,71,72
 560 367 560 367 565 367 c 0,73,74
 581 367 581 367 586 360.5 c 128,-1,75
 591 354 591 354 591 333 c 0,76,77
 591 330 591 330 590.5 322 c 128,-1,78
 590 314 590 314 590 309 c 2,79,-1
 589 256 l 1,80,-1
 533 255 l 2,81,82
 478 254 478 254 478 245 c 0,83,84
 478 234 478 234 463 208 c 128,-1,85
 448 182 448 182 433 168 c 0,86,87
 413 148 413 148 386 136 c 0,88,89
 353 122 353 122 322 122 c 0,90,91
 270 122 270 122 227 152 c 128,-1,92
 184 182 184 182 169 231 c 2,93,-1
 162 253 l 1,94,-1
 107 255 l 1,95,-1
 53 256 l 1,96,-1
 53 359 l 1,97,-1
 104 362 l 1,98,-1
 156 364 l 1,99,-1
 156 416 l 1,100,-1
 104 419 l 1,101,-1
 53 421 l 1,102,-1
 51 462 l 2,103,104
 50 475 50 475 50 494 c 0,105,106
 50 517 50 517 58 522 c 128,-1,107
 66 527 66 527 97 527 c 2,108,-1
 107 527 l 1,109,-1
 158 527 l 1,110,-1
 173 559 l 2,111,112
 206 633 206 633 282 654 c 0,49,50
516 656 m 0,113,114
 522 659 522 659 531 659 c 0,115,116
 555 659 555 659 573 641 c 0,117,118
 588 625 588 625 588 605 c 0,119,120
 588 570 588 570 552 554 c 0,121,122
 544 550 544 550 536 550 c 0,123,124
 530 550 530 550 517 555 c 0,125,126
 482 570 482 570 482 606 c 0,127,128
 482 641 482 641 516 656 c 0,113,114
EndSplineSet
Validated: 1
Ligature2: "'liga' Required Ligatures lookup 0 subtable" a k e s i space
Ligature2: "'liga' Required Ligatures lookup 0 subtable" a k e s i
EndChar

StartChar: uniE003
Encoding: 57347 57347 114
Width: 636
GlyphClass: 3
Flags: W
LayerCount: 2
Fore
SplineSet
54 651 m 128,-1,1
 54 655 54 655 93 655 c 2,2,-1
 120 655 l 1,3,-1
 185 653 l 1,4,-1
 249 568 l 2,5,6
 315 481 315 481 317 481 c 128,-1,7
 319 481 319 481 386 568 c 2,8,-1
 452 656 l 1,9,-1
 516 656 l 2,10,11
 582 656 582 656 582 652 c 0,12,13
 582 646 582 646 486 517 c 0,14,15
 391 390 391 390 391 381 c 1,16,-1
 489 248 l 2,17,18
 582 126 582 126 582 119 c 0,19,20
 582 114 582 114 516 114 c 2,21,-1
 452 114 l 1,22,-1
 386 202 l 2,23,24
 320 290 320 290 317 290 c 0,25,26
 316 290 316 290 250 203 c 2,27,-1
 185 117 l 1,28,-1
 120 115 l 1,29,-1
 99 115 l 2,30,31
 54 115 54 115 54 120 c 128,-1,32
 54 125 54 125 150 252 c 0,33,34
 243 376 243 376 243 388 c 0,35,36
 243 394 243 394 147 521 c 0,37,0
 54 647 54 647 54 651 c 128,-1,1
EndSplineSet
Validated: 1
Ligature2: "'liga' Required Ligatures lookup 0 subtable" a l a space
Ligature2: "'liga' Required Ligatures lookup 0 subtable" a l a
EndChar

StartChar: uniE004
Encoding: 57348 57348 115
Width: 644
GlyphClass: 3
Flags: W
LayerCount: 2
Fore
SplineSet
239 331 m 0,0,1
 219 331 219 331 216 328 c 128,-1,2
 213 325 213 325 213 281 c 0,3,4
 213 238 213 238 220 238 c 0,5,6
 233 238 233 238 268.5 273 c 128,-1,7
 304 308 304 308 304 321 c 0,8,9
 304 331 304 331 239 331 c 0,0,1
249 515 m 0,10,11
 225 532 225 532 222 532 c 0,12,13
 213 532 213 532 213 486 c 2,14,-1
 213 439 l 1,15,-1
 259 439 l 2,16,17
 306 439 306 439 306 446 c 0,18,19
 306 454 306 454 287 477.5 c 128,-1,20
 268 501 268 501 249 515 c 0,10,11
108 652 m 128,-1,22
 111 655 111 655 135 655 c 0,23,24
 179 655 179 655 210 648 c 0,25,26
 281 633 281 633 334 587 c 128,-1,27
 387 541 387 541 411 474 c 0,28,29
 419 453 419 453 423.5 447.5 c 128,-1,30
 428 442 428 442 439 440 c 2,31,-1
 446 440 l 2,32,33
 454 440 454 440 454 445 c 0,34,35
 454 452 454 452 442 481 c 0,36,37
 432 506 432 506 432 515 c 0,38,39
 432 521 432 521 473 521 c 0,40,41
 532 521 532 521 536 515 c 0,42,43
 542 507 542 507 565 447 c 2,44,-1
 590 385 l 1,45,-1
 565 323 l 2,46,47
 541 260 541 260 536 255 c 0,48,49
 531 248 531 248 476 248 c 0,50,51
 432 248 432 248 432 255 c 0,52,53
 432 265 432 265 442 288 c 0,54,55
 454 316 454 316 454 324 c 0,56,57
 454 330 454 330 446 330 c 2,58,-1
 439 330 l 2,59,60
 428 328 428 328 423.5 322.5 c 128,-1,61
 419 317 419 317 411 296 c 0,62,63
 382 215 382 215 310 165 c 128,-1,64
 238 115 238 115 151 115 c 2,65,-1
 135 115 l 1,66,-1
 107 117 l 1,67,-1
 105 223 l 1,68,-1
 102 328 l 1,69,-1
 78 330 l 1,70,-1
 53 331 l 1,71,-1
 53 439 l 1,72,-1
 105 439 l 1,73,-1
 105 544 l 2,74,21
 105 649 105 649 108 652 c 128,-1,22
EndSplineSet
Validated: 1
Ligature2: "'liga' Required Ligatures lookup 0 subtable" a l a s a
Ligature2: "'liga' Required Ligatures lookup 0 subtable" a l a s a space
EndChar

StartChar: uniE005
Encoding: 57349 57349 116
Width: 638
GlyphClass: 3
Flags: W
LayerCount: 2
Fore
SplineSet
448 527 m 0,0,1
 439 539 439 539 425 541 c 0,2,3
 412 543 412 543 401 526 c 0,4,5
 372 480 372 480 372 385 c 128,-1,6
 372 290 372 290 401 244 c 0,7,8
 411 228 411 228 424 228 c 0,9,10
 439 228 439 228 451 247 c 0,11,12
 477 287 477 287 477 382 c 0,13,14
 477 487 477 487 448 527 c 0,0,1
223 538 m 0,15,16
 217 542 217 542 211 542 c 0,17,18
 195 542 195 542 181 514 c 0,19,20
 159 470 159 470 159 391 c 0,21,22
 159 327 159 327 173.5 277.5 c 128,-1,23
 188 228 188 228 211 228 c 0,24,25
 233 228 233 228 247.5 272.5 c 128,-1,26
 262 317 262 317 262 386 c 0,27,28
 262 442 262 442 251 483.5 c 128,-1,29
 240 525 240 525 223 538 c 0,15,16
175 647 m 0,30,31
 196 654 196 654 210 654 c 0,32,33
 223 654 223 654 244 647 c 0,34,35
 269 639 269 639 294 614 c 2,36,-1
 318 590 l 1,37,-1
 335 608 l 2,38,39
 369 644 369 644 410 653 c 0,40,41
 415 654 415 654 424 654 c 0,42,43
 468 654 468 654 511 607.5 c 128,-1,44
 554 561 554 561 573 493 c 0,45,46
 586 444 586 444 586 376 c 0,47,48
 586 335 586 335 580 305 c 0,49,50
 573 271 573 271 554 227 c 128,-1,51
 535 183 535 183 519 166 c 0,52,53
 474 116 474 116 426 116 c 0,54,55
 388 116 388 116 348 151 c 0,56,57
 321 176 321 176 316 176 c 0,58,59
 313 176 313 176 300 161 c 0,60,61
 264 117 264 117 210 117 c 0,62,63
 183 117 183 117 158 131 c 0,64,65
 123 151 123 151 96 195.5 c 128,-1,66
 69 240 69 240 58 295 c 0,67,68
 51 327 51 327 51 381 c 0,69,70
 51 437 51 437 59 477 c 0,71,72
 72 538 72 538 105 585.5 c 128,-1,73
 138 633 138 633 175 647 c 0,30,31
EndSplineSet
Validated: 1
Ligature2: "'liga' Required Ligatures lookup 0 subtable" a l e space
Ligature2: "'liga' Required Ligatures lookup 0 subtable" a l i
Ligature2: "'liga' Required Ligatures lookup 0 subtable" a l e
Ligature2: "'liga' Required Ligatures lookup 0 subtable" a l i space
EndChar

StartChar: uniE006
Encoding: 57350 57350 117
Width: 639
GlyphClass: 3
Flags: W
LayerCount: 2
Fore
SplineSet
54 653 m 0,0,1
 56 655 56 655 88 655 c 2,2,-1
 109 655 l 1,3,-1
 161 653 l 1,4,5
 162 609 162 609 162 520.5 c 128,-1,6
 162 432 162 432 163 388 c 1,7,-1
 478 388 l 1,8,-1
 478 515 l 2,9,10
 478 641 478 641 482 649 c 0,11,12
 485 655 485 655 521 655 c 2,13,-1
 538 655 l 1,14,-1
 589 653 l 1,15,-1
 589 277 l 1,16,-1
 326 275 l 1,17,-1
 239 275 l 2,18,19
 64 275 64 275 57 280 c 0,20,21
 50 286 50 286 50 468 c 0,22,23
 50 649 50 649 54 653 c 0,0,1
297 219 m 0,24,25
 315 228 315 228 320 228 c 0,26,27
 324 228 324 228 341 221 c 0,28,29
 376 207 376 207 376 172 c 0,30,31
 376 151 376 151 360 134 c 0,32,33
 350 123 350 123 343 120 c 128,-1,34
 336 117 336 117 321 117 c 0,35,36
 297 117 297 117 281 134 c 0,37,38
 266 150 266 150 266 171 c 0,39,40
 266 204 266 204 297 219 c 0,24,25
EndSplineSet
Validated: 1
Ligature2: "'liga' Required Ligatures lookup 0 subtable" a n p a space
Ligature2: "'liga' Required Ligatures lookup 0 subtable" a n p a
EndChar

StartChar: uniE007
Encoding: 57351 57351 118
Width: 647
GlyphClass: 3
Flags: W
LayerCount: 2
Fore
SplineSet
53 600 m 2,0,-1
 53 652 l 1,1,-1
 67 648 l 2,2,3
 90 641 90 641 201 596 c 2,4,-1
 322 547 l 1,5,-1
 454 599 l 2,6,7
 576 647 576 647 589 647 c 2,8,-1
 590 647 l 1,9,10
 594 643 594 643 594 607 c 2,11,-1
 594 593 l 1,12,-1
 592 545 l 1,13,-1
 461 492 l 2,14,15
 329 439 329 439 323 439 c 128,-1,16
 317 439 317 439 191.5 489 c 128,-1,17
 66 539 66 539 60 544 c 0,18,19
 53 548 53 548 53 600 c 2,0,-1
324 219 m 0,20,21
 322 219 322 219 192.5 169.5 c 128,-1,22
 63 120 63 120 61 120 c 0,23,24
 53 120 53 120 53 175 c 0,25,26
 53 222 53 222 60 226 c 0,27,28
 62 227 62 227 190 280 c 0,29,30
 316 330 316 330 321 330 c 0,31,32
 329 330 329 330 461 278 c 2,33,-1
 592 225 l 1,34,-1
 594 173 l 1,35,-1
 594 150 l 2,36,37
 594 120 594 120 587 120 c 0,38,39
 584 120 584 120 455.5 169.5 c 128,-1,40
 327 219 327 219 324 219 c 0,20,21
EndSplineSet
Validated: 1
Ligature2: "'liga' Required Ligatures lookup 0 subtable" a n t e space
Ligature2: "'liga' Required Ligatures lookup 0 subtable" a n t e
EndChar

StartChar: uniE008
Encoding: 57352 57352 119
Width: 636
GlyphClass: 3
Flags: W
LayerCount: 2
Fore
SplineSet
397 584 m 2,0,-1
 454 661 l 1,1,-1
 518 661 l 2,2,3
 581 661 581 661 581 654 c 0,4,5
 581 648 581 648 478 509 c 2,6,-1
 378 375 l 1,7,-1
 376 246 l 1,8,-1
 373 117 l 1,9,-1
 320 115 l 1,10,-1
 302 115 l 2,11,12
 268 115 268 115 267 121 c 2,13,-1
 265 246 l 1,14,-1
 265 364 l 1,15,-1
 161 504 l 2,16,17
 56 643 56 643 56 650 c 0,18,19
 56 656 56 656 120 656 c 2,20,-1
 185 656 l 1,21,-1
 250 568 l 2,22,23
 316 480 316 480 318 480 c 0,24,25
 322 480 322 480 331 489 c 128,-1,26
 340 498 340 498 340 502 c 0,27,28
 340 507 340 507 397 584 c 2,0,-1
EndSplineSet
Validated: 1
Ligature2: "'liga' Required Ligatures lookup 0 subtable" a n u
Ligature2: "'liga' Required Ligatures lookup 0 subtable" a n u space
EndChar

StartChar: uniE009
Encoding: 57353 57353 120
Width: 649
GlyphClass: 3
Flags: W
LayerCount: 2
Fore
SplineSet
274 656 m 0,0,1
 278 660 278 660 314 660 c 2,2,-1
 329 660 l 1,3,-1
 381 658 l 1,4,-1
 418 475 l 2,5,6
 451 316 451 316 461 263 c 2,7,-1
 467 233 l 1,8,-1
 595 233 l 1,9,-1
 595 120 l 1,10,-1
 490 120 l 1,11,-1
 451 120 l 2,12,13
 403 120 403 120 392.5 121.5 c 128,-1,14
 382 123 382 123 379 131 c 0,15,16
 373 144 373 144 353 251 c 0,17,18
 331 360 331 360 329 361 c 0,19,20
 328 362 328 362 327 362 c 0,21,22
 323 362 323 362 298 243 c 0,23,24
 276 129 276 129 273 124 c 0,25,26
 270 120 270 120 165 120 c 128,-1,27
 60 120 60 120 57 128 c 128,-1,28
 54 136 54 136 54 173 c 128,-1,29
 54 210 54 210 57 222 c 0,30,31
 59 230 59 230 68 231.5 c 128,-1,32
 77 233 77 233 124 233 c 0,33,34
 188 233 188 233 188 236 c 0,35,36
 188 243 188 243 230 448 c 128,-1,37
 272 653 272 653 274 656 c 0,0,1
EndSplineSet
Validated: 1
Ligature2: "'liga' Required Ligatures lookup 0 subtable" a w e n
Ligature2: "'liga' Required Ligatures lookup 0 subtable" a w e n space
EndChar

StartChar: uniE00A
Encoding: 57354 57354 121
Width: 634
GlyphClass: 3
Flags: W
LayerCount: 2
Fore
SplineSet
110 661 m 0,0,1
 160 661 160 661 168 652 c 0,2,3
 179 638 179 638 216 571 c 0,4,5
 238 530 238 530 271 476.5 c 128,-1,6
 304 423 304 423 312 410 c 2,7,-1
 324 389 l 1,8,-1
 278 307 l 2,9,10
 210 189 210 189 201 173 c 2,11,-1
 172 120 l 1,12,-1
 113 120 l 2,13,14
 54 120 54 120 54 124 c 0,15,16
 54 130 54 130 126 256 c 128,-1,17
 198 382 198 382 198 390 c 128,-1,18
 198 398 198 398 126 524 c 0,19,20
 57 644 57 644 57 656 c 0,21,22
 57 661 57 661 110 661 c 0,0,1
317 655 m 0,23,24
 317 661 317 661 373 661 c 0,25,26
 428 661 428 661 434 655 c 0,27,28
 438 650 438 650 502.5 536 c 128,-1,29
 567 422 567 422 579 400 c 0,30,31
 580 398 580 398 580 394 c 0,32,33
 580 380 580 380 535 302 c 0,34,35
 484 211 484 211 474 188 c 0,36,37
 461 161 461 161 448 140 c 2,38,-1
 435 120 l 1,39,-1
 379 120 l 2,40,41
 322 120 322 120 322 126 c 0,42,43
 322 134 322 134 363 204 c 0,44,45
 405 277 405 277 405 281 c 0,46,47
 405 287 405 287 434 338 c 2,48,-1
 463 389 l 1,49,-1
 447 418 l 2,50,51
 444 423 444 423 418 469 c 128,-1,52
 392 515 392 515 374 547 c 0,53,54
 317 648 317 648 317 655 c 0,23,24
EndSplineSet
Validated: 1
Ligature2: "'liga' Required Ligatures lookup 0 subtable" e space
Ligature2: "'liga' Required Ligatures lookup 0 subtable" e e
EndChar

StartChar: uniE00B
Encoding: 57355 57355 122
Width: 644
GlyphClass: 3
Flags: W
LayerCount: 2
Fore
SplineSet
269 654 m 0,0,1
 272 659 272 659 300 659 c 2,2,-1
 321 659 l 1,3,-1
 372 658 l 1,4,-1
 375 551 l 1,5,-1
 377 445 l 1,6,-1
 484 442 l 1,7,-1
 590 440 l 1,8,-1
 590 336 l 1,9,-1
 484 334 l 1,10,-1
 377 331 l 1,11,-1
 377 119 l 1,12,-1
 325 117 l 1,13,-1
 271 116 l 1,14,15
 270 152 270 152 270 223.5 c 128,-1,16
 270 295 270 295 269 331 c 1,17,-1
 161 333 l 1,18,-1
 53 334 l 1,19,-1
 55 387 l 1,20,-1
 56 440 l 1,21,-1
 160 442 l 1,22,-1
 263 445 l 1,23,-1
 265 546 l 2,24,25
 267 650 267 650 269 654 c 0,0,1
EndSplineSet
Validated: 1
Ligature2: "'liga' Required Ligatures lookup 0 subtable" e n space
Ligature2: "'liga' Required Ligatures lookup 0 subtable" e n
EndChar

StartChar: uniE00C
Encoding: 57356 57356 123
Width: 644
GlyphClass: 3
Flags: W
LayerCount: 2
Fore
SplineSet
244 289 m 0,0,1
 223 297 223 297 212 297 c 0,2,3
 200 297 200 297 187 290 c 0,4,5
 165 277 165 277 165 254 c 0,6,7
 165 244 165 244 169 237 c 0,8,9
 183 211 183 211 212 211 c 0,10,11
 227 211 227 211 242 217 c 0,12,13
 258 224 258 224 265 245 c 0,14,15
 268 257 268 257 268 264 c 0,16,17
 268 279 268 279 244 289 c 0,0,1
471 551 m 0,18,19
 455 565 455 565 426 565 c 0,20,21
 414 565 414 565 407 562 c 0,22,23
 379 550 379 550 379 515 c 0,24,25
 379 503 379 503 382 498.5 c 128,-1,26
 385 494 385 494 398 488 c 0,27,28
 416 479 416 479 432 479 c 0,29,30
 453 479 453 479 467 492 c 0,31,32
 483 505 483 505 483 524 c 0,33,34
 483 539 483 539 471 551 c 0,18,19
58 650 m 0,35,36
 63 650 63 650 165.5 600.5 c 128,-1,37
 268 551 268 551 269 551 c 128,-1,38
 270 551 270 551 285 579 c 0,39,40
 305 614 305 614 342.5 636 c 128,-1,41
 380 658 380 658 428 658 c 0,42,43
 450 658 450 658 469 654 c 0,44,45
 526 642 526 642 559 607 c 128,-1,46
 592 572 592 572 592 523 c 0,47,48
 592 441 592 441 504 402 c 0,49,50
 476 389 476 389 428 389 c 2,51,-1
 379 389 l 1,52,-1
 379 331 l 1,53,54
 450 296 450 296 592 228 c 1,55,-1
 592 177 l 2,56,57
 592 126 592 126 587 126 c 0,58,59
 584 126 584 126 497 167.5 c 128,-1,60
 410 209 410 209 389 220 c 0,61,62
 379 225 379 225 370 208 c 0,63,64
 360 190 360 190 335 165 c 0,65,66
 289 119 289 119 217 119 c 2,67,-1
 211 119 l 2,68,69
 140 120 140 120 95 164 c 0,70,71
 53 204 53 204 53 253 c 0,72,73
 53 304 53 304 98 344 c 0,74,75
 145 387 145 387 223 388 c 2,76,-1
 268 388 l 1,77,-1
 270 416 l 1,78,-1
 271 443 l 1,79,80
 127 513 127 513 56 549 c 1,81,-1
 54 599 l 1,82,-1
 54 620 l 2,83,84
 54 650 54 650 58 650 c 0,35,36
EndSplineSet
Validated: 1
Ligature2: "'liga' Required Ligatures lookup 0 subtable" e s u n space
Ligature2: "'liga' Required Ligatures lookup 0 subtable" e s u n
EndChar

StartChar: uniE00D
Encoding: 57357 57357 124
Width: 644
GlyphClass: 3
Flags: W
LayerCount: 2
Fore
SplineSet
385 534 m 0,0,1
 352 549 352 549 318 549 c 0,2,3
 250 549 250 549 199 492 c 0,4,5
 161 450 161 450 161 390 c 0,6,7
 161 345 161 345 184 306.5 c 128,-1,8
 207 268 207 268 248 247 c 0,9,10
 277 233 277 233 322 233 c 0,11,12
 366 233 366 233 389 245 c 0,13,14
 432 267 432 267 455.5 306 c 128,-1,15
 479 345 479 345 479 389 c 0,16,17
 479 430 479 430 458 469 c 0,18,19
 435 510 435 510 385 534 c 0,0,1
275 656 m 0,20,21
 295 660 295 660 319 660 c 0,22,23
 429 660 429 660 510 579 c 128,-1,24
 591 498 591 498 591 389 c 0,25,26
 591 360 591 360 583 326 c 0,27,28
 559 234 559 234 486.5 176.5 c 128,-1,29
 414 119 414 119 322 119 c 0,30,31
 231 120 231 120 161.5 170.5 c 128,-1,32
 92 221 92 221 62 309 c 0,33,34
 52 342 52 342 52 386 c 0,35,36
 52 433 52 433 63 469 c 0,37,38
 85 539 85 539 144.5 591.5 c 128,-1,39
 204 644 204 644 275 656 c 0,20,21
EndSplineSet
Validated: 1
Ligature2: "'liga' Required Ligatures lookup 0 subtable" i j o
Ligature2: "'liga' Required Ligatures lookup 0 subtable" i j o space
EndChar

StartChar: uniE00E
Encoding: 57358 57358 125
Width: 645
GlyphClass: 3
Flags: W
LayerCount: 2
Fore
SplineSet
266 525 m 0,0,1
 288 530 288 530 320 530 c 0,2,3
 420 530 420 530 496.5 465 c 128,-1,4
 573 400 573 400 589 299 c 0,5,6
 592 281 592 281 592 273 c 0,7,8
 592 264 592 264 588 261 c 0,9,10
 580 256 580 256 527 256 c 0,11,12
 497 256 497 256 489 259 c 0,13,14
 480 263 480 263 480 276 c 0,15,16
 480 311 480 311 453.5 348.5 c 128,-1,17
 427 386 427 386 390 403 c 0,18,19
 359 417 359 417 319 417 c 0,20,21
 284 417 284 417 261 407 c 0,22,23
 224 391 224 391 197 357.5 c 128,-1,24
 170 324 170 324 166 288 c 0,25,26
 164 267 164 267 157.5 261.5 c 128,-1,27
 151 256 151 256 126 256 c 0,28,29
 122 256 122 256 112.5 256.5 c 128,-1,30
 103 257 103 257 97 257 c 2,31,-1
 53 259 l 1,32,-1
 54 284 l 2,33,34
 56 364 56 364 120 436.5 c 128,-1,35
 184 509 184 509 266 525 c 0,0,1
EndSplineSet
Validated: 1
Ligature2: "'liga' Required Ligatures lookup 0 subtable" i k e
Ligature2: "'liga' Required Ligatures lookup 0 subtable" i k e space
EndChar

StartChar: uniE00F
Encoding: 57359 57359 126
Width: 642
GlyphClass: 3
Flags: W
LayerCount: 2
Fore
SplineSet
480 442 m 1,0,-1
 480 551 l 1,1,-1
 376 551 l 1,2,-1
 376 442 l 1,3,-1
 480 442 l 1,0,-1
265 445 m 1,4,-1
 265 549 l 1,5,-1
 214 550 l 1,6,-1
 186 550 l 2,7,8
 162 550 162 550 161 545 c 0,9,10
 160 542 160 542 160 512 c 2,11,-1
 160 491 l 1,12,-1
 161 445 l 1,13,-1
 265 445 l 1,4,-1
50 334 m 1,14,-1
 50 660 l 1,15,16
 140 660 140 660 320.5 659 c 128,-1,17
 501 658 501 658 591 658 c 1,18,-1
 591 502 l 2,19,20
 591 343 591 343 590 340 c 0,21,22
 588 334 588 334 482 334 c 2,23,-1
 376 334 l 1,24,25
 376 298 376 298 375 226.5 c 128,-1,26
 374 155 374 155 374 119 c 1,27,-1
 270 119 l 1,28,29
 270 155 270 155 269 226.5 c 128,-1,30
 268 298 268 298 268 334 c 1,31,-1
 50 334 l 1,14,-1
EndSplineSet
Validated: 1
Ligature2: "'liga' Required Ligatures lookup 0 subtable" i l o
Ligature2: "'liga' Required Ligatures lookup 0 subtable" i l o space
EndChar

StartChar: uniE010
Encoding: 57360 57360 127
Width: 639
GlyphClass: 3
Flags: W
LayerCount: 2
Fore
SplineSet
50 116 m 1,0,-1
 50 660 l 1,1,-1
 159 660 l 1,2,-1
 159 230 l 1,3,-1
 480 230 l 1,4,-1
 480 660 l 1,5,-1
 589 660 l 1,6,-1
 589 116 l 1,7,-1
 50 116 l 1,0,-1
271 367 m 0,8,9
 266 376 266 376 266 390 c 0,10,11
 266 411 266 411 281 426.5 c 128,-1,12
 296 442 296 442 319 442 c 128,-1,13
 342 442 342 442 357.5 426 c 128,-1,14
 373 410 373 410 373 389 c 0,15,16
 373 377 373 377 369 368 c 0,17,18
 356 334 356 334 321 334 c 128,-1,19
 286 334 286 334 271 367 c 0,8,9
EndSplineSet
Validated: 1
Ligature2: "'liga' Required Ligatures lookup 0 subtable" i n s a space
Ligature2: "'liga' Required Ligatures lookup 0 subtable" i n s a
EndChar

StartChar: uniE011
Encoding: 57361 57361 128
Width: 640
GlyphClass: 3
Flags: W
LayerCount: 2
Fore
SplineSet
227 334 m 0,0,1
 227 339 227 339 221 339 c 0,2,3
 213 339 213 339 222 330 c 2,4,-1
 225 328 l 2,5,6
 227 328 227 328 227 334 c 0,0,1
391 466 m 0,7,8
 381 472 381 472 298 472 c 0,9,10
 270 472 270 472 262 470 c 0,11,12
 253 467 253 467 253 461 c 128,-1,13
 253 455 253 455 264 444 c 0,14,15
 272 436 272 436 328.5 408 c 128,-1,16
 385 380 385 380 392 380 c 0,17,18
 398 380 398 380 398 417 c 0,19,20
 398 461 398 461 391 466 c 0,7,8
262 681 m 0,21,22
 289 690 289 690 317 690 c 0,23,24
 396 690 396 690 451 635 c 0,25,26
 470 615 470 615 485.5 589 c 128,-1,27
 501 563 501 563 501 550 c 0,28,29
 501 540 501 540 532 509 c 0,30,31
 564 476 564 476 575.5 451.5 c 128,-1,32
 587 427 587 427 587 388 c 0,33,34
 587 350 587 350 579 322 c 0,35,36
 575 309 575 309 575 301 c 0,37,38
 575 294 575 294 581 288 c 0,39,40
 589 279 589 279 589 223 c 0,41,42
 589 168 589 168 584 168 c 128,-1,43
 579 168 579 168 545 184 c 0,44,45
 517 198 517 198 509 198 c 0,46,47
 506 198 506 198 504 196 c 0,48,49
 412 127 412 127 331 127 c 2,50,-1
 318 127 l 2,51,52
 278 128 278 128 252.5 141 c 128,-1,53
 227 154 227 154 197 187 c 0,54,55
 137 252 137 252 101 285 c 0,56,57
 50 333 50 333 50 396 c 0,58,59
 50 420 50 420 59 442 c 0,60,61
 65 457 65 457 65 469 c 128,-1,62
 65 481 65 481 59 523 c 0,63,64
 50 582 50 582 50 624 c 2,65,-1
 50 666 l 1,66,-1
 104 664 l 1,67,-1
 157 663 l 1,68,-1
 158 638 l 2,69,70
 160 613 160 613 165 613 c 0,71,72
 169 613 169 613 174 623 c 0,73,74
 181 636 181 636 209.5 655 c 128,-1,75
 238 674 238 674 262 681 c 0,21,22
EndSplineSet
Validated: 1
Ligature2: "'liga' Required Ligatures lookup 0 subtable" j a k i space
Ligature2: "'liga' Required Ligatures lookup 0 subtable" j a k i
EndChar

StartChar: uniE012
Encoding: 57362 57362 129
Width: 641
GlyphClass: 3
Flags: W
LayerCount: 2
Fore
SplineSet
387 539 m 0,0,1
 354 555 354 555 319 555 c 0,2,3
 252 555 252 555 201 499 c 0,4,5
 162 454 162 454 162 396 c 2,6,-1
 162 391 l 2,7,8
 164 299 164 299 245 253 c 0,9,10
 263 243 263 243 275 240.5 c 128,-1,11
 287 238 287 238 319 238 c 0,12,13
 366 238 366 238 392 252 c 0,14,15
 438 276 438 276 463 323 c 0,16,17
 475 347 475 347 475 396 c 128,-1,18
 475 445 475 445 463 467 c 0,19,20
 439 514 439 514 387 539 c 0,0,1
254 657 m 0,21,22
 282 665 282 665 317 665 c 0,23,24
 402 665 402 665 475 613.5 c 128,-1,25
 548 562 548 562 576 478 c 0,26,27
 590 434 590 434 590 395 c 0,28,29
 590 329 590 329 556 265 c 2,30,-1
 538 230 l 1,31,-1
 562 183 l 2,32,33
 586 137 586 137 586 129 c 128,-1,34
 586 121 586 121 534 121 c 2,35,-1
 482 121 l 1,36,37
 478 128 478 128 471.5 142 c 128,-1,38
 465 156 465 156 462 163 c 1,39,-1
 442 153 l 2,40,41
 389 125 389 125 321 125 c 0,42,43
 272 125 272 125 234 139 c 0,44,45
 222 144 222 144 204.5 149.5 c 128,-1,46
 187 155 187 155 186 155 c 0,47,48
 179 157 179 157 167 140 c 2,49,-1
 155 121 l 1,50,-1
 104 121 l 2,51,52
 52 121 52 121 52 126 c 0,53,54
 52 129 52 129 77 181 c 2,55,-1
 102 231 l 1,56,-1
 87 256 l 2,57,58
 50 321 50 321 50 394 c 0,59,60
 50 509 50 509 134 588 c 0,61,62
 191 641 191 641 254 657 c 0,21,22
EndSplineSet
Validated: 1
Ligature2: "'liga' Required Ligatures lookup 0 subtable" j a n
Ligature2: "'liga' Required Ligatures lookup 0 subtable" j a n space
EndChar

StartChar: uniE013
Encoding: 57363 57363 130
Width: 647
GlyphClass: 3
Flags: W
LayerCount: 2
Fore
SplineSet
406 234 m 128,-1,1
 406 238 406 238 368 267.5 c 128,-1,2
 330 297 330 297 325 297 c 0,3,4
 320 296 320 296 283.5 268 c 128,-1,5
 247 240 247 240 247 235 c 128,-1,6
 247 230 247 230 325 230 c 0,7,0
 406 230 406 230 406 234 c 128,-1,1
375 473 m 0,8,9
 375 495 375 495 361.5 507.5 c 128,-1,10
 348 520 348 520 326 520 c 0,11,12
 292 519 292 519 279 493 c 0,13,14
 273 481 273 481 273 469 c 0,15,16
 273 448 273 448 288 433 c 128,-1,17
 303 418 303 418 324 418 c 0,18,19
 336 418 336 418 348 424 c 0,20,21
 375 438 375 438 375 473 c 0,8,9
271 644 m 2,22,-1
 271 660 l 1,23,-1
 380 660 l 1,24,-1
 380 642 l 2,25,26
 380 631 380 631 383 626 c 128,-1,27
 386 621 386 621 397 616 c 0,28,29
 414 607 414 607 437 584.5 c 128,-1,30
 460 562 460 562 469 545 c 0,31,32
 477 530 477 530 482 527.5 c 128,-1,33
 487 525 487 525 510 525 c 2,34,-1
 541 525 l 1,35,-1
 541 417 l 1,36,-1
 480 417 l 1,37,-1
 462 387 l 2,38,39
 445 355 445 355 445 351 c 0,40,41
 445 345 445 345 519 287 c 2,42,-1
 593 229 l 1,43,-1
 592 174 l 1,44,-1
 590 119 l 1,45,-1
 56 119 l 1,46,-1
 55 172 l 2,47,48
 55 179 55 179 54.5 189 c 128,-1,49
 54 199 54 199 54 202 c 0,50,51
 54 221 54 221 65 233.5 c 128,-1,52
 76 246 76 246 118 278 c 0,53,54
 133 289 133 289 141 295 c 0,55,56
 206 344 206 344 209 350 c 0,57,58
 209 353 209 353 188 385 c 2,59,-1
 167 417 l 1,60,-1
 111 417 l 1,61,-1
 111 525 l 1,62,-1
 141 525 l 1,63,-1
 170 526 l 1,64,-1
 190 557 l 2,65,66
 210 587 210 587 240 607 c 0,67,68
 260 620 260 620 265.5 626.5 c 128,-1,69
 271 633 271 633 271 644 c 2,22,-1
EndSplineSet
Validated: 1
Ligature2: "'liga' Required Ligatures lookup 0 subtable" j e l o
Ligature2: "'liga' Required Ligatures lookup 0 subtable" j e l o space
EndChar

StartChar: uniE014
Encoding: 57364 57364 131
Width: 640
GlyphClass: 3
Flags: W
LayerCount: 2
Fore
SplineSet
337 506 m 128,-1,1
 343 512 343 512 343 520 c 0,2,3
 343 531 343 531 334.5 541 c 128,-1,4
 326 551 326 551 316 551 c 0,5,6
 311 551 311 551 301 540 c 128,-1,7
 291 529 291 529 291 523 c 0,8,9
 291 514 291 514 300.5 507 c 128,-1,10
 310 500 310 500 321 500 c 0,11,0
 331 500 331 500 337 506 c 128,-1,1
274 653 m 0,12,13
 289 659 289 659 313 659 c 0,14,15
 351 659 351 659 377 646 c 0,16,17
 412 628 412 628 432 595 c 128,-1,18
 452 562 452 562 452 524 c 0,19,20
 452 491 452 491 438 464 c 0,21,22
 419 426 419 426 388 409 c 128,-1,23
 357 392 357 392 295 386 c 0,24,25
 243 381 243 381 211 367 c 0,26,27
 162 343 162 343 162 308 c 0,28,29
 162 287 162 287 190 266 c 128,-1,30
 218 245 218 245 260 235 c 0,31,32
 276 231 276 231 314 231 c 0,33,34
 381 231 381 231 402 240 c 0,35,36
 414 244 414 244 414 248 c 0,37,38
 414 256 414 256 337 256 c 2,39,-1
 265 256 l 1,40,-1
 265 365 l 1,41,-1
 587 365 l 1,42,-1
 587 324 l 2,43,44
 587 280 587 280 577 255 c 128,-1,45
 567 230 567 230 538 201 c 0,46,47
 456 119 456 119 320 119 c 0,48,49
 238 119 238 119 168.5 153 c 128,-1,50
 99 187 99 187 69 247 c 0,51,52
 53 279 53 279 53 308 c 0,53,54
 53 349 53 349 83.5 393.5 c 128,-1,55
 114 438 114 438 158 461 c 2,56,-1
 186 475 l 1,57,-1
 186 520 l 1,58,-1
 186 535 l 2,59,60
 186 565 186 565 201 590 c 0,61,62
 230 637 230 637 274 653 c 0,12,13
EndSplineSet
Validated: 1
Ligature2: "'liga' Required Ligatures lookup 0 subtable" j o
Ligature2: "'liga' Required Ligatures lookup 0 subtable" j o space
EndChar

StartChar: uniE015
Encoding: 57365 57365 132
Width: 645
GlyphClass: 3
Flags: W
LayerCount: 2
Fore
SplineSet
423 532 m 0,0,1
 398 549 398 549 373 549 c 0,2,3
 340 549 340 549 301 522 c 0,4,5
 259 492 259 492 225 422 c 2,6,-1
 208 389 l 1,7,-1
 227 351 l 2,8,9
 254 297 254 297 294.5 263.5 c 128,-1,10
 335 230 335 230 374 230 c 0,11,12
 432 230 432 230 465 303 c 0,13,14
 482 338 482 338 482 387 c 0,15,16
 482 432 482 432 466 472.5 c 128,-1,17
 450 513 450 513 423 532 c 0,0,1
54 628 m 2,18,-1
 54 661 l 1,19,-1
 107 659 l 1,20,-1
 160 658 l 1,21,-1
 164 603 l 2,22,23
 169 549 169 549 171 547 c 2,24,-1
 172 547 l 2,25,26
 177 547 177 547 208 578 c 0,27,28
 291 660 291 660 373 660 c 0,29,30
 376 660 376 660 381 659.5 c 128,-1,31
 386 659 386 659 388 659 c 0,32,33
 438 655 438 655 485 620.5 c 128,-1,34
 532 586 532 586 558 534 c 0,35,36
 592 467 592 467 592 389 c 0,37,38
 592 309 592 309 556 240 c 128,-1,39
 520 171 520 171 458 139 c 0,40,41
 418 118 418 118 374 118 c 0,42,43
 291 118 291 118 210 197 c 0,44,45
 173 234 173 234 170 234 c 2,46,-1
 164 176 l 1,47,-1
 160 119 l 1,48,-1
 106 117 l 1,49,-1
 52 116 l 1,50,-1
 55 178 l 2,51,52
 63 299 63 299 88 366 c 0,53,54
 91 376 91 376 91 385 c 0,55,56
 91 399 91 399 79 446 c 0,57,58
 54 540 54 540 54 628 c 2,18,-1
EndSplineSet
Validated: 1
Ligature2: "'liga' Required Ligatures lookup 0 subtable" k a l a space
Ligature2: "'liga' Required Ligatures lookup 0 subtable" k a l a
EndChar

StartChar: uniE016
Encoding: 57366 57366 133
Width: 646
GlyphClass: 3
Flags: W
LayerCount: 2
Fore
SplineSet
270 579 m 1,0,-1
 268 660 l 1,1,-1
 378 660 l 1,2,-1
 376 579 l 1,3,-1
 375 497 l 1,4,-1
 271 497 l 1,5,-1
 270 579 l 1,0,-1
56 628 m 0,6,7
 56 633 56 633 86 633 c 2,8,-1
 109 633 l 1,9,-1
 162 632 l 1,10,-1
 189 554 l 2,11,12
 211 494 211 494 211 473 c 0,13,14
 211 469 211 469 172 469 c 2,15,-1
 157 469 l 1,16,-1
 106 471 l 1,17,-1
 81 546 l 2,18,19
 56 625 56 625 56 628 c 0,6,7
483 628 m 0,20,21
 486 634 486 634 538 634 c 2,22,-1
 556 634 l 2,23,24
 575 634 575 634 581.5 631.5 c 128,-1,25
 588 629 588 629 588 620 c 0,26,27
 588 607 588 607 565 541 c 2,28,-1
 540 471 l 1,29,-1
 488 469 l 1,30,-1
 465 469 l 2,31,32
 434 469 434 469 434 475 c 0,33,34
 434 479 434 479 454 541 c 128,-1,35
 474 603 474 603 483 628 c 0,20,21
471 327 m 128,-1,37
 471 334 471 334 323 334 c 128,-1,38
 175 334 175 334 175 331 c 0,39,40
 175 324 175 324 188.5 304 c 128,-1,41
 202 284 202 284 213 274 c 0,42,43
 238 250 238 250 261 241.5 c 128,-1,44
 284 233 284 233 323 233 c 0,45,46
 390 233 390 233 429 268 c 0,47,48
 442 280 442 280 456.5 300 c 128,-1,36
 471 320 471 320 471 327 c 128,-1,37
52 434 m 0,49,50
 54 439 54 439 100 440.5 c 128,-1,51
 146 442 146 442 325 442 c 2,52,-1
 595 442 l 1,53,-1
 595 403 l 2,54,55
 595 283 595 283 517.5 201.5 c 128,-1,56
 440 120 440 120 325 120 c 2,57,-1
 323 120 l 2,58,59
 232 120 232 120 161.5 173.5 c 128,-1,60
 91 227 91 227 64 317 c 0,61,62
 51 365 51 365 51 420 c 0,63,64
 51 432 51 432 52 434 c 0,49,50
EndSplineSet
Validated: 1
Ligature2: "'liga' Required Ligatures lookup 0 subtable" k a l a m a space
Ligature2: "'liga' Required Ligatures lookup 0 subtable" k a l a m a
EndChar

StartChar: uniE017
Encoding: 57367 57367 134
Width: 650
GlyphClass: 3
Flags: W
LayerCount: 2
Fore
SplineSet
315 636 m 2,0,-1
 322 660 l 1,1,-1
 430 660 l 1,2,-1
 437 644 l 2,3,4
 449 617 449 617 520 423 c 2,5,-1
 596 221 l 1,6,-1
 594 169 l 1,7,-1
 593 119 l 1,8,-1
 487 117 l 1,9,-1
 440 117 l 2,10,11
 380 117 380 117 377 122 c 0,12,13
 373 127 373 127 373 175 c 0,14,15
 373 215 373 215 376 224 c 0,16,17
 379 230 379 230 428 230 c 0,18,19
 460 230 460 230 468 231.5 c 128,-1,20
 476 233 476 233 476 239 c 0,21,22
 476 246 476 246 433 362 c 128,-1,23
 390 478 390 478 386 483 c 0,24,25
 384 486 384 486 381 483 c 2,26,-1
 326 303 l 2,27,28
 271 123 271 123 267 120 c 0,29,30
 264 117 264 117 216 117 c 0,31,32
 208 117 208 117 188.5 117.5 c 128,-1,33
 169 118 169 118 158 118 c 2,34,-1
 54 119 l 1,35,-1
 54 227 l 1,36,37
 77 228 77 228 124 229 c 128,-1,38
 171 230 171 230 194 231 c 1,39,-1
 250 421 l 2,40,41
 264 467 264 467 279 518 c 128,-1,42
 294 569 294 569 304 600 c 128,-1,43
 314 631 314 631 315 636 c 2,0,-1
EndSplineSet
Validated: 1
Ligature2: "'liga' Required Ligatures lookup 0 subtable" k a m a
Ligature2: "'liga' Required Ligatures lookup 0 subtable" k a m a space
EndChar

StartChar: uniE018
Encoding: 57368 57368 135
Width: 647
GlyphClass: 3
Flags: W
LayerCount: 2
Fore
SplineSet
476 498 m 0,0,1
 477 501 477 501 477 505 c 128,-1,2
 477 509 477 509 474 509 c 0,3,4
 466 509 466 509 441 484 c 0,5,6
 426 468 426 468 411 445 c 128,-1,7
 396 422 396 422 396 414 c 0,8,9
 396 411 396 411 399 411 c 0,10,11
 407 411 407 411 424 425 c 0,12,13
 438 435 438 435 455 458.5 c 128,-1,14
 472 482 472 482 476 498 c 0,0,1
207 486 m 0,15,16
 183 510 183 510 177 510 c 0,17,18
 173 510 173 510 173 501 c 0,19,20
 173 484 173 484 204 447.5 c 128,-1,21
 235 411 235 411 249 411 c 0,22,23
 252 411 252 411 252 415 c 0,24,25
 252 424 252 424 238 446.5 c 128,-1,26
 224 469 224 469 207 486 c 0,15,16
54 590 m 2,27,-1
 54 662 l 1,28,-1
 87 658 l 2,29,30
 207 645 207 645 289 557 c 2,31,-1
 323 520 l 1,32,-1
 363 561 l 2,33,34
 451 647 451 647 560 658 c 2,35,-1
 593 662 l 1,36,-1
 593 584 l 2,37,38
 593 521 593 521 586.5 489.5 c 128,-1,39
 580 458 580 458 560 420 c 0,40,41
 537 378 537 378 493 342 c 128,-1,42
 449 306 449 306 403 292 c 2,43,-1
 380 285 l 1,44,45
 380 258 380 258 379 202.5 c 128,-1,46
 378 147 378 147 378 119 c 1,47,-1
 325 117 l 1,48,-1
 272 116 l 1,49,-1
 271 200 l 1,50,-1
 269 284 l 1,51,-1
 237 295 l 2,52,53
 172 318 172 318 125.5 369 c 128,-1,54
 79 420 79 420 62 488 c 0,55,56
 54 516 54 516 54 590 c 2,27,-1
EndSplineSet
Validated: 1
Ligature2: "'liga' Required Ligatures lookup 0 subtable" k a s i
Ligature2: "'liga' Required Ligatures lookup 0 subtable" k a s i space
EndChar

StartChar: uniE019
Encoding: 57369 57369 136
Width: 644
GlyphClass: 3
Flags: W
LayerCount: 2
Fore
SplineSet
61 662 m 0,0,1
 63 663 63 663 115 665 c 2,2,-1
 160 665 l 1,3,-1
 160 451 l 1,4,-1
 206 454 l 2,5,6
 309 462 309 462 387.5 515.5 c 128,-1,7
 466 569 466 569 476 639 c 2,8,-1
 479 663 l 1,9,-1
 535 664 l 1,10,-1
 590 666 l 1,11,-1
 590 648 l 2,12,13
 590 607 590 607 559 545 c 0,14,15
 544 516 544 516 510.5 480.5 c 128,-1,16
 477 445 477 445 441 421 c 2,17,-1
 403 395 l 1,18,-1
 441 370 l 2,19,20
 550 297 550 297 580 193 c 0,21,22
 590 156 590 156 590 142 c 0,23,24
 590 127 590 127 582 124 c 0,25,26
 573 121 573 121 542 121 c 0,27,28
 496 121 496 121 486 126 c 0,29,30
 476 133 476 133 476 148 c 0,31,32
 476 174 476 174 454.5 208 c 128,-1,33
 433 242 433 242 400 267 c 0,34,35
 360 297 360 297 305.5 315.5 c 128,-1,36
 251 334 251 334 201 336 c 2,37,-1
 163 336 l 1,38,-1
 161 229 l 2,39,40
 160 148 160 148 158.5 134.5 c 128,-1,41
 157 121 157 121 148 121 c 0,42,43
 146 121 146 121 138 120.5 c 128,-1,44
 130 120 130 120 118 119.5 c 128,-1,45
 106 119 106 119 97 118 c 0,46,47
 87 117 87 117 74 117 c 0,48,49
 57 117 57 117 53 125 c 0,50,51
 50 131 50 131 50 320 c 2,52,-1
 50 397 l 2,53,54
 50 491 50 491 51 541.5 c 128,-1,55
 52 592 52 592 53 620 c 128,-1,56
 54 648 54 648 56 654.5 c 128,-1,57
 58 661 58 661 61 662 c 0,0,1
EndSplineSet
Validated: 1
Ligature2: "'liga' Required Ligatures lookup 0 subtable" k e n
Ligature2: "'liga' Required Ligatures lookup 0 subtable" k e n space
EndChar

StartChar: uniE01A
Encoding: 57370 57370 137
Width: 648
GlyphClass: 3
Flags: W
LayerCount: 2
Fore
SplineSet
483 544 m 128,-1,1
 483 553 483 553 479.5 554.5 c 128,-1,2
 476 556 476 556 460 556 c 0,3,4
 434 556 434 556 434 544 c 0,5,6
 434 539 434 539 435 537 c 0,7,8
 438 531 438 531 460 531 c 0,9,10
 476 531 476 531 479.5 533 c 128,-1,0
 483 535 483 535 483 544 c 128,-1,1
323 544 m 128,-1,12
 323 553 323 553 319.5 554.5 c 128,-1,13
 316 556 316 556 299 556 c 0,14,15
 276 556 276 556 273 549 c 0,16,17
 272 547 272 547 272 543 c 0,18,19
 272 531 272 531 300 531 c 0,20,21
 316 531 316 531 319.5 533 c 128,-1,11
 323 535 323 535 323 544 c 128,-1,12
164 424 m 1,22,23
 164 464 164 464 163 544.5 c 128,-1,24
 162 625 162 625 162 665 c 1,25,26
 234 664 234 664 378.5 664 c 128,-1,27
 523 664 523 664 595 663 c 1,28,-1
 595 424 l 1,29,-1
 516 423 l 2,30,31
 463 422 463 422 449.5 420 c 128,-1,32
 436 418 436 418 434 411 c 0,33,34
 432 405 432 405 432 403 c 0,35,36
 432 393 432 393 471 375 c 0,37,38
 532 346 532 346 564.5 289 c 128,-1,39
 597 232 597 232 597 156 c 2,40,-1
 597 126 l 1,41,-1
 483 126 l 1,42,-1
 483 168 l 2,43,44
 483 214 483 214 469.5 237 c 128,-1,45
 456 260 456 260 421 276 c 0,46,47
 401 286 401 286 377 286 c 0,48,49
 331 286 331 286 300 250 c 0,50,51
 285 233 285 233 280 217.5 c 128,-1,52
 275 202 275 202 272 166 c 2,53,-1
 268 126 l 1,54,55
 173 173 173 173 56 233 c 1,56,-1
 54 281 l 1,57,-1
 54 300 l 2,58,59
 54 332 54 332 57 335 c 2,60,-1
 59 335 l 2,61,62
 71 335 71 335 123 309 c 2,63,-1
 183 279 l 1,64,-1
 195 295 l 2,65,66
 211 319 211 319 238 342 c 128,-1,67
 265 365 265 365 289 376 c 0,68,69
 312 386 312 386 317.5 391 c 128,-1,70
 323 396 323 396 323 406 c 2,71,-1
 323 421 l 1,72,-1
 244 423 l 1,73,-1
 164 424 l 1,22,23
EndSplineSet
Validated: 1
Ligature2: "'liga' Required Ligatures lookup 0 subtable" k e p e k e n space
Ligature2: "'liga' Required Ligatures lookup 0 subtable" k e p e k e n
EndChar

StartChar: uniE01B
Encoding: 57371 57371 138
Width: 641
GlyphClass: 3
Flags: W
LayerCount: 2
Fore
SplineSet
262 462 m 2,0,1
 252 497 252 497 213 497 c 0,2,3
 208 497 208 497 196 495 c 0,4,5
 159 485 159 485 159 418 c 0,6,7
 159 299 159 299 247 251 c 0,8,9
 266 241 266 241 278 238.5 c 128,-1,10
 290 236 290 236 319 236 c 0,11,12
 388 236 388 236 433 281 c 0,13,14
 457 305 457 305 466 330.5 c 128,-1,15
 475 356 475 356 477 405 c 0,16,17
 477 410 477 410 477.5 418.5 c 128,-1,18
 478 427 478 427 478 431 c 0,19,20
 478 461 478 461 471 473.5 c 128,-1,21
 464 486 464 486 444 494 c 0,22,23
 432 499 432 499 427 499 c 0,24,25
 423 499 423 499 407 492 c 0,26,27
 388 483 388 483 379 464 c 2,28,-1
 369 444 l 1,29,-1
 268 444 l 1,30,-1
 262 462 l 2,0,1
267 606 m 1,31,-1
 267 661 l 1,32,-1
 375 661 l 1,33,-1
 375 606 l 1,34,-1
 421 606 l 1,35,-1
 436 606 l 2,36,37
 467 606 467 606 495 592 c 128,-1,38
 523 578 523 578 547 552 c 128,-1,39
 571 526 571 526 580 499 c 128,-1,40
 589 472 589 472 589 415 c 0,41,42
 589 354 589 354 579 323 c 0,43,44
 551 231 551 231 480.5 178 c 128,-1,45
 410 125 410 125 318 125 c 0,46,47
 286 125 286 125 262 130 c 0,48,49
 207 141 207 141 156.5 180.5 c 128,-1,50
 106 220 106 220 80 274 c 0,51,52
 51 332 51 332 51 403 c 0,53,54
 51 407 51 407 51.5 416.5 c 128,-1,55
 52 426 52 426 52 431 c 0,56,57
 54 481 54 481 63.5 507.5 c 128,-1,58
 73 534 73 534 99 560 c 128,-1,59
 125 586 125 586 151.5 596 c 128,-1,60
 178 606 178 606 220 606 c 2,61,-1
 267 606 l 1,31,-1
EndSplineSet
Validated: 1
Ligature2: "'liga' Required Ligatures lookup 0 subtable" k i l i space
Ligature2: "'liga' Required Ligatures lookup 0 subtable" k i l i
EndChar

StartChar: uniE01C
Encoding: 57372 57372 139
Width: 647
GlyphClass: 3
Flags: W
LayerCount: 2
Fore
SplineSet
440 506 m 2,0,-1
 418 550 l 1,1,-1
 325 552 l 1,2,-1
 231 553 l 1,3,4
 216 522 216 522 184 460 c 1,5,-1
 251 380 l 2,6,7
 319 299 319 299 325 301 c 0,8,9
 329 301 329 301 384.5 366 c 128,-1,10
 440 431 440 431 456 454 c 0,11,12
 458 458 458 458 458 461 c 0,13,14
 458 470 458 470 440 506 c 2,0,-1
54 446 m 1,15,16
 114 565 114 565 161 661 c 1,17,-1
 486 661 l 1,18,19
 546 542 546 542 593 446 c 1,20,-1
 461 287 l 2,21,22
 328 127 328 127 324 127 c 128,-1,23
 320 127 320 127 215 253 c 0,24,25
 180 295 180 295 159 320 c 2,26,-1
 54 446 l 1,15,16
EndSplineSet
Validated: 33
Ligature2: "'liga' Required Ligatures lookup 0 subtable" k i w e n
Ligature2: "'liga' Required Ligatures lookup 0 subtable" k i w e n space
EndChar

StartChar: uniE01D
Encoding: 57373 57373 140
Width: 638
GlyphClass: 3
Flags: W
LayerCount: 2
Fore
SplineSet
236 519 m 0,0,1
 222 532 222 532 205 532 c 0,2,3
 179 532 179 532 179 505 c 0,4,5
 179 494 179 494 198 465 c 0,6,7
 222 431 222 431 222 392 c 0,8,9
 222 359 222 359 203 328 c 0,10,11
 178 287 178 287 178 278 c 0,12,13
 178 274 178 274 183 266 c 0,14,15
 192 254 192 254 210 254 c 0,16,17
 225 254 225 254 234 263 c 0,18,19
 246 276 246 276 270 285.5 c 128,-1,20
 294 295 294 295 317 295 c 0,21,22
 364 295 364 295 400 266 c 0,23,24
 417 254 417 254 431 254 c 0,25,26
 443 254 443 254 451 261.5 c 128,-1,27
 459 269 459 269 459 280 c 0,28,29
 459 296 459 296 447 309 c 0,30,31
 418 343 418 343 417 390 c 0,32,33
 417 441 417 441 446 476 c 0,34,35
 459 492 459 492 459 505 c 0,36,37
 459 516 459 516 451 524 c 128,-1,38
 443 532 443 532 432 532 c 0,39,40
 417 532 417 532 398 518 c 0,41,42
 363 490 363 490 323 490 c 2,43,-1
 318 490 l 2,44,45
 271 490 271 490 236 519 c 0,0,1
168 656 m 0,46,47
 184 660 184 660 205 660 c 0,48,49
 262 660 262 660 298 632 c 0,50,51
 313 621 313 621 317 621 c 128,-1,52
 321 621 321 621 329 626 c 0,53,54
 364 648 364 648 379 652.5 c 128,-1,55
 394 657 394 657 428 658 c 0,56,57
 467 658 467 658 491 649 c 128,-1,58
 515 640 515 640 539 615 c 0,59,60
 587 567 587 567 587 500 c 0,61,62
 587 452 587 452 559 415 c 0,63,64
 548 401 548 401 548 393 c 128,-1,65
 548 385 548 385 559 371 c 0,66,67
 587 335 587 335 587 284 c 0,68,69
 587 275 587 275 586 270 c 0,70,71
 580 205 580 205 535 164.5 c 128,-1,72
 490 124 490 124 431 124 c 0,73,74
 388 124 388 124 348 148 c 2,75,-1
 318 166 l 1,76,-1
 295 151 l 2,77,78
 256 125 256 125 211 125 c 0,79,80
 167 125 167 125 129 149 c 128,-1,81
 91 173 91 173 71 212 c 0,82,83
 57 240 57 240 57 282 c 0,84,85
 57 312 57 312 65 334 c 0,86,87
 69 344 69 344 70 350 c 128,-1,88
 71 356 71 356 71 358 c 128,-1,89
 71 360 71 360 73.5 364 c 128,-1,90
 76 368 76 368 82 376 c 2,91,-1
 93 393 l 1,92,-1
 83 408 l 2,93,94
 51 454 51 454 51 504 c 0,95,96
 51 538 51 538 66 571 c 0,97,98
 97 638 97 638 168 656 c 0,46,47
EndSplineSet
Validated: 1
Ligature2: "'liga' Required Ligatures lookup 0 subtable" k o
Ligature2: "'liga' Required Ligatures lookup 0 subtable" k o space
EndChar

StartChar: uniE01E
Encoding: 57374 57374 141
Width: 640
GlyphClass: 3
Flags: W
LayerCount: 2
Fore
SplineSet
184 656 m 0,0,1
 208 660 208 660 232 660 c 0,2,3
 261 660 261 660 269 656 c 0,4,5
 273 653 273 653 273 646 c 0,6,7
 273 633 273 633 256 575 c 0,8,9
 251 556 251 556 247 552 c 128,-1,10
 243 548 243 548 228 546 c 0,11,12
 209 544 209 544 193.5 531 c 128,-1,13
 178 518 178 518 174 501 c 0,14,15
 173 498 173 498 173 493 c 0,16,17
 173 461 173 461 210 438 c 0,18,19
 249 413 249 413 271 375 c 128,-1,20
 293 337 293 337 293 295 c 0,21,22
 293 279 293 279 288 259 c 0,23,24
 273 205 273 205 233 169 c 0,25,26
 207 146 207 146 182 137 c 128,-1,27
 157 128 157 128 117 127 c 2,28,-1
 71 127 l 1,29,-1
 72 145 l 2,30,31
 75 172 75 172 83 201 c 0,32,33
 90 226 90 226 94.5 232 c 128,-1,34
 99 238 99 238 108 238 c 0,35,36
 133 238 133 238 151 255.5 c 128,-1,37
 169 273 169 273 169 295 c 0,38,39
 169 318 169 318 148 335 c 0,40,41
 90 381 90 381 71 410.5 c 128,-1,42
 52 440 52 440 52 485 c 0,43,44
 52 523 52 523 60.5 547.5 c 128,-1,45
 69 572 69 572 93 599 c 0,46,47
 109 617 109 617 136 634 c 128,-1,48
 163 651 163 651 184 656 c 0,0,1
472 653 m 0,49,50
 492 660 492 660 531 660 c 0,51,52
 562 660 562 660 567 655 c 0,53,54
 569 653 569 653 569 649 c 0,55,56
 569 640 569 640 558 601 c 0,57,58
 543 550 543 550 543 549 c 0,59,60
 543 547 543 547 529 547 c 0,61,62
 505 547 505 547 482 525 c 0,63,64
 471 515 471 515 471 490 c 0,65,66
 471 472 471 472 474 465.5 c 128,-1,67
 477 459 477 459 492 448 c 0,68,69
 541 408 541 408 558.5 385.5 c 128,-1,70
 576 363 576 363 584 327 c 0,71,72
 588 305 588 305 588 294 c 0,73,74
 588 227 588 227 534 176 c 0,75,76
 506 149 506 149 480.5 138.5 c 128,-1,77
 455 128 455 128 413 126 c 0,78,79
 403 125 403 125 389 125 c 0,80,81
 364 125 364 125 364 140 c 0,82,83
 364 146 364 146 373 180 c 0,84,85
 385 224 385 224 387 229 c 0,86,87
 390 238 390 238 404 238 c 0,88,89
 442 238 442 238 458 269 c 0,90,91
 466 283 466 283 466 296 c 0,92,93
 466 323 466 323 429 347 c 0,94,95
 347 399 347 399 347 491 c 0,96,97
 347 529 347 529 359 556 c 0,98,99
 392 628 392 628 472 653 c 0,49,50
EndSplineSet
Validated: 1
Ligature2: "'liga' Required Ligatures lookup 0 subtable" k o n space
Ligature2: "'liga' Required Ligatures lookup 0 subtable" k o n
EndChar

StartChar: uniE01F
Encoding: 57375 57375 142
Width: 636
GlyphClass: 3
Flags: W
LayerCount: 2
Fore
SplineSet
439 289 m 2,0,-1
 414 336 l 1,1,-1
 225 336 l 1,2,-1
 202 290 l 2,3,4
 179 246 179 246 179 238 c 0,5,6
 179 233 179 233 321 233 c 0,7,8
 462 233 462 233 462 238 c 0,9,10
 462 245 462 245 439 289 c 2,0,-1
341 484 m 0,11,12
 324 515 324 515 320 515 c 0,13,14
 314 515 314 515 300 486 c 0,15,16
 289 464 289 464 289 456 c 0,17,18
 289 444 289 444 321 444 c 0,19,20
 352 444 352 444 352 456 c 0,21,22
 352 464 352 464 341 484 c 0,11,12
161 449 m 1,23,24
 196 519 196 519 266 661 c 1,25,-1
 374 661 l 1,26,27
 408 590 408 590 478 450 c 1,28,-1
 531 448 l 1,29,-1
 584 447 l 1,30,-1
 584 339 l 1,31,-1
 562 337 l 2,32,33
 540 335 540 335 540 332 c 0,34,35
 540 328 540 328 563 284 c 2,36,-1
 586 239 l 1,37,-1
 586 125 l 1,38,-1
 50 125 l 1,39,-1
 50 228 l 1,40,-1
 76 279 l 2,41,42
 102 331 102 331 102 333 c 128,-1,43
 102 335 102 335 77 337 c 2,44,-1
 53 339 l 1,45,-1
 51 390 l 1,46,-1
 51 412 l 2,47,48
 51 442 51 442 56 445 c 0,49,50
 64 449 64 449 112 449 c 2,51,-1
 161 449 l 1,23,24
EndSplineSet
Validated: 1
Ligature2: "'liga' Required Ligatures lookup 0 subtable" k u l e space
Ligature2: "'liga' Required Ligatures lookup 0 subtable" k u l e
EndChar

StartChar: uniE020
Encoding: 57376 57376 143
Width: 673
GlyphClass: 3
Flags: W
LayerCount: 2
Fore
SplineSet
352 542 m 128,-1,1
 342 552 342 552 334 552 c 0,2,3
 327 552 327 552 319 544 c 128,-1,4
 311 536 311 536 311 524 c 0,5,6
 311 513 311 513 317 507 c 128,-1,7
 323 501 323 501 333 501 c 0,8,9
 346 501 346 501 354 510 c 0,10,11
 362 520 362 520 362 525 c 0,12,0
 362 532 362 532 352 542 c 128,-1,1
290 654 m 0,13,14
 301 659 301 659 327 659 c 0,15,16
 368 659 368 659 396 646 c 0,17,18
 438 625 438 625 459 584 c 0,19,20
 469 565 469 565 469 529 c 0,21,22
 469 489 469 489 457 468 c 0,23,24
 438 433 438 433 404 413 c 128,-1,25
 370 393 370 393 333 393 c 0,26,27
 302 393 302 393 276 406 c 0,28,29
 202 443 202 443 202 526 c 0,30,31
 202 567 202 567 225 602.5 c 128,-1,32
 248 638 248 638 290 654 c 0,13,14
205 276 m 0,33,34
 198 285 198 285 188 285 c 0,35,36
 180 285 180 285 171 275.5 c 128,-1,37
 162 266 162 266 162 258 c 128,-1,38
 162 250 162 250 171.5 241.5 c 128,-1,39
 181 233 181 233 189 233 c 0,40,41
 199 233 199 233 205.5 240.5 c 128,-1,42
 212 248 212 248 212 258 c 0,43,44
 212 269 212 269 205 276 c 0,33,34
136 382 m 0,45,46
 161 393 161 393 186 393 c 0,47,48
 221 393 221 393 254 374 c 128,-1,49
 287 355 287 355 308 321 c 0,50,51
 319 303 319 303 319 259 c 0,52,53
 319 222 319 222 312.5 204.5 c 128,-1,54
 306 187 306 187 282 164 c 0,55,56
 263 144 263 144 246 136 c 128,-1,57
 229 128 229 128 202 126 c 0,58,59
 196 125 196 125 185 125 c 0,60,61
 139 125 139 125 101 157 c 0,62,63
 54 198 54 198 54 259 c 0,64,65
 54 298 54 298 75.5 331.5 c 128,-1,66
 97 365 97 365 136 382 c 0,45,46
497 279 m 0,67,68
 487 284 487 284 481 284 c 0,69,70
 471 284 471 284 462 271 c 0,71,72
 458 264 458 264 458 257 c 0,73,74
 458 247 458 247 465 240.5 c 128,-1,75
 472 234 472 234 482 234 c 0,76,77
 488 234 488 234 494 237 c 0,78,79
 508 243 508 243 508 260 c 0,80,81
 508 273 508 273 497 279 c 0,67,68
426 379 m 0,82,83
 456 393 456 393 483 393 c 0,84,85
 531 393 531 393 570 359.5 c 128,-1,86
 609 326 609 326 618 273 c 0,87,88
 619 269 619 269 619 261 c 0,89,90
 619 217 619 217 590 178 c 0,91,92
 552 125 552 125 485 125 c 0,93,94
 444 125 444 125 408.5 147.5 c 128,-1,95
 373 170 373 170 358 210 c 0,96,97
 348 237 348 237 348 257 c 0,98,99
 348 276 348 276 355 298 c 0,100,101
 371 353 371 353 426 379 c 0,82,83
EndSplineSet
Validated: 1
Ligature2: "'liga' Required Ligatures lookup 0 subtable" k u l u p u
Ligature2: "'liga' Required Ligatures lookup 0 subtable" k u l u p u space
EndChar

StartChar: uniE021
Encoding: 57377 57377 144
Width: 643
GlyphClass: 3
Flags: W
LayerCount: 2
Fore
SplineSet
146 640 m 2,0,-1
 178 656 l 1,1,-1
 330 654 l 2,2,3
 483 652 483 652 494 649 c 0,4,5
 509 644 509 644 529 629 c 128,-1,6
 549 614 549 614 562 597 c 0,7,8
 580 573 580 573 586.5 547 c 128,-1,9
 593 521 593 521 593 468 c 0,10,11
 593 462 593 462 592.5 447 c 128,-1,12
 592 432 592 432 592 424 c 0,13,14
 590 328 590 328 577 297 c 0,15,16
 539 200 539 200 450 152 c 0,17,18
 390 120 390 120 341 120 c 2,19,-1
 324 120 l 1,20,-1
 326 175 l 1,21,-1
 327 230 l 1,22,-1
 351 234 l 2,23,24
 375 238 375 238 402.5 253 c 128,-1,25
 430 268 430 268 446 287 c 0,26,27
 468 314 468 314 474.5 337.5 c 128,-1,28
 481 361 481 361 483 424 c 0,29,30
 483 431 483 431 483.5 443.5 c 128,-1,31
 484 456 484 456 484 461 c 0,32,33
 484 501 484 501 478 517.5 c 128,-1,34
 472 534 472 534 456 542 c 0,35,36
 446 547 446 547 320 547 c 0,37,38
 228 547 228 547 211 545.5 c 128,-1,39
 194 544 194 544 184 535 c 0,40,41
 171 522 171 522 167 509 c 0,42,43
 165 499 165 499 157.5 497.5 c 128,-1,44
 150 496 150 496 110 496 c 2,45,-1
 55 496 l 1,46,-1
 58 521 l 2,47,48
 67 600 67 600 146 640 c 2,0,-1
247 461 m 0,49,50
 247 469 247 469 276 469 c 2,51,-1
 300 469 l 1,52,-1
 352 468 l 1,53,-1
 378 394 l 2,54,55
 400 331 400 331 400 314 c 0,56,57
 400 306 400 306 369 306 c 2,58,-1
 347 306 l 1,59,-1
 297 308 l 1,60,-1
 272 380 l 2,61,62
 247 457 247 457 247 461 c 0,49,50
EndSplineSet
Validated: 1
Ligature2: "'liga' Required Ligatures lookup 0 subtable" k u t e
Ligature2: "'liga' Required Ligatures lookup 0 subtable" k u t e space
EndChar

StartChar: uniE022
Encoding: 57378 57378 145
Width: 380
GlyphClass: 3
Flags: W
LayerCount: 2
Fore
SplineSet
56 613 m 1,0,-1
 54 666 l 1,1,-1
 72 666 l 2,2,3
 158 666 158 666 232.5 601 c 128,-1,4
 307 536 307 536 323 447 c 0,5,6
 327 426 327 426 327 399 c 0,7,8
 327 302 327 302 265 226.5 c 128,-1,9
 203 151 203 151 105 132 c 0,10,11
 79 128 79 128 75 128 c 0,12,13
 63 128 63 128 59 135 c 128,-1,14
 55 142 55 142 55 162 c 0,15,16
 55 165 55 165 55.5 173 c 128,-1,17
 56 181 56 181 56 186 c 2,18,-1
 57 236 l 1,19,-1
 84 241 l 2,20,21
 147 255 147 255 180.5 295.5 c 128,-1,22
 214 336 214 336 214 398 c 0,23,24
 214 438 214 438 198 469 c 0,25,26
 186 496 186 496 166 514 c 0,27,28
 126 546 126 546 78 556 c 2,29,-1
 57 560 l 1,30,-1
 56 613 l 1,0,-1
EndSplineSet
Validated: 1
Ligature2: "'liga' Required Ligatures lookup 0 subtable" l a
Ligature2: "'liga' Required Ligatures lookup 0 subtable" l a space
EndChar

StartChar: uniE023
Encoding: 57379 57379 146
Width: 643
GlyphClass: 3
Flags: W
LayerCount: 2
Fore
SplineSet
401 545 m 0,0,1
 383 552 383 552 374 552 c 0,2,3
 360 552 360 552 338 541 c 0,4,5
 270 505 270 505 270 394 c 0,6,7
 270 306 270 306 315 261 c 0,8,9
 342 234 342 234 373 234 c 0,10,11
 428 234 428 234 461 305 c 0,12,13
 470 324 470 324 472.5 339 c 128,-1,14
 475 354 475 354 475 393 c 0,15,16
 475 452 475 452 463 478 c 0,17,18
 440 528 440 528 401 545 c 0,0,1
330 658 m 0,19,20
 338 660 338 660 355 660 c 0,21,22
 359 660 359 660 368 659.5 c 128,-1,23
 377 659 377 659 382 659 c 0,24,25
 424 657 424 657 456 640 c 0,26,27
 505 614 505 614 539.5 560.5 c 128,-1,28
 574 507 574 507 584 441 c 0,29,30
 589 414 589 414 589 392 c 0,31,32
 589 372 589 372 584 344 c 0,33,34
 560 203 560 203 456 145 c 0,35,36
 433 133 433 133 420.5 130 c 128,-1,37
 408 127 408 127 374 127 c 0,38,39
 342 127 342 127 329 129.5 c 128,-1,40
 316 132 316 132 296 142 c 0,41,42
 253 163 253 163 219 207 c 128,-1,43
 185 251 185 251 170 304 c 2,44,-1
 161 336 l 1,45,-1
 107 337 l 1,46,-1
 52 339 l 1,47,-1
 52 447 l 1,48,-1
 107 448 l 1,49,-1
 161 450 l 1,50,-1
 170 482 l 2,51,52
 188 545 188 545 232.5 594.5 c 128,-1,53
 277 644 277 644 330 658 c 0,19,20
EndSplineSet
Validated: 1
Ligature2: "'liga' Required Ligatures lookup 0 subtable" l a p e space
Ligature2: "'liga' Required Ligatures lookup 0 subtable" l a p e
EndChar

StartChar: uniE024
Encoding: 57380 57380 147
Width: 645
GlyphClass: 3
Flags: W
LayerCount: 2
Fore
SplineSet
323 299 m 128,-1,1
 317 299 317 299 291.5 280 c 128,-1,2
 266 261 266 261 249 244 c 2,3,-1
 238 233 l 1,4,-1
 322 233 l 2,5,6
 404 233 404 233 404 238 c 0,7,8
 404 242 404 242 366.5 270.5 c 128,-1,0
 329 299 329 299 323 299 c 128,-1,1
421 543 m 128,-1,10
 421 547 421 547 416 547 c 0,11,12
 409 547 409 547 396.5 540 c 128,-1,13
 384 533 384 533 384 529 c 0,14,15
 384 527 384 527 390 527 c 128,-1,16
 396 527 396 527 408.5 533 c 128,-1,9
 421 539 421 539 421 543 c 128,-1,10
261 534 m 0,17,18
 248 547 248 547 230 547 c 0,19,20
 225 547 225 547 225 544 c 0,21,22
 225 540 225 540 238 533.5 c 128,-1,23
 251 527 251 527 260 527 c 0,24,25
 265 527 265 527 265.5 528.5 c 128,-1,26
 266 530 266 530 261 534 c 0,17,18
56 621 m 2,27,-1
 53 662 l 1,28,-1
 143 659 l 2,29,30
 214 657 214 657 246 651 c 128,-1,31
 278 645 278 645 307 627 c 0,32,33
 316 621 316 621 322 621 c 128,-1,34
 328 621 328 621 357 634 c 0,35,36
 392 650 392 650 426 655.5 c 128,-1,37
 460 661 460 661 523 661 c 2,38,-1
 592 661 l 1,39,-1
 590 619 l 2,40,41
 587 574 587 574 573 545 c 0,42,43
 552 502 552 502 508.5 469 c 128,-1,44
 465 436 465 436 411 421 c 0,45,46
 380 413 380 413 380 405 c 128,-1,47
 380 397 380 397 485 316 c 2,48,-1
 588 236 l 1,49,-1
 590 180 l 1,50,-1
 591 125 l 1,51,-1
 55 125 l 1,52,-1
 55 232 l 1,53,-1
 155 310 l 2,54,55
 231 369 231 369 250 384.5 c 128,-1,56
 269 400 269 400 269 405 c 0,57,58
 269 408 269 408 264 411 c 0,59,60
 252 418 252 418 237 421 c 0,61,62
 213 425 213 425 179 444.5 c 128,-1,63
 145 464 145 464 121 485 c 0,64,65
 60 541 60 541 56 621 c 2,27,-1
EndSplineSet
Validated: 1
Ligature2: "'liga' Required Ligatures lookup 0 subtable" l a s o space
Ligature2: "'liga' Required Ligatures lookup 0 subtable" l a s o
EndChar

StartChar: uniE025
Encoding: 57381 57381 148
Width: 639
GlyphClass: 3
Flags: W
LayerCount: 2
Fore
SplineSet
369 388 m 0,0,1
 366 393 366 393 263 393 c 2,2,-1
 160 393 l 1,3,-1
 160 373 l 2,4,5
 160 346 160 346 173.5 314.5 c 128,-1,6
 187 283 187 283 207 263 c 0,7,8
 236 234 236 234 261 234 c 0,9,10
 271 234 271 234 292 241 c 0,11,12
 350 262 350 262 366 351 c 0,13,14
 370 377 370 377 370 383 c 0,15,16
 370 387 370 387 369 388 c 0,0,1
293 547 m 0,17,18
 279 553 279 553 265 553 c 0,19,20
 246 553 246 553 227 542 c 0,21,22
 193 521 193 521 193 507 c 0,23,24
 193 506 193 506 193.5 506 c 128,-1,25
 194 506 194 506 194 505 c 0,26,27
 198 501 198 501 266 501 c 0,28,29
 336 501 336 501 336 508 c 128,-1,30
 336 515 336 515 321 529 c 128,-1,31
 306 543 306 543 293 547 c 0,17,18
204 652 m 0,32,33
 221 660 221 660 257 660 c 0,34,35
 309 660 309 660 342 644 c 0,36,37
 404 615 404 615 445 538 c 2,38,-1
 465 502 l 1,39,40
 485 502 485 502 525.5 500 c 128,-1,41
 566 498 566 498 586 498 c 1,42,-1
 586 395 l 1,43,-1
 534 393 l 1,44,-1
 482 390 l 1,45,-1
 479 359 l 2,46,47
 472 299 472 299 445 246 c 0,48,49
 431 219 431 219 400.5 188.5 c 128,-1,50
 370 158 370 158 343 144 c 0,51,52
 322 133 322 133 309.5 130 c 128,-1,53
 297 127 297 127 266 127 c 0,54,55
 220 127 220 127 189 142 c 0,56,57
 145 164 145 164 109.5 210.5 c 128,-1,58
 74 257 74 257 60 313 c 0,59,60
 52 342 52 342 52 396 c 0,61,62
 52 485 52 485 93 554 c 128,-1,63
 134 623 134 623 204 652 c 0,32,33
EndSplineSet
Validated: 1
Ligature2: "'liga' Required Ligatures lookup 0 subtable" l a w a
Ligature2: "'liga' Required Ligatures lookup 0 subtable" l a w a space
EndChar

StartChar: uniE026
Encoding: 57382 57382 149
Width: 638
GlyphClass: 3
Flags: W
LayerCount: 2
Fore
SplineSet
477 341 m 1,0,-1
 477 553 l 1,1,-1
 163 553 l 1,2,-1
 160 541 l 2,3,4
 158 533 158 533 158 495 c 0,5,6
 158 487 158 487 158.5 467.5 c 128,-1,7
 159 448 159 448 159 437 c 2,8,-1
 160 344 l 1,9,-1
 319 342 l 1,10,-1
 477 341 l 1,0,-1
53 657 m 128,-1,12
 56 660 56 660 245 660 c 2,13,-1
 322 660 l 1,14,-1
 588 658 l 1,15,-1
 588 127 l 1,16,-1
 480 127 l 1,17,-1
 478 180 l 1,18,-1
 477 234 l 1,19,20
 460 234 460 234 426.5 232 c 128,-1,21
 393 230 393 230 377 230 c 1,22,-1
 375 178 l 1,23,-1
 374 125 l 1,24,-1
 266 125 l 1,25,-1
 265 178 l 1,26,-1
 263 230 l 1,27,-1
 214 232 l 2,28,29
 209 232 209 232 201 232.5 c 128,-1,30
 193 233 193 233 190 233 c 0,31,32
 171 233 171 233 165 228.5 c 128,-1,33
 159 224 159 224 159 210 c 0,34,35
 159 206 159 206 161 182 c 0,36,37
 162 174 162 174 162 156 c 0,38,39
 162 142 162 142 161 138 c 2,40,-1
 157 124 l 1,41,-1
 107 126 l 1,42,-1
 57 127 l 1,43,-1
 54 199 l 2,44,45
 50 272 50 272 50 494 c 0,46,11
 50 654 50 654 53 657 c 128,-1,12
EndSplineSet
Validated: 1
Ligature2: "'liga' Required Ligatures lookup 0 subtable" l e n
Ligature2: "'liga' Required Ligatures lookup 0 subtable" l e n space
EndChar

StartChar: uniE027
Encoding: 57383 57383 150
Width: 646
GlyphClass: 3
Flags: W
LayerCount: 2
Fore
SplineSet
149 662 m 2,0,-1
 173 662 l 2,1,2
 233 659 233 659 237 653 c 0,3,4
 238 652 238 652 258.5 616.5 c 128,-1,5
 279 581 279 581 300 547 c 128,-1,6
 321 513 321 513 324 513 c 0,7,8
 328 514 328 514 366 578 c 128,-1,9
 404 642 404 642 410 657 c 0,10,11
 412 660 412 660 469 664 c 0,12,13
 507 666 507 666 510 666 c 0,14,15
 527 666 527 666 530 660 c 2,16,-1
 530 659 l 2,17,18
 530 648 530 648 479 557 c 0,19,20
 425 462 425 462 425 455 c 0,21,22
 425 450 425 450 509 448 c 2,23,-1
 592 447 l 1,24,-1
 592 344 l 1,25,-1
 510 342 l 2,26,27
 427 340 427 340 424 337 c 0,28,29
 424 333 424 333 451 281.5 c 128,-1,30
 478 230 478 230 506 180 c 2,31,-1
 533 130 l 2,32,33
 533 125 533 125 473 125 c 2,34,-1
 412 125 l 1,35,-1
 375 191 l 2,36,37
 334 264 334 264 334 265 c 0,38,39
 331 273 331 273 326 273 c 0,40,41
 316 273 316 273 285 216 c 0,42,43
 275 198 275 198 260 172 c 128,-1,44
 245 146 245 146 243 142 c 2,45,-1
 233 125 l 1,46,-1
 172 125 l 2,47,48
 110 125 110 125 110 127 c 0,49,50
 110 128 110 128 167 229 c 128,-1,51
 224 330 224 330 224 335 c 0,52,53
 224 341 224 341 139 341 c 2,54,-1
 53 341 l 1,55,-1
 55 394 l 1,56,-1
 56 447 l 1,57,-1
 140 448 l 2,58,59
 222 449 222 449 222 456 c 2,60,-1
 222 457 l 2,61,62
 221 458 221 458 221 459 c 2,63,-1
 210 480 l 2,64,65
 198 500 198 500 182 528.5 c 128,-1,66
 166 557 166 557 150 586.5 c 128,-1,67
 134 616 134 616 123 637 c 128,-1,68
 112 658 112 658 112 660 c 128,-1,69
 112 662 112 662 149 662 c 2,0,-1
EndSplineSet
Validated: 1
Ligature2: "'liga' Required Ligatures lookup 0 subtable" l e t e
Ligature2: "'liga' Required Ligatures lookup 0 subtable" l e t e space
EndChar

StartChar: uniE028
Encoding: 57384 57384 151
Width: 541
GlyphClass: 3
Flags: W
LayerCount: 2
Fore
SplineSet
53 607 m 2,0,1
 53 661 53 661 57 661 c 0,2,3
 62 661 62 661 274 554 c 2,4,-1
 487 448 l 1,5,6
 486 430 486 430 485 393.5 c 128,-1,7
 484 357 484 357 483 339 c 1,8,-1
 272 232 l 2,9,10
 68 128 68 128 57 128 c 0,11,12
 53 128 53 128 53 182 c 2,13,-1
 53 233 l 1,14,-1
 207 310 l 2,15,16
 364 387 364 387 364 392 c 0,17,18
 364 399 364 399 210 475 c 2,19,-1
 53 553 l 1,20,-1
 53 607 l 2,0,1
EndSplineSet
Validated: 1
Ligature2: "'liga' Required Ligatures lookup 0 subtable" l i space
Ligature2: "'liga' Required Ligatures lookup 0 subtable" l i
EndChar

StartChar: uniE029
Encoding: 57385 57385 152
Width: 430
GlyphClass: 3
Flags: W
LayerCount: 2
Fore
SplineSet
55 544 m 0,0,1
 55 553 55 553 106 553 c 0,2,3
 155 553 155 553 162 546 c 0,4,5
 168 538 168 538 189 471 c 0,6,7
 209 407 209 407 215 407 c 0,8,9
 217 407 217 407 235 460 c 0,10,11
 240 475 240 475 249 501 c 128,-1,12
 258 527 258 527 259 531 c 2,13,-1
 267 553 l 1,14,-1
 321 553 l 2,15,16
 375 553 375 553 375 549 c 0,17,18
 375 543 375 543 323 387 c 2,19,-1
 270 228 l 1,20,-1
 159 228 l 1,21,-1
 151 250 l 2,22,23
 136 291 136 291 95.5 415 c 128,-1,24
 55 539 55 539 55 544 c 0,0,1
EndSplineSet
Validated: 1
Ligature2: "'liga' Required Ligatures lookup 0 subtable" l i l i space
Ligature2: "'liga' Required Ligatures lookup 0 subtable" l i l i
EndChar

StartChar: uniE02A
Encoding: 57386 57386 153
Width: 644
GlyphClass: 3
Flags: W
LayerCount: 2
Fore
SplineSet
178 509 m 0,0,1
 204 516 204 516 224 516 c 0,2,3
 303 516 303 516 354 447 c 0,4,5
 379 414 379 414 389.5 406 c 128,-1,6
 400 398 400 398 419 398 c 0,7,8
 460 398 460 398 470 436 c 0,9,10
 472 446 472 446 479.5 447.5 c 128,-1,11
 487 449 487 449 529 449 c 0,12,13
 590 449 590 449 590 433 c 0,14,15
 590 422 590 422 586 409 c 0,16,17
 569 348 569 348 522.5 309 c 128,-1,18
 476 270 476 270 421 270 c 0,19,20
 404 270 404 270 389 274 c 0,21,22
 314 292 314 292 274 356 c 0,23,24
 260 377 260 377 255 380 c 0,25,26
 242 390 242 390 225 390 c 0,27,28
 189 390 189 390 175 360 c 2,29,-1
 166 342 l 1,30,-1
 118 340 l 2,31,32
 112 340 112 340 103 339.5 c 128,-1,33
 94 339 94 339 90 339 c 0,34,35
 68 339 68 339 60.5 342.5 c 128,-1,36
 53 346 53 346 53 355 c 0,37,38
 53 358 53 358 55 368 c 0,39,40
 65 419 65 419 98.5 458 c 128,-1,41
 132 497 132 497 178 509 c 0,0,1
EndSplineSet
Validated: 1
Ligature2: "'liga' Required Ligatures lookup 0 subtable" l i n j a
Ligature2: "'liga' Required Ligatures lookup 0 subtable" l i n j a space
EndChar

StartChar: uniE02B
Encoding: 57387 57387 154
Width: 636
GlyphClass: 3
Flags: W
LayerCount: 2
Fore
SplineSet
478 228 m 1,0,-1
 478 547 l 1,1,-1
 321 547 l 2,2,3
 163 547 163 547 161 541 c 128,-1,4
 159 535 159 535 159 446 c 2,5,-1
 159 382 l 1,6,-1
 161 230 l 1,7,8
 214 230 214 230 319.5 229 c 128,-1,9
 425 228 425 228 478 228 c 1,0,-1
51 389 m 1,10,-1
 50 656 l 1,11,-1
 586 656 l 1,12,-1
 586 120 l 1,13,14
 497 120 497 120 319.5 121 c 128,-1,15
 142 122 142 122 53 122 c 1,16,-1
 51 389 l 1,10,-1
EndSplineSet
Validated: 1
Ligature2: "'liga' Required Ligatures lookup 0 subtable" l i p u
Ligature2: "'liga' Required Ligatures lookup 0 subtable" l i p u space
EndChar

StartChar: uniE02C
Encoding: 57388 57388 155
Width: 642
GlyphClass: 3
Flags: W
LayerCount: 2
Fore
SplineSet
404 232 m 128,-1,1
 404 236 404 236 371.5 262 c 128,-1,2
 339 288 339 288 331 293 c 0,3,4
 329 295 329 295 325 295 c 0,5,6
 318 295 318 295 282 269 c 0,7,8
 240 236 240 236 240 233 c 0,9,10
 240 228 240 228 321 228 c 0,11,0
 404 228 404 228 404 232 c 128,-1,1
455 542 m 0,12,13
 455 547 455 547 324 547 c 0,14,15
 192 547 192 547 192 541 c 0,16,17
 192 533 192 533 213.5 514 c 128,-1,18
 235 495 235 495 254 485 c 0,19,20
 277 472 277 472 322 472 c 0,21,22
 364 472 364 472 389 484 c 0,23,24
 407 492 407 492 431 513 c 128,-1,25
 455 534 455 534 455 542 c 0,12,13
53 626 m 2,26,-1
 53 656 l 1,27,-1
 589 656 l 1,28,-1
 589 623 l 2,29,30
 589 555 589 555 552 493 c 0,31,32
 535 464 535 464 502.5 434 c 128,-1,33
 470 404 470 404 441 390 c 0,34,35
 410 374 410 374 410 371 c 0,36,37
 410 370 410 370 489 308 c 0,38,39
 570 245 570 245 579 233 c 0,40,41
 589 221 589 221 589 199 c 2,42,-1
 589 173 l 1,43,-1
 589 120 l 1,44,-1
 53 120 l 1,45,-1
 53 227 l 1,46,-1
 143 298 l 2,47,48
 233 370 233 370 233 372 c 0,49,50
 233 376 233 376 201 390 c 0,51,52
 170 405 170 405 135.5 439 c 128,-1,53
 101 473 101 473 85 504 c 0,54,55
 53 566 53 566 53 626 c 2,26,-1
EndSplineSet
Validated: 1
Ligature2: "'liga' Required Ligatures lookup 0 subtable" l o j e
Ligature2: "'liga' Required Ligatures lookup 0 subtable" l o j e space
EndChar

StartChar: uniE02D
Encoding: 57389 57389 156
Width: 647
GlyphClass: 3
Flags: W
LayerCount: 2
Fore
SplineSet
301 534 m 0,0,1
 313 540 313 540 325 540 c 0,2,3
 344 540 344 540 363 523 c 0,4,5
 380 506 380 506 380 484 c 0,6,7
 380 463 380 463 364.5 447.5 c 128,-1,8
 349 432 349 432 326 432 c 0,9,10
 315 432 315 432 309 434 c 0,11,12
 290 439 290 439 280 453.5 c 128,-1,13
 270 468 270 468 270 485 c 0,14,15
 270 518 270 518 301 534 c 0,0,1
55 319 m 0,16,17
 57 326 57 326 326 326 c 2,18,-1
 594 326 l 1,19,-1
 594 218 l 1,20,21
 504 218 504 218 324.5 219 c 128,-1,22
 145 220 145 220 55 220 c 1,23,-1
 54 266 l 2,24,25
 54 271 54 271 53.5 281 c 128,-1,26
 53 291 53 291 53 295 c 0,27,28
 53 315 53 315 55 319 c 0,16,17
EndSplineSet
Validated: 1
Ligature2: "'liga' Required Ligatures lookup 0 subtable" l o n space
Ligature2: "'liga' Required Ligatures lookup 0 subtable" l o n
EndChar

StartChar: uniE02E
Encoding: 57390 57390 157
Width: 645
GlyphClass: 3
Flags: W
LayerCount: 2
Fore
SplineSet
62 331 m 0,0,1
 66 331 66 331 110 310.5 c 128,-1,2
 154 290 154 290 157 290 c 0,3,4
 161 290 161 290 161 333 c 128,-1,5
 161 376 161 376 164 433.5 c 128,-1,6
 167 491 167 491 177 518 c 0,7,8
 193 561 193 561 230.5 596.5 c 128,-1,9
 268 632 268 632 312 647 c 0,10,11
 333 655 333 655 378 655 c 128,-1,12
 423 655 423 655 444 647 c 0,13,14
 483 634 483 634 517 605.5 c 128,-1,15
 551 577 551 577 568 544 c 0,16,17
 587 507 587 507 591 469.5 c 128,-1,18
 595 432 595 432 595 294 c 2,19,-1
 595 120 l 1,20,-1
 487 120 l 1,21,-1
 487 284 l 2,22,23
 487 421 487 421 482 457.5 c 128,-1,24
 477 494 477 494 455 515 c 0,25,26
 423 547 423 547 379 547 c 0,27,28
 316 547 316 547 284 488 c 0,29,30
 276 474 276 474 275 450.5 c 128,-1,31
 274 427 274 427 272 296 c 0,32,33
 270 125 270 125 265 125 c 0,34,35
 261 125 261 125 157 176 c 2,36,-1
 54 228 l 1,37,-1
 54 279 l 2,38,39
 54 331 54 331 62 331 c 0,0,1
EndSplineSet
Validated: 1
Ligature2: "'liga' Required Ligatures lookup 0 subtable" l u k a space
Ligature2: "'liga' Required Ligatures lookup 0 subtable" l u k a
EndChar

StartChar: uniE02F
Encoding: 57391 57391 158
Width: 643
GlyphClass: 3
Flags: W
LayerCount: 2
Fore
SplineSet
422 443 m 0,0,1
 395 456 395 456 331 458 c 2,2,-1
 316 458 l 2,3,4
 164 458 164 458 164 376 c 0,5,6
 164 358 164 358 181 342 c 0,7,8
 191 332 191 332 198 328 c 128,-1,9
 205 324 205 324 218.5 320.5 c 128,-1,10
 232 317 232 317 241 314 c 0,11,12
 257 308 257 308 321 308 c 0,13,14
 425 309 425 309 462 349 c 0,15,16
 479 368 479 368 479 385 c 0,17,18
 479 416 479 416 422 443 c 0,0,1
251 566 m 0,19,20
 278 571 278 571 311 571 c 0,21,22
 372 571 372 571 414 560 c 0,23,24
 491 540 491 540 540 491 c 128,-1,25
 589 442 589 442 589 384 c 0,26,27
 589 307 589 307 511.5 251.5 c 128,-1,28
 434 196 434 196 327 196 c 0,29,30
 255 196 255 196 215.5 206 c 128,-1,31
 176 216 176 216 133 244 c 0,32,33
 53 297 53 297 53 379 c 0,34,35
 53 448 53 448 113 497 c 0,36,37
 142 521 142 521 147 525 c 0,38,39
 174 549 174 549 251 566 c 0,19,20
300 434 m 0,40,41
 308 438 308 438 320 438 c 0,42,43
 341 438 341 438 358 422.5 c 128,-1,44
 375 407 375 407 375 386 c 0,45,46
 375 363 375 363 360 347.5 c 128,-1,47
 345 332 345 332 322 331 c 0,48,49
 289 331 289 331 275 357 c 0,50,51
 268 370 268 370 268 385 c 0,52,53
 268 421 268 421 300 434 c 0,40,41
EndSplineSet
Validated: 1
Ligature2: "'liga' Required Ligatures lookup 0 subtable" l u k i n space
Ligature2: "'liga' Required Ligatures lookup 0 subtable" l u k i n
EndChar

StartChar: uniE030
Encoding: 57392 57392 159
Width: 636
GlyphClass: 3
Flags: W
LayerCount: 2
Fore
SplineSet
57 663 m 0,0,1
 59 664 59 664 89 664 c 2,2,-1
 110 664 l 1,3,-1
 156 663 l 1,4,-1
 159 511 l 2,5,6
 162 357 162 357 168 341 c 0,7,8
 175 321 175 321 194.5 296.5 c 128,-1,9
 214 272 214 272 231 262 c 0,10,11
 274 235 274 235 320 235 c 0,12,13
 389 235 389 235 439 290 c 0,14,15
 467 321 467 321 473 354.5 c 128,-1,16
 479 388 479 388 479 514 c 2,17,-1
 479 661 l 1,18,-1
 490 663 l 2,19,20
 498 665 498 665 525 665 c 2,21,-1
 543 665 l 1,22,-1
 584 663 l 1,23,-1
 586 506 l 1,24,-1
 586 436 l 2,25,26
 586 347 586 347 577 315 c 0,27,28
 559 257 559 257 516 211 c 128,-1,29
 473 165 473 165 415 142 c 0,30,31
 369 125 369 125 310 125 c 0,32,33
 283 125 283 125 266 129 c 0,34,35
 193 145 193 145 135.5 200.5 c 128,-1,36
 78 256 78 256 59 329 c 0,37,38
 50 364 50 364 50 531 c 0,39,40
 50 660 50 660 57 663 c 0,0,1
EndSplineSet
Validated: 1
LCarets2: 4 0 0 0 0
Ligature2: "'liga' Required Ligatures lookup 0 subtable" l u p a
Ligature2: "'liga' Required Ligatures lookup 0 subtable" l u p a space
EndChar

StartChar: uniE031
Encoding: 57393 57393 160
Width: 641
GlyphClass: 3
Flags: W
LayerCount: 2
Fore
SplineSet
465 324 m 0,0,1
 465 331 465 331 422 331 c 128,-1,2
 379 331 379 331 375 327 c 0,3,4
 372 324 372 324 372 281 c 0,5,6
 372 239 372 239 381 239 c 0,7,8
 387 239 387 239 411 255 c 0,9,10
 428 266 428 266 446.5 289.5 c 128,-1,11
 465 313 465 313 465 324 c 0,0,1
264 285 m 2,12,-1
 264 331 l 1,13,-1
 217 331 l 2,14,15
 171 331 171 331 171 322 c 0,16,17
 171 318 171 318 179 305 c 0,18,19
 196 280 196 280 220.5 259 c 128,-1,20
 245 238 245 238 258 238 c 0,21,22
 264 238 264 238 264 285 c 2,12,-1
397 525 m 0,23,24
 385 531 385 531 380 531 c 0,25,26
 372 531 372 531 372 508 c 0,27,28
 372 505 372 505 372.5 498.5 c 128,-1,29
 373 492 373 492 373 487 c 2,30,-1
 374 442 l 1,31,-1
 420 440 l 2,32,33
 425 440 425 440 432 439.5 c 128,-1,34
 439 439 439 439 442 439 c 0,35,36
 464 439 464 439 464 447 c 0,37,38
 464 451 464 451 459 461 c 0,39,40
 453 473 453 473 431 495.5 c 128,-1,41
 409 518 409 518 397 525 c 0,23,24
264 486 m 2,42,43
 264 532 264 532 253 532 c 0,44,45
 244 532 244 532 208 499 c 0,46,47
 197 489 197 489 184 469 c 128,-1,48
 171 449 171 449 171 442 c 0,49,50
 171 439 171 439 217 439 c 2,51,-1
 264 439 l 1,52,-1
 264 486 l 2,42,43
235 639 m 0,53,54
 264 650 264 650 320 650 c 0,55,56
 368 650 368 650 393 642 c 0,57,58
 480 617 480 617 533.5 544.5 c 128,-1,59
 587 472 587 472 587 385 c 0,60,61
 587 356 587 356 581 328 c 0,62,63
 557 229 557 229 479 170 c 0,64,65
 408 116 408 116 321 116 c 0,66,67
 300 116 300 116 281 119 c 0,68,69
 204 131 204 131 144.5 181.5 c 128,-1,70
 85 232 85 232 63 304 c 0,71,72
 52 340 52 340 52 384 c 0,73,74
 52 432 52 432 65 471 c 0,75,76
 74 498 74 498 94.5 530 c 128,-1,77
 115 562 115 562 133 579 c 0,78,79
 176 618 176 618 235 639 c 0,53,54
EndSplineSet
Validated: 1
Ligature2: "'liga' Required Ligatures lookup 0 subtable" m a
Ligature2: "'liga' Required Ligatures lookup 0 subtable" m a space
EndChar

StartChar: uniE032
Encoding: 57394 57394 161
Width: 530
GlyphClass: 3
Flags: W
LayerCount: 2
Fore
SplineSet
268 235 m 0,0,1
 274 238 274 238 274 242 c 128,-1,2
 274 246 274 246 270 249.5 c 128,-1,3
 266 253 266 253 262 253 c 0,4,5
 256 253 256 253 253 248 c 0,6,7
 249 242 249 242 255 237 c 128,-1,8
 261 232 261 232 268 235 c 0,0,1
306 541 m 0,9,10
 294 547 294 547 261 547 c 0,11,12
 216 547 216 547 186.5 520 c 128,-1,13
 157 493 157 493 157 457 c 0,14,15
 157 432 157 432 174 409 c 0,16,17
 198 374 198 374 249 364 c 0,18,19
 250 364 250 364 252.5 363.5 c 128,-1,20
 255 363 255 363 257 363 c 0,21,22
 275 363 275 363 300.5 371.5 c 128,-1,23
 326 380 326 380 339 391 c 0,24,25
 370 418 370 418 370 454 c 0,26,27
 370 481 370 481 353 505 c 128,-1,28
 336 529 336 529 306 541 c 0,9,10
232 656 m 0,29,30
 252 658 252 658 262 658 c 0,31,32
 378 658 378 658 440 571 c 0,33,34
 477 520 477 520 477 466 c 0,35,36
 477 463 477 463 476.5 457 c 128,-1,37
 476 451 476 451 476 448 c 0,38,39
 474 405 474 405 460 375.5 c 128,-1,40
 446 346 446 346 415 315 c 2,41,-1
 383 285 l 1,42,-1
 382 244 l 2,43,44
 381 203 381 203 366 178 c 0,45,46
 348 151 348 151 326 138 c 0,47,48
 296 120 296 120 263 120 c 0,49,50
 229 120 229 120 199.5 137.5 c 128,-1,51
 170 155 170 155 155 187 c 0,52,53
 143 214 143 214 143 237 c 2,54,-1
 143 249 l 1,55,-1
 145 284 l 1,56,-1
 116 310 l 2,57,58
 90 332 90 332 70 370 c 0,59,60
 58 395 58 395 55 408.5 c 128,-1,61
 52 422 52 422 52 457 c 0,62,63
 52 493 52 493 54 506 c 128,-1,64
 56 519 56 519 66 539 c 0,65,66
 89 586 89 586 135 618.5 c 128,-1,67
 181 651 181 651 232 656 c 0,29,30
EndSplineSet
Validated: 1
Ligature2: "'liga' Required Ligatures lookup 0 subtable" m a m a space
Ligature2: "'liga' Required Ligatures lookup 0 subtable" m a m a
EndChar

